{"glyphs":{"0":{"ha":956,"x_min":70,"x_max":886,"o":"m 478 -22 q 696 40 605 -22 q 837 220 788 102 q 886 504 886 338 q 837 785 886 669 q 696 963 788 902 q 478 1024 605 1024 q 260 963 351 1024 q 119 786 168 902 q 70 504 70 669 q 119 220 70 338 q 259 40 168 103 q 478 -22 351 -22 m 478 155 q 377 194 420 155 q 311 310 334 232 q 288 504 288 388 q 340 763 288 676 q 478 849 392 849 q 578 810 536 849 q 644 695 621 772 q 668 504 668 619 q 617 242 668 329 q 478 155 565 155 "},"1":{"ha":680,"x_min":71,"x_max":521,"o":"m 521 1010 l 321 1010 l 71 852 l 71 662 l 302 807 l 308 807 l 308 0 l 521 0 l 521 1010 "},"2":{"ha":875,"x_min":72,"x_max":802,"o":"m 82 0 l 802 0 l 802 175 l 378 175 l 378 182 l 525 326 q 687 489 629 421 q 766 612 744 556 q 789 725 789 668 q 744 880 789 812 q 618 986 699 947 q 429 1024 538 1024 q 243 984 324 1024 q 117 871 162 944 q 72 699 72 798 l 275 699 q 293 782 275 747 q 347 836 312 817 q 428 855 381 855 q 507 837 472 855 q 562 787 542 820 q 582 711 582 755 q 566 636 582 671 q 519 567 550 602 q 441 487 487 531 l 82 154 l 82 0 "},"3":{"ha":916,"x_min":72,"x_max":844,"o":"m 455 -14 q 656 25 569 -14 q 794 130 744 63 q 844 284 844 197 q 786 441 844 378 q 616 518 727 504 l 616 526 q 754 598 701 541 q 806 739 807 654 q 763 884 807 819 q 641 986 720 948 q 458 1024 563 1024 q 273 986 355 1024 q 142 882 190 948 q 92 728 94 815 l 297 728 q 320 795 298 766 q 378 839 342 824 q 457 855 414 855 q 532 838 500 855 q 583 793 565 822 q 601 727 601 764 q 580 657 601 687 q 522 610 559 627 q 436 593 485 593 l 342 593 l 342 436 l 436 436 q 535 419 494 436 q 600 370 577 401 q 622 298 622 338 q 601 227 622 258 q 542 180 580 197 q 456 162 505 162 q 371 178 409 162 q 311 221 334 193 q 287 286 289 249 l 72 286 q 123 130 73 197 q 259 24 173 63 q 455 -14 345 -14 "},"4":{"ha":942,"x_min":67,"x_max":881,"o":"m 67 178 l 881 178 l 881 349 l 282 349 l 282 357 l 547 777 l 633 777 l 633 1010 l 488 1010 l 67 346 l 67 178 m 551 0 l 756 0 l 756 1010 l 555 1010 l 555 303 l 551 229 l 551 0 "},"5":{"ha":895,"x_min":85,"x_max":829,"o":"m 451 -14 q 648 31 563 -14 q 781 156 733 76 q 828 337 829 235 q 787 509 829 434 q 674 626 746 583 q 511 669 603 669 q 391 645 445 669 q 311 582 337 620 l 305 582 l 331 836 l 772 836 l 772 1010 l 155 1010 l 107 477 l 297 443 q 362 493 320 475 q 448 511 403 511 q 538 488 499 511 q 600 425 578 466 q 622 331 622 385 q 600 239 622 279 q 540 176 579 199 q 451 154 501 154 q 342 190 388 154 q 292 286 296 227 l 85 286 q 135 131 87 198 q 265 25 183 63 q 451 -14 346 -14 "},"6":{"ha":917,"x_min":66,"x_max":847,"o":"m 470 -14 q 667 31 582 -14 q 800 156 752 76 q 847 338 847 236 q 807 507 847 433 q 696 622 766 580 q 537 664 626 664 q 432 647 481 664 q 344 599 382 630 q 282 522 305 567 l 275 522 q 327 755 276 669 q 477 841 378 841 q 575 811 535 841 q 626 728 614 781 l 837 728 q 780 878 827 811 q 655 985 733 945 q 477 1024 578 1024 q 308 987 383 1024 q 178 880 232 950 q 95 710 124 810 q 66 482 67 610 q 99 249 66 344 q 190 96 133 153 q 319 12 247 38 q 470 -14 392 -13 m 469 154 q 381 178 419 154 q 319 243 342 202 q 297 332 297 283 q 310 401 297 368 q 347 458 324 433 q 402 496 370 482 q 470 510 433 510 q 558 486 519 510 q 618 423 596 463 q 640 332 640 383 q 618 242 640 282 q 557 178 596 201 q 469 154 518 154 "},"7":{"ha":826,"x_min":53,"x_max":762,"o":"m 122 0 l 342 0 l 762 833 l 762 1010 l 53 1010 l 53 836 l 541 836 l 541 829 l 122 0 "},"8":{"ha":918,"x_min":67,"x_max":851,"o":"m 459 -14 q 661 23 573 -14 q 800 125 750 61 q 851 272 850 190 q 821 388 850 335 q 742 476 792 441 q 632 521 692 511 l 632 528 q 762 607 711 545 q 813 752 813 669 q 767 891 813 830 q 641 988 721 953 q 459 1024 561 1024 q 276 989 357 1024 q 150 892 196 953 q 105 752 105 831 q 155 607 105 669 q 286 528 205 545 l 286 521 q 175 476 224 511 q 96 388 125 441 q 67 272 67 335 q 117 125 67 190 q 256 23 168 61 q 459 -14 345 -14 m 459 143 q 370 162 408 143 q 310 213 331 180 q 289 289 289 246 q 311 366 289 332 q 371 419 333 400 q 459 439 410 439 q 546 419 508 439 q 606 366 584 400 q 628 289 628 332 q 607 213 628 246 q 547 162 585 180 q 459 143 509 143 m 459 594 q 383 612 416 594 q 331 659 350 629 q 313 730 313 690 q 331 799 313 769 q 383 846 350 829 q 459 863 416 863 q 535 846 502 863 q 586 799 567 829 q 605 730 605 769 q 586 659 605 690 q 534 612 567 629 q 459 594 501 594 "},"9":{"ha":917,"x_min":70,"x_max":851,"o":"m 447 1024 q 249 979 334 1024 q 117 855 164 934 q 70 674 70 775 q 110 506 70 580 q 221 391 151 433 q 380 349 291 349 q 486 366 436 349 q 574 415 535 383 q 635 491 612 447 l 642 491 q 590 255 641 341 q 440 169 539 169 q 342 200 382 169 q 291 285 303 230 l 80 285 q 137 132 90 200 q 261 25 184 65 q 440 -14 339 -14 q 610 23 534 -14 q 739 130 686 60 q 822 302 793 201 q 851 531 851 402 q 817 763 850 668 q 727 914 784 857 q 598 998 670 972 q 447 1024 525 1024 m 449 856 q 537 832 498 856 q 598 768 576 808 q 620 680 620 728 q 607 612 620 644 q 570 556 594 580 q 515 517 547 531 q 447 504 484 504 q 359 527 398 504 q 299 590 321 550 q 277 680 277 630 q 299 769 277 729 q 360 833 322 809 q 449 856 399 856 "},"A":{"ha":1039,"x_min":33,"x_max":1005,"o":"m 262 0 l 515 779 l 523 779 l 776 0 l 1005 0 l 657 1010 l 382 1010 l 33 0 l 262 0 m 248 397 l 248 230 l 788 230 l 788 397 l 248 397 "},"Ä":{"ha":1039,"x_min":33,"x_max":1005,"o":"m 262 0 l 515 779 l 523 779 l 776 0 l 1005 0 l 657 1010 l 382 1010 l 33 0 l 262 0 m 248 397 l 248 230 l 788 230 l 788 397 l 248 397 m 369 1114 q 442 1144 412 1114 q 472 1214 472 1173 q 442 1285 472 1256 q 369 1314 412 1314 q 296 1285 327 1314 q 265 1214 265 1256 q 296 1144 265 1173 q 369 1114 327 1114 m 671 1114 q 744 1144 714 1114 q 773 1214 773 1173 q 744 1285 773 1256 q 671 1314 714 1314 q 598 1285 628 1314 q 567 1214 567 1256 q 598 1144 567 1173 q 671 1114 628 1114 "},"Ã":{"ha":1039,"x_min":33,"x_max":1005,"o":"m 262 0 l 515 779 l 523 779 l 776 0 l 1005 0 l 657 1010 l 382 1010 l 33 0 l 262 0 m 248 397 l 248 230 l 788 230 l 788 397 l 248 397 m 378 1110 q 394 1164 378 1144 q 435 1185 409 1185 q 475 1173 457 1185 q 511 1147 493 1162 q 555 1122 530 1133 q 617 1111 580 1110 q 730 1162 684 1111 q 777 1306 776 1212 l 662 1309 q 647 1254 662 1275 q 604 1233 632 1233 q 564 1244 582 1233 q 526 1270 546 1255 q 481 1295 506 1284 q 422 1307 456 1307 q 308 1256 354 1306 q 261 1111 261 1205 l 378 1110 "},"À":{"ha":1039,"x_min":33,"x_max":1005,"o":"m 262 0 l 515 779 l 523 779 l 776 0 l 1005 0 l 657 1010 l 382 1010 l 33 0 l 262 0 m 248 397 l 248 230 l 788 230 l 788 397 l 248 397 m 446 1108 l 595 1108 l 490 1332 l 296 1332 l 446 1108 "},"Á":{"ha":1039,"x_min":33,"x_max":1005,"o":"m 262 0 l 515 779 l 523 779 l 776 0 l 1005 0 l 657 1010 l 382 1010 l 33 0 l 262 0 m 248 397 l 248 230 l 788 230 l 788 397 l 248 397 m 444 1108 l 592 1108 l 743 1332 l 548 1332 l 444 1108 "},"Â":{"ha":1039,"x_min":33,"x_max":1005,"o":"m 262 0 l 515 779 l 523 779 l 776 0 l 1005 0 l 657 1010 l 382 1010 l 33 0 l 262 0 m 248 397 l 248 230 l 788 230 l 788 397 l 248 397 m 618 1101 l 798 1101 l 798 1108 l 597 1325 l 441 1325 l 241 1108 l 241 1101 l 420 1101 l 519 1221 l 618 1101 "},"Å":{"ha":1039,"x_min":33,"x_max":1005,"o":"m 262 0 l 515 779 l 523 779 l 776 0 l 1005 0 l 657 1010 l 382 1010 l 33 0 l 262 0 m 248 397 l 248 230 l 788 230 l 788 397 l 248 397 m 519 1068 q 596 1088 561 1068 q 651 1142 630 1108 q 671 1217 671 1176 q 651 1291 671 1258 q 596 1345 630 1325 q 519 1365 561 1365 q 443 1345 477 1365 q 388 1291 408 1325 q 367 1217 367 1258 q 412 1112 367 1156 q 519 1068 456 1068 m 519 1153 q 472 1171 491 1152 q 453 1217 453 1190 q 472 1262 453 1243 q 519 1281 492 1281 q 566 1263 547 1281 q 585 1217 585 1244 q 566 1171 585 1190 q 519 1153 547 1153 "},"Ǻ":{"ha":1039,"x_min":33,"x_max":1005,"o":"m 262 0 l 515 779 l 523 779 l 776 0 l 1005 0 l 657 1010 l 382 1010 l 33 0 l 262 0 m 248 397 l 248 230 l 788 230 l 788 397 l 248 397 m 452 1404 l 586 1404 l 726 1546 l 550 1546 l 452 1404 m 519 1075 q 596 1094 561 1075 q 651 1145 630 1113 q 671 1216 671 1177 q 626 1316 671 1274 q 519 1357 582 1357 q 443 1338 477 1357 q 387 1287 408 1319 q 367 1216 367 1255 q 412 1116 367 1158 q 519 1075 456 1075 m 519 1155 q 472 1173 491 1155 q 453 1216 453 1191 q 472 1259 453 1241 q 519 1277 491 1277 q 566 1259 547 1277 q 585 1216 585 1241 q 566 1173 585 1191 q 519 1155 546 1155 "},"":{"ha":1039,"x_min":33,"x_max":1022,"o":"m 262 0 l 515 779 l 523 779 l 776 0 l 1005 0 l 657 1010 l 382 1010 l 33 0 l 262 0 m 248 397 l 248 230 l 788 230 l 788 397 l 248 397 m 519 1068 q 596 1088 561 1068 q 651 1142 630 1108 q 671 1217 671 1176 q 651 1291 671 1258 q 596 1345 630 1325 q 519 1365 561 1365 q 443 1345 477 1365 q 388 1291 408 1325 q 367 1217 367 1258 q 412 1112 367 1156 q 519 1068 456 1068 m 519 1153 q 472 1171 491 1152 q 453 1217 453 1190 q 472 1262 453 1243 q 519 1281 492 1281 q 566 1263 547 1281 q 585 1217 585 1244 q 566 1171 585 1190 q 519 1153 547 1153 m 909 -283 q 975 -273 947 -283 q 1022 -254 1004 -264 l 1000 -145 q 978 -153 990 -148 q 948 -157 965 -157 q 912 -144 925 -157 q 901 -108 900 -131 q 930 -47 900 -72 q 1006 0 959 -22 l 849 57 q 780 3 806 37 q 745 -72 754 -31 q 744 -153 737 -112 q 800 -249 756 -216 q 909 -283 844 -283 "},"Ā":{"ha":1039,"x_min":33,"x_max":1005,"o":"m 262 0 l 515 779 l 523 779 l 776 0 l 1005 0 l 657 1010 l 382 1010 l 33 0 l 262 0 m 248 397 l 248 230 l 788 230 l 788 397 l 248 397 m 760 1263 l 279 1263 l 279 1149 l 760 1149 l 760 1263 "},"Ă":{"ha":1039,"x_min":33,"x_max":1005,"o":"m 262 0 l 515 779 l 523 779 l 776 0 l 1005 0 l 657 1010 l 382 1010 l 33 0 l 262 0 m 248 397 l 248 230 l 788 230 l 788 397 l 248 397 m 617 1274 q 594 1213 617 1239 q 519 1186 572 1186 q 443 1213 466 1186 q 421 1274 421 1240 l 276 1274 q 341 1130 276 1185 q 519 1075 407 1075 q 697 1130 631 1075 q 763 1274 763 1185 l 617 1274 "},"Ą":{"ha":1039,"x_min":33,"x_max":1022,"o":"m 262 0 l 515 779 l 523 779 l 776 0 l 1005 0 l 657 1010 l 382 1010 l 33 0 l 262 0 m 248 397 l 248 230 l 788 230 l 788 397 l 248 397 m 909 -283 q 975 -273 947 -283 q 1022 -254 1004 -264 l 1000 -145 q 978 -153 990 -148 q 948 -157 965 -157 q 912 -144 925 -157 q 901 -108 900 -131 q 930 -47 900 -72 q 1006 0 959 -22 l 849 57 q 780 3 806 37 q 745 -72 754 -31 q 744 -153 737 -112 q 800 -249 756 -216 q 909 -283 844 -283 "},"Ǎ":{"ha":1039,"x_min":33,"x_max":1005,"o":"m 262 0 l 515 779 l 523 779 l 776 0 l 1005 0 l 657 1010 l 382 1010 l 33 0 l 262 0 m 248 397 l 248 230 l 788 230 l 788 397 l 248 397 m 420 1325 l 241 1325 l 241 1318 l 441 1101 l 597 1101 l 798 1318 l 798 1325 l 618 1325 l 519 1204 l 420 1325 "},"Ǟ":{"ha":1039,"x_min":33,"x_max":1005,"o":"m 262 0 l 515 779 l 523 779 l 776 0 l 1005 0 l 657 1010 l 382 1010 l 33 0 l 262 0 m 248 397 l 248 230 l 788 230 l 788 397 l 248 397 m 369 1114 q 442 1144 412 1114 q 472 1214 472 1173 q 442 1285 472 1256 q 369 1314 412 1314 q 296 1285 327 1314 q 265 1214 265 1256 q 296 1144 265 1173 q 369 1114 327 1114 m 671 1114 q 744 1144 714 1114 q 773 1214 773 1173 q 744 1285 773 1256 q 671 1314 714 1314 q 598 1285 628 1314 q 567 1214 567 1256 q 598 1144 567 1173 q 671 1114 628 1114 m 760 1515 l 279 1515 l 279 1401 l 760 1401 l 760 1515 "},"Ǡ":{"ha":1039,"x_min":33,"x_max":1005,"o":"m 262 0 l 515 779 l 523 779 l 776 0 l 1005 0 l 657 1010 l 382 1010 l 33 0 l 262 0 m 248 397 l 248 230 l 788 230 l 788 397 l 248 397 m 520 1114 q 594 1143 563 1114 q 625 1214 625 1173 q 594 1285 625 1256 q 520 1314 563 1314 q 445 1285 476 1314 q 414 1214 414 1256 q 445 1143 414 1173 q 520 1114 476 1114 m 760 1515 l 279 1515 l 279 1401 l 760 1401 l 760 1515 "},"Ȁ":{"ha":1039,"x_min":33,"x_max":1005,"o":"m 262 0 l 515 779 l 523 779 l 776 0 l 1005 0 l 657 1010 l 382 1010 l 33 0 l 262 0 m 248 397 l 248 230 l 788 230 l 788 397 l 248 397 m 330 1108 l 478 1108 l 373 1332 l 176 1332 l 330 1108 m 574 1108 l 719 1108 l 659 1332 l 468 1332 l 574 1108 "},"Ȃ":{"ha":1039,"x_min":33,"x_max":1005,"o":"m 262 0 l 515 779 l 523 779 l 776 0 l 1005 0 l 657 1010 l 382 1010 l 33 0 l 262 0 m 248 397 l 248 230 l 788 230 l 788 397 l 248 397 m 274 1132 l 420 1132 q 442 1193 420 1166 q 518 1220 465 1220 q 593 1193 571 1220 q 616 1132 616 1166 l 763 1132 q 696 1279 763 1222 q 518 1337 630 1337 q 339 1279 405 1337 q 274 1132 273 1222 "},"Ȧ":{"ha":1039,"x_min":33,"x_max":1005,"o":"m 262 0 l 515 779 l 523 779 l 776 0 l 1005 0 l 657 1010 l 382 1010 l 33 0 l 262 0 m 248 397 l 248 230 l 788 230 l 788 397 l 248 397 m 519 1108 q 600 1139 566 1108 q 633 1214 633 1170 q 600 1289 633 1258 q 519 1320 566 1320 q 439 1289 472 1320 q 405 1214 405 1258 q 439 1139 405 1170 q 519 1108 472 1108 "},"Ḁ":{"ha":1039,"x_min":33,"x_max":1005,"o":"m 262 0 l 515 779 l 523 779 l 776 0 l 1005 0 l 657 1010 l 382 1010 l 33 0 l 262 0 m 248 397 l 248 230 l 788 230 l 788 397 l 248 397 m 387 -154 q 425 -238 387 -205 q 519 -271 463 -271 q 611 -238 573 -271 q 649 -154 649 -206 q 611 -72 649 -106 q 519 -38 573 -38 q 425 -72 463 -38 q 387 -154 387 -106 m 466 -154 q 481 -119 466 -133 q 519 -106 496 -106 q 554 -119 540 -106 q 569 -154 569 -133 q 554 -191 569 -177 q 519 -205 540 -205 q 481 -191 496 -205 q 466 -154 466 -177 "},"Ạ":{"ha":1039,"x_min":33,"x_max":1005,"o":"m 262 0 l 515 779 l 523 779 l 776 0 l 1005 0 l 657 1010 l 382 1010 l 33 0 l 262 0 m 248 397 l 248 230 l 788 230 l 788 397 l 248 397 m 519 -284 q 600 -253 566 -284 q 633 -178 633 -221 q 600 -103 633 -134 q 519 -72 566 -72 q 439 -103 472 -72 q 405 -178 405 -134 q 439 -253 405 -221 q 519 -284 472 -284 "},"Ả":{"ha":1039,"x_min":33,"x_max":1005,"o":"m 262 0 l 515 779 l 523 779 l 776 0 l 1005 0 l 657 1010 l 382 1010 l 33 0 l 262 0 m 248 397 l 248 230 l 788 230 l 788 397 l 248 397 m 597 1119 l 597 1162 q 670 1191 637 1168 q 702 1259 702 1214 q 634 1357 702 1322 q 433 1393 565 1393 l 428 1298 q 498 1288 470 1298 q 526 1252 527 1279 q 505 1221 527 1233 q 430 1207 482 1210 l 441 1119 l 597 1119 "},"Ấ":{"ha":1039,"x_min":33,"x_max":1005,"o":"m 262 0 l 515 779 l 523 779 l 776 0 l 1005 0 l 657 1010 l 382 1010 l 33 0 l 262 0 m 248 397 l 248 230 l 788 230 l 788 397 l 248 397 m 262 1093 l 413 1093 l 519 1176 l 623 1093 l 774 1093 l 575 1246 l 461 1246 l 262 1093 m 723 1180 l 841 1180 l 1001 1365 l 838 1365 l 723 1180 "},"Ầ":{"ha":1039,"x_min":33,"x_max":1005,"o":"m 262 0 l 515 779 l 523 779 l 776 0 l 1005 0 l 657 1010 l 382 1010 l 33 0 l 262 0 m 248 397 l 248 230 l 788 230 l 788 397 l 248 397 m 575 1243 l 462 1243 l 263 1090 l 414 1090 l 519 1173 l 623 1090 l 775 1090 l 575 1243 m 199 1361 l 37 1361 l 197 1177 l 315 1177 l 199 1361 "},"Ẩ":{"ha":1039,"x_min":33,"x_max":1005,"o":"m 262 0 l 515 779 l 523 779 l 776 0 l 1005 0 l 657 1010 l 382 1010 l 33 0 l 262 0 m 248 397 l 248 230 l 788 230 l 788 397 l 248 397 m 578 1241 l 457 1241 l 263 1088 l 407 1088 l 518 1174 l 628 1088 l 772 1088 l 578 1241 m 817 1174 l 817 1209 q 878 1234 850 1215 q 906 1291 906 1254 q 853 1373 906 1344 q 700 1403 800 1403 l 695 1323 q 756 1315 731 1323 q 780 1285 780 1308 q 761 1259 780 1268 q 699 1248 741 1250 l 708 1174 l 817 1174 "},"Ẫ":{"ha":1039,"x_min":33,"x_max":1005,"o":"m 262 0 l 515 779 l 523 779 l 776 0 l 1005 0 l 657 1010 l 382 1010 l 33 0 l 262 0 m 248 397 l 248 230 l 788 230 l 788 397 l 248 397 m 576 1237 l 463 1237 l 263 1086 l 410 1086 l 518 1168 l 629 1086 l 774 1086 l 576 1237 m 627 1405 q 617 1369 626 1386 q 592 1352 607 1352 q 556 1359 574 1352 q 519 1373 538 1365 q 482 1388 500 1381 q 444 1394 463 1394 q 376 1361 401 1394 q 351 1289 351 1328 l 422 1270 q 432 1302 422 1288 q 458 1316 441 1316 q 493 1310 477 1316 q 527 1295 510 1304 q 563 1279 544 1286 q 606 1273 583 1273 q 674 1306 649 1273 q 700 1380 699 1340 l 627 1405 "},"Ậ":{"ha":1039,"x_min":33,"x_max":1005,"o":"m 262 0 l 515 779 l 523 779 l 776 0 l 1005 0 l 657 1010 l 382 1010 l 33 0 l 262 0 m 248 397 l 248 230 l 788 230 l 788 397 l 248 397 m 618 1101 l 798 1101 l 798 1108 l 597 1325 l 441 1325 l 241 1108 l 241 1101 l 420 1101 l 519 1221 l 618 1101 m 519 -284 q 600 -253 566 -284 q 633 -178 633 -221 q 600 -103 633 -134 q 519 -72 566 -72 q 439 -103 472 -72 q 405 -178 405 -134 q 439 -253 405 -221 q 519 -284 472 -284 "},"Ắ":{"ha":1039,"x_min":33,"x_max":1005,"o":"m 262 0 l 515 779 l 523 779 l 776 0 l 1005 0 l 657 1010 l 382 1010 l 33 0 l 262 0 m 248 397 l 248 230 l 788 230 l 788 397 l 248 397 m 626 1250 q 601 1197 626 1221 q 516 1173 576 1173 q 432 1197 457 1173 q 407 1250 406 1221 l 273 1250 q 338 1133 272 1178 q 516 1088 404 1088 q 696 1133 629 1088 q 763 1250 763 1178 l 626 1250 m 459 1249 l 569 1249 l 691 1376 l 546 1376 l 459 1249 "},"Ằ":{"ha":1039,"x_min":33,"x_max":1005,"o":"m 262 0 l 515 779 l 523 779 l 776 0 l 1005 0 l 657 1010 l 382 1010 l 33 0 l 262 0 m 248 397 l 248 230 l 788 230 l 788 397 l 248 397 m 626 1251 q 600 1198 626 1222 q 516 1174 575 1174 q 432 1198 457 1174 q 407 1251 406 1222 l 273 1251 q 338 1136 272 1181 q 516 1090 404 1090 q 696 1136 630 1090 q 763 1251 763 1181 l 626 1251 m 472 1249 l 580 1249 l 494 1376 l 349 1376 l 472 1249 "},"Ẳ":{"ha":1039,"x_min":33,"x_max":1005,"o":"m 262 0 l 515 779 l 523 779 l 776 0 l 1005 0 l 657 1010 l 382 1010 l 33 0 l 262 0 m 248 397 l 248 230 l 788 230 l 788 397 l 248 397 m 624 1243 q 599 1192 625 1214 q 514 1171 574 1171 q 430 1192 455 1171 q 403 1243 404 1213 l 268 1243 q 335 1127 269 1171 q 514 1083 400 1083 q 694 1127 628 1083 q 761 1243 761 1171 l 624 1243 m 575 1265 l 575 1299 q 647 1321 615 1304 q 679 1374 679 1338 q 618 1450 679 1422 q 438 1477 557 1477 l 432 1404 q 502 1397 474 1404 q 530 1367 530 1390 q 508 1344 530 1352 q 435 1335 485 1337 l 447 1265 l 575 1265 "},"Ẵ":{"ha":1039,"x_min":33,"x_max":1005,"o":"m 262 0 l 515 779 l 523 779 l 776 0 l 1005 0 l 657 1010 l 382 1010 l 33 0 l 262 0 m 248 397 l 248 230 l 788 230 l 788 397 l 248 397 m 623 1245 q 598 1194 623 1215 q 514 1173 572 1173 q 430 1195 454 1173 q 405 1245 405 1216 l 271 1245 q 337 1128 271 1173 q 514 1083 403 1083 q 692 1128 626 1083 q 759 1245 759 1173 l 623 1245 m 632 1456 q 618 1414 632 1431 q 586 1397 604 1397 q 544 1404 564 1397 q 504 1419 524 1411 q 465 1435 485 1428 q 423 1442 445 1442 q 340 1404 372 1442 q 308 1318 308 1367 l 393 1295 q 407 1336 393 1320 q 440 1353 421 1353 q 493 1342 470 1353 q 542 1319 516 1330 q 604 1308 567 1308 q 686 1345 654 1308 q 719 1430 719 1382 l 632 1456 "},"Ặ":{"ha":1039,"x_min":33,"x_max":1005,"o":"m 262 0 l 515 779 l 523 779 l 776 0 l 1005 0 l 657 1010 l 382 1010 l 33 0 l 262 0 m 248 397 l 248 230 l 788 230 l 788 397 l 248 397 m 617 1274 q 594 1213 617 1239 q 519 1186 572 1186 q 443 1213 466 1186 q 421 1274 421 1240 l 276 1274 q 341 1130 276 1185 q 519 1075 407 1075 q 697 1130 631 1075 q 763 1274 763 1185 l 617 1274 m 519 -284 q 600 -253 566 -284 q 633 -178 633 -221 q 600 -103 633 -134 q 519 -72 566 -72 q 439 -103 472 -72 q 405 -178 405 -134 q 439 -253 405 -221 q 519 -284 472 -284 "},"Α":{"ha":1039,"x_min":33,"x_max":1005,"o":"m 262 0 l 515 779 l 523 779 l 776 0 l 1005 0 l 657 1010 l 382 1010 l 33 0 l 262 0 m 248 397 l 248 230 l 788 230 l 788 397 l 248 397 "},"Ά":{"ha":1039,"x_min":33,"x_max":1005,"o":"m 262 0 l 515 779 l 523 779 l 776 0 l 1005 0 l 657 1010 l 382 1010 l 33 0 l 262 0 m 248 397 l 248 230 l 788 230 l 788 397 l 248 397 m 89 848 l 213 848 l 329 1083 l 142 1083 l 89 848 "},"Ἀ":{"ha":1039,"x_min":33,"x_max":1005,"o":"m 262 0 l 515 779 l 523 779 l 776 0 l 1005 0 l 657 1010 l 382 1010 l 33 0 l 262 0 m 248 397 l 248 230 l 788 230 l 788 397 l 248 397 m 272 1010 l 153 1010 l 153 949 q 148 900 153 923 q 132 860 144 878 q 99 827 120 841 l 157 765 q 216 807 190 781 q 257 868 242 833 q 272 945 272 903 l 272 1010 "},"Ἁ":{"ha":1039,"x_min":33,"x_max":1005,"o":"m 262 0 l 515 779 l 523 779 l 776 0 l 1005 0 l 657 1010 l 382 1010 l 33 0 l 262 0 m 248 397 l 248 230 l 788 230 l 788 397 l 248 397 m 122 945 q 156 836 123 882 q 237 765 188 789 l 295 827 q 263 861 274 842 q 247 903 252 881 q 242 949 243 926 l 242 1010 l 122 1010 l 122 945 "},"Ἂ":{"ha":1039,"x_min":-145,"x_max":1005,"o":"m 262 0 l 515 779 l 523 779 l 776 0 l 1005 0 l 657 1010 l 382 1010 l 33 0 l 262 0 m 248 397 l 248 230 l 788 230 l 788 397 l 248 397 m 297 793 l 218 1012 l 71 1012 l 71 998 l 231 783 l 297 783 l 297 793 m 39 1012 l -88 1012 l -88 960 q -102 876 -87 912 q -144 808 -116 839 l -90 767 q -20 818 -49 789 q 24 882 9 847 q 39 956 39 917 l 39 1012 "},"Ἃ":{"ha":1039,"x_min":-107,"x_max":1005,"o":"m 262 0 l 515 779 l 523 779 l 776 0 l 1005 0 l 657 1010 l 382 1010 l 33 0 l 262 0 m 248 397 l 248 230 l 788 230 l 788 397 l 248 397 m 296 796 l 218 1010 l 70 1010 l 70 996 l 230 780 l 296 780 l 296 796 m -106 945 q -73 836 -107 882 q 11 765 -40 789 l 69 827 q 25 882 36 849 q 15 949 15 914 l 15 1010 l -106 1010 l -106 945 "},"Ἄ":{"ha":1039,"x_min":-115,"x_max":1005,"o":"m 262 0 l 515 779 l 523 779 l 776 0 l 1005 0 l 657 1010 l 382 1010 l 33 0 l 262 0 m 248 397 l 248 230 l 788 230 l 788 397 l 248 397 m 80 780 l 146 780 l 307 996 l 307 1010 l 160 1010 l 80 796 l 80 780 m 60 1010 l -61 1010 l -61 949 q -72 882 -62 914 q -115 827 -83 849 l -57 765 q 3 808 -23 781 q 45 869 30 834 q 60 945 60 904 l 60 1010 "},"Ἅ":{"ha":1039,"x_min":-135,"x_max":1005,"o":"m 262 0 l 515 779 l 523 779 l 776 0 l 1005 0 l 657 1010 l 382 1010 l 33 0 l 262 0 m 248 397 l 248 230 l 788 230 l 788 397 l 248 397 m 76 780 l 139 780 l 301 996 l 301 1010 l 152 1010 l 76 796 l 76 780 m -21 765 l 37 827 q -4 879 7 848 q -15 949 -15 909 l -15 1010 l -135 1010 l -135 945 q -102 834 -135 880 q -21 765 -68 788 "},"Ἆ":{"ha":1039,"x_min":-25,"x_max":1005,"o":"m 262 0 l 515 779 l 523 779 l 776 0 l 1005 0 l 657 1010 l 382 1010 l 33 0 l 262 0 m 248 397 l 248 230 l 788 230 l 788 397 l 248 397 m 299 1178 q 285 1137 299 1154 q 252 1120 272 1120 q 211 1127 231 1120 q 172 1143 191 1134 q 132 1159 152 1152 q 89 1165 112 1165 q 7 1127 39 1165 q -25 1041 -25 1090 l 61 1017 q 73 1058 61 1041 q 107 1076 86 1076 q 148 1069 130 1076 q 184 1053 166 1062 q 222 1037 201 1044 q 270 1030 243 1030 q 352 1067 320 1030 q 384 1152 384 1103 l 299 1178 m 247 995 l 136 995 l 136 944 q 128 888 136 915 q 90 843 119 861 l 145 793 q 218 851 189 813 q 247 941 247 890 l 247 995 "},"Ἇ":{"ha":1039,"x_min":-43,"x_max":1005,"o":"m 262 0 l 515 779 l 523 779 l 776 0 l 1005 0 l 657 1010 l 382 1010 l 33 0 l 262 0 m 248 397 l 248 230 l 788 230 l 788 397 l 248 397 m 116 941 q 146 850 116 888 q 216 793 176 812 l 274 843 q 236 888 244 861 q 227 944 227 915 l 227 995 l 116 995 l 116 941 m 280 1178 q 267 1137 280 1154 q 233 1120 253 1120 q 192 1127 212 1120 q 153 1143 173 1134 q 113 1159 133 1152 q 71 1165 93 1165 q -12 1127 20 1165 q -43 1041 -43 1090 l 42 1017 q 55 1058 42 1041 q 88 1076 68 1076 q 129 1069 111 1076 q 165 1053 147 1062 q 203 1037 182 1044 q 251 1030 224 1030 q 333 1067 301 1030 q 365 1152 365 1103 l 280 1178 "},"Ᾰ":{"ha":1039,"x_min":33,"x_max":1005,"o":"m 262 0 l 515 779 l 523 779 l 776 0 l 1005 0 l 657 1010 l 382 1010 l 33 0 l 262 0 m 248 397 l 248 230 l 788 230 l 788 397 l 248 397 m 617 1274 q 594 1213 617 1239 q 519 1186 572 1186 q 443 1213 466 1186 q 421 1274 421 1240 l 276 1274 q 341 1130 276 1185 q 519 1075 407 1075 q 697 1130 631 1075 q 763 1274 763 1185 l 617 1274 "},"Ᾱ":{"ha":1039,"x_min":33,"x_max":1005,"o":"m 262 0 l 515 779 l 523 779 l 776 0 l 1005 0 l 657 1010 l 382 1010 l 33 0 l 262 0 m 248 397 l 248 230 l 788 230 l 788 397 l 248 397 m 760 1263 l 279 1263 l 279 1149 l 760 1149 l 760 1263 "},"Ὰ":{"ha":1039,"x_min":33,"x_max":1005,"o":"m 262 0 l 515 779 l 523 779 l 776 0 l 1005 0 l 657 1010 l 382 1010 l 33 0 l 262 0 m 248 397 l 248 230 l 788 230 l 788 397 l 248 397 m 227 779 l 291 779 l 291 798 l 214 1010 l 67 1010 l 67 996 l 227 779 "},"Ⱥ":{"ha":1039,"x_min":33,"x_max":1005,"o":"m 847 1138 l 719 1138 l 309 -128 l 438 -128 l 847 1138 m 262 0 l 515 779 l 523 779 l 776 0 l 1005 0 l 657 1010 l 382 1010 l 33 0 l 262 0 m 248 397 l 248 230 l 788 230 l 788 397 l 248 397 "},"Ά":{"ha":1039,"x_min":33,"x_max":1005,"o":"m 262 0 l 515 779 l 523 779 l 776 0 l 1005 0 l 657 1010 l 382 1010 l 33 0 l 262 0 m 248 397 l 248 230 l 788 230 l 788 397 l 248 397 m 93 852 l 198 852 l 358 1069 l 358 1083 l 170 1083 l 93 871 l 93 852 "},"А":{"ha":1039,"x_min":33,"x_max":1005,"o":"m 262 0 l 515 779 l 523 779 l 776 0 l 1005 0 l 657 1010 l 382 1010 l 33 0 l 262 0 m 248 397 l 248 230 l 788 230 l 788 397 l 248 397 "},"Ӑ":{"ha":1039,"x_min":33,"x_max":1005,"o":"m 262 0 l 515 779 l 523 779 l 776 0 l 1005 0 l 657 1010 l 382 1010 l 33 0 l 262 0 m 248 397 l 248 230 l 788 230 l 788 397 l 248 397 m 617 1274 q 594 1213 617 1239 q 519 1186 572 1186 q 443 1213 466 1186 q 421 1274 421 1240 l 276 1274 q 341 1130 276 1185 q 519 1075 407 1075 q 697 1130 631 1075 q 763 1274 763 1185 l 617 1274 "},"Ӓ":{"ha":1039,"x_min":33,"x_max":1005,"o":"m 262 0 l 515 779 l 523 779 l 776 0 l 1005 0 l 657 1010 l 382 1010 l 33 0 l 262 0 m 248 397 l 248 230 l 788 230 l 788 397 l 248 397 m 369 1114 q 442 1144 412 1114 q 472 1214 472 1173 q 442 1285 472 1256 q 369 1314 412 1314 q 296 1285 327 1314 q 265 1214 265 1256 q 296 1144 265 1173 q 369 1114 327 1114 m 671 1114 q 744 1144 714 1114 q 773 1214 773 1173 q 744 1285 773 1256 q 671 1314 714 1314 q 598 1285 628 1314 q 567 1214 567 1256 q 598 1144 567 1173 q 671 1114 628 1114 "},"ᾈ":{"ha":1039,"x_min":33,"x_max":1005,"o":"m 262 0 l 515 779 l 523 779 l 776 0 l 1005 0 l 657 1010 l 382 1010 l 33 0 l 262 0 m 248 397 l 248 230 l 788 230 l 788 397 l 248 397 m 587 -335 q 623 -333 608 -335 q 652 -327 638 -330 l 652 -246 q 638 -247 646 -246 q 620 -248 631 -248 q 592 -238 600 -248 q 583 -207 583 -228 l 583 -65 l 458 -65 l 458 -208 q 496 -305 458 -275 q 587 -335 534 -335 m 272 1010 l 153 1010 l 153 949 q 148 900 153 923 q 132 860 144 878 q 99 827 120 841 l 157 765 q 216 807 190 781 q 257 868 242 833 q 272 945 272 903 l 272 1010 "},"ᾉ":{"ha":1039,"x_min":33,"x_max":1005,"o":"m 262 0 l 515 779 l 523 779 l 776 0 l 1005 0 l 657 1010 l 382 1010 l 33 0 l 262 0 m 248 397 l 248 230 l 788 230 l 788 397 l 248 397 m 587 -335 q 623 -333 608 -335 q 652 -327 638 -330 l 652 -246 q 638 -247 646 -246 q 620 -248 631 -248 q 592 -238 600 -248 q 583 -207 583 -228 l 583 -65 l 458 -65 l 458 -208 q 496 -305 458 -275 q 587 -335 534 -335 m 122 945 q 156 836 123 882 q 237 765 188 789 l 295 827 q 263 861 274 842 q 247 903 252 881 q 242 949 243 926 l 242 1010 l 122 1010 l 122 945 "},"ᾊ":{"ha":1039,"x_min":-145,"x_max":1005,"o":"m 262 0 l 515 779 l 523 779 l 776 0 l 1005 0 l 657 1010 l 382 1010 l 33 0 l 262 0 m 248 397 l 248 230 l 788 230 l 788 397 l 248 397 m 587 -335 q 623 -333 608 -335 q 652 -327 638 -330 l 652 -246 q 638 -247 646 -246 q 620 -248 631 -248 q 592 -238 600 -248 q 583 -207 583 -228 l 583 -65 l 458 -65 l 458 -208 q 496 -305 458 -275 q 587 -335 534 -335 m 297 793 l 218 1012 l 71 1012 l 71 998 l 231 783 l 297 783 l 297 793 m 39 1012 l -88 1012 l -88 960 q -102 876 -87 912 q -144 808 -116 839 l -90 767 q -20 818 -49 789 q 24 882 9 847 q 39 956 39 917 l 39 1012 "},"ᾋ":{"ha":1039,"x_min":-107,"x_max":1005,"o":"m 262 0 l 515 779 l 523 779 l 776 0 l 1005 0 l 657 1010 l 382 1010 l 33 0 l 262 0 m 248 397 l 248 230 l 788 230 l 788 397 l 248 397 m 587 -335 q 623 -333 608 -335 q 652 -327 638 -330 l 652 -246 q 638 -247 646 -246 q 620 -248 631 -248 q 592 -238 600 -248 q 583 -207 583 -228 l 583 -65 l 458 -65 l 458 -208 q 496 -305 458 -275 q 587 -335 534 -335 m 296 796 l 218 1010 l 70 1010 l 70 996 l 230 780 l 296 780 l 296 796 m -106 945 q -73 836 -107 882 q 11 765 -40 789 l 69 827 q 25 882 36 849 q 15 949 15 914 l 15 1010 l -106 1010 l -106 945 "},"ᾌ":{"ha":1039,"x_min":-115,"x_max":1005,"o":"m 262 0 l 515 779 l 523 779 l 776 0 l 1005 0 l 657 1010 l 382 1010 l 33 0 l 262 0 m 248 397 l 248 230 l 788 230 l 788 397 l 248 397 m 80 780 l 146 780 l 307 996 l 307 1010 l 160 1010 l 80 796 l 80 780 m 60 1010 l -61 1010 l -61 949 q -72 882 -62 914 q -115 827 -83 849 l -57 765 q 3 808 -23 781 q 45 869 30 834 q 60 945 60 904 l 60 1010 m 587 -335 q 623 -333 608 -335 q 652 -327 638 -330 l 652 -246 q 638 -247 646 -246 q 620 -248 631 -248 q 592 -238 600 -248 q 583 -207 583 -228 l 583 -65 l 458 -65 l 458 -208 q 496 -305 458 -275 q 587 -335 534 -335 "},"ᾍ":{"ha":1039,"x_min":-135,"x_max":1005,"o":"m 262 0 l 515 779 l 523 779 l 776 0 l 1005 0 l 657 1010 l 382 1010 l 33 0 l 262 0 m 248 397 l 248 230 l 788 230 l 788 397 l 248 397 m 587 -335 q 623 -333 608 -335 q 652 -327 638 -330 l 652 -246 q 638 -247 646 -246 q 620 -248 631 -248 q 592 -238 600 -248 q 583 -207 583 -228 l 583 -65 l 458 -65 l 458 -208 q 496 -305 458 -275 q 587 -335 534 -335 m 76 780 l 139 780 l 301 996 l 301 1010 l 152 1010 l 76 796 l 76 780 m -21 765 l 37 827 q -4 879 7 848 q -15 949 -15 909 l -15 1010 l -135 1010 l -135 945 q -102 834 -135 880 q -21 765 -68 788 "},"ᾎ":{"ha":1039,"x_min":-25,"x_max":1005,"o":"m 262 0 l 515 779 l 523 779 l 776 0 l 1005 0 l 657 1010 l 382 1010 l 33 0 l 262 0 m 248 397 l 248 230 l 788 230 l 788 397 l 248 397 m 299 1178 q 285 1137 299 1154 q 252 1120 272 1120 q 211 1127 231 1120 q 172 1143 191 1134 q 132 1159 152 1152 q 89 1165 112 1165 q 7 1127 39 1165 q -25 1041 -25 1090 l 61 1017 q 73 1058 61 1041 q 107 1076 86 1076 q 148 1069 130 1076 q 184 1053 166 1062 q 222 1037 201 1044 q 270 1030 243 1030 q 352 1067 320 1030 q 384 1152 384 1103 l 299 1178 m 247 995 l 136 995 l 136 944 q 128 888 136 915 q 90 843 119 861 l 145 793 q 218 851 189 813 q 247 941 247 890 l 247 995 m 587 -335 q 623 -333 608 -335 q 652 -327 638 -330 l 652 -246 q 638 -247 646 -246 q 620 -248 631 -248 q 592 -238 600 -248 q 583 -207 583 -228 l 583 -65 l 458 -65 l 458 -208 q 496 -305 458 -275 q 587 -335 534 -335 "},"ᾏ":{"ha":1039,"x_min":-43,"x_max":1005,"o":"m 262 0 l 515 779 l 523 779 l 776 0 l 1005 0 l 657 1010 l 382 1010 l 33 0 l 262 0 m 248 397 l 248 230 l 788 230 l 788 397 l 248 397 m 587 -335 q 623 -333 608 -335 q 652 -327 638 -330 l 652 -246 q 638 -247 646 -246 q 620 -248 631 -248 q 592 -238 600 -248 q 583 -207 583 -228 l 583 -65 l 458 -65 l 458 -208 q 496 -305 458 -275 q 587 -335 534 -335 m 116 941 q 146 850 116 888 q 216 793 176 812 l 274 843 q 236 888 244 861 q 227 944 227 915 l 227 995 l 116 995 l 116 941 m 280 1178 q 267 1137 280 1154 q 233 1120 253 1120 q 192 1127 212 1120 q 153 1143 173 1134 q 113 1159 133 1152 q 71 1165 93 1165 q -12 1127 20 1165 q -43 1041 -43 1090 l 42 1017 q 55 1058 42 1041 q 88 1076 68 1076 q 129 1069 111 1076 q 165 1053 147 1062 q 203 1037 182 1044 q 251 1030 224 1030 q 333 1067 301 1030 q 365 1152 365 1103 l 280 1178 "},"ᾼ":{"ha":1039,"x_min":33,"x_max":1005,"o":"m 262 0 l 515 779 l 523 779 l 776 0 l 1005 0 l 657 1010 l 382 1010 l 33 0 l 262 0 m 248 397 l 248 230 l 788 230 l 788 397 l 248 397 m 587 -335 q 623 -333 608 -335 q 652 -327 638 -330 l 652 -246 q 638 -247 646 -246 q 620 -248 631 -248 q 592 -238 600 -248 q 583 -207 583 -228 l 583 -65 l 458 -65 l 458 -208 q 496 -305 458 -275 q 587 -335 534 -335 "},"Λ":{"ha":1039,"x_min":33,"x_max":1005,"o":"m 262 0 l 515 779 l 523 779 l 776 0 l 1005 0 l 657 1010 l 382 1010 l 33 0 l 262 0 "},"Æ":{"ha":1431,"x_min":33,"x_max":1350,"o":"m 33 0 l 268 0 l 597 800 l 668 800 l 668 0 l 1350 0 l 1350 176 l 881 176 l 881 417 l 1313 417 l 1313 593 l 881 593 l 881 834 l 1348 834 l 1348 1010 l 466 1010 l 33 0 m 265 230 l 790 230 l 790 397 l 265 397 l 265 230 "},"Ǣ":{"ha":1431,"x_min":33,"x_max":1350,"o":"m 33 0 l 268 0 l 597 800 l 668 800 l 668 0 l 1350 0 l 1350 176 l 881 176 l 881 417 l 1313 417 l 1313 593 l 881 593 l 881 834 l 1348 834 l 1348 1010 l 466 1010 l 33 0 m 265 230 l 790 230 l 790 397 l 265 397 l 265 230 m 1150 1263 l 669 1263 l 669 1149 l 1150 1149 l 1150 1263 "},"Ǽ":{"ha":1431,"x_min":33,"x_max":1350,"o":"m 33 0 l 268 0 l 597 800 l 668 800 l 668 0 l 1350 0 l 1350 176 l 881 176 l 881 417 l 1313 417 l 1313 593 l 881 593 l 881 834 l 1348 834 l 1348 1010 l 466 1010 l 33 0 m 265 230 l 790 230 l 790 397 l 265 397 l 265 230 m 834 1108 l 982 1108 l 1133 1332 l 939 1332 l 834 1108 "},"Ӕ":{"ha":1431,"x_min":33,"x_max":1350,"o":"m 33 0 l 268 0 l 597 800 l 668 800 l 668 0 l 1350 0 l 1350 176 l 881 176 l 881 417 l 1313 417 l 1313 593 l 881 593 l 881 834 l 1348 834 l 1348 1010 l 466 1010 l 33 0 m 265 230 l 790 230 l 790 397 l 265 397 l 265 230 "},"B":{"ha":918,"x_min":88,"x_max":867,"o":"m 88 0 l 519 0 q 710 36 633 0 q 827 136 788 73 q 867 279 867 199 q 836 408 867 354 q 753 492 804 462 q 645 524 703 522 l 645 534 q 739 574 698 546 q 804 647 780 603 q 828 751 828 692 q 790 886 828 827 q 678 977 753 944 q 492 1010 604 1010 l 88 1010 l 88 0 m 301 175 l 301 443 l 480 443 q 569 425 532 443 q 626 374 606 406 q 647 300 647 342 q 606 209 647 243 q 475 175 565 175 l 301 175 m 301 587 l 301 837 l 464 837 q 573 804 535 837 q 612 716 612 770 q 592 647 612 676 q 538 603 572 618 q 460 587 504 587 l 301 587 "},"Ḃ":{"ha":918,"x_min":88,"x_max":867,"o":"m 88 0 l 519 0 q 710 36 633 0 q 827 136 788 73 q 867 279 867 199 q 836 408 867 354 q 753 492 804 462 q 645 524 703 522 l 645 534 q 739 574 698 546 q 804 647 780 603 q 828 751 828 692 q 790 886 828 827 q 678 977 753 944 q 492 1010 604 1010 l 88 1010 l 88 0 m 301 175 l 301 443 l 480 443 q 569 425 532 443 q 626 374 606 406 q 647 300 647 342 q 606 209 647 243 q 475 175 565 175 l 301 175 m 301 587 l 301 837 l 464 837 q 573 804 535 837 q 612 716 612 770 q 592 647 612 676 q 538 603 572 618 q 460 587 504 587 l 301 587 m 444 1108 q 525 1139 491 1108 q 558 1214 558 1170 q 525 1289 558 1258 q 444 1320 491 1320 q 364 1289 398 1320 q 330 1214 330 1258 q 364 1139 330 1170 q 444 1108 398 1108 "},"Ḅ":{"ha":918,"x_min":88,"x_max":867,"o":"m 88 0 l 519 0 q 710 36 633 0 q 827 136 788 73 q 867 279 867 199 q 836 408 867 354 q 753 492 804 462 q 645 524 703 522 l 645 534 q 739 574 698 546 q 804 647 780 603 q 828 751 828 692 q 790 886 828 827 q 678 977 753 944 q 492 1010 604 1010 l 88 1010 l 88 0 m 301 175 l 301 443 l 480 443 q 569 425 532 443 q 626 374 606 406 q 647 300 647 342 q 606 209 647 243 q 475 175 565 175 l 301 175 m 301 587 l 301 837 l 464 837 q 573 804 535 837 q 612 716 612 770 q 592 647 612 676 q 538 603 572 618 q 460 587 504 587 l 301 587 m 445 -284 q 526 -253 492 -284 q 559 -178 559 -221 q 526 -103 559 -134 q 445 -72 492 -72 q 365 -103 399 -72 q 331 -178 331 -134 q 365 -253 331 -221 q 445 -284 399 -284 "},"Ḇ":{"ha":918,"x_min":88,"x_max":867,"o":"m 88 0 l 519 0 q 710 36 633 0 q 827 136 788 73 q 867 279 867 199 q 836 408 867 354 q 753 492 804 462 q 645 524 703 522 l 645 534 q 739 574 698 546 q 804 647 780 603 q 828 751 828 692 q 790 886 828 827 q 678 977 753 944 q 492 1010 604 1010 l 88 1010 l 88 0 m 301 175 l 301 443 l 480 443 q 569 425 532 443 q 626 374 606 406 q 647 300 647 342 q 606 209 647 243 q 475 175 565 175 l 301 175 m 301 587 l 301 837 l 464 837 q 573 804 535 837 q 612 716 612 770 q 592 647 612 676 q 538 603 572 618 q 460 587 504 587 l 301 587 m 686 -126 l 205 -126 l 205 -240 l 686 -240 l 686 -126 "},"Ƀ":{"ha":1005,"x_min":31,"x_max":955,"o":"m 176 0 l 607 0 q 798 36 721 0 q 915 136 875 73 q 955 279 955 199 q 923 408 955 354 q 841 492 892 462 q 733 524 791 522 l 733 534 q 827 574 786 546 q 892 647 868 603 q 915 751 915 692 q 878 886 915 827 q 766 977 840 944 q 580 1010 691 1010 l 176 1010 l 176 0 m 389 175 l 389 443 l 568 443 q 657 425 619 443 q 714 374 694 406 q 734 300 734 342 q 693 209 734 243 q 563 175 653 175 l 389 175 m 389 587 l 389 837 l 551 837 q 661 804 622 837 q 700 716 700 770 q 680 647 700 676 q 626 603 660 618 q 547 587 591 587 l 389 587 m 30 247 l 522 247 l 522 371 l 30 371 l 30 247 "},"Ɓ":{"ha":1203,"x_min":49,"x_max":1153,"o":"m 485 836 l 485 1010 l 338 1010 q 184 978 249 1010 q 84 888 119 946 q 49 750 49 829 l 49 651 l 240 651 l 240 709 q 247 769 239 740 q 276 817 254 798 q 339 836 298 836 l 485 836 m 374 0 l 805 0 q 996 36 919 0 q 1113 136 1074 73 q 1153 279 1153 199 q 1122 408 1153 354 q 1039 492 1090 462 q 931 524 988 522 l 931 534 q 1025 574 983 546 q 1090 647 1066 603 q 1114 751 1114 692 q 1076 886 1114 827 q 964 977 1038 944 q 778 1010 889 1010 l 374 1010 l 374 0 m 587 175 l 587 443 l 766 443 q 854 425 817 443 q 912 374 892 406 q 932 300 932 342 q 891 209 932 243 q 761 175 850 175 l 587 175 m 587 587 l 587 837 l 749 837 q 859 804 820 837 q 898 716 898 770 q 878 647 898 676 q 823 603 858 618 q 745 587 789 587 l 587 587 "},"В":{"ha":918,"x_min":88,"x_max":867,"o":"m 88 0 l 519 0 q 710 36 633 0 q 827 136 788 73 q 867 279 867 199 q 836 408 867 354 q 753 492 804 462 q 645 524 703 522 l 645 534 q 739 574 698 546 q 804 647 780 603 q 828 751 828 692 q 790 886 828 827 q 678 977 753 944 q 492 1010 604 1010 l 88 1010 l 88 0 m 301 175 l 301 443 l 480 443 q 569 425 532 443 q 626 374 606 406 q 647 300 647 342 q 606 209 647 243 q 475 175 565 175 l 301 175 m 301 587 l 301 837 l 464 837 q 573 804 535 837 q 612 716 612 770 q 592 647 612 676 q 538 603 572 618 q 460 587 504 587 l 301 587 "},"Β":{"ha":918,"x_min":88,"x_max":867,"o":"m 88 0 l 519 0 q 710 36 633 0 q 827 136 788 73 q 867 279 867 199 q 836 408 867 354 q 753 492 804 462 q 645 524 703 522 l 645 534 q 739 574 698 546 q 804 647 780 603 q 828 751 828 692 q 790 886 828 827 q 678 977 753 944 q 492 1010 604 1010 l 88 1010 l 88 0 m 301 175 l 301 443 l 480 443 q 569 425 532 443 q 626 374 606 406 q 647 300 647 342 q 606 209 647 243 q 475 175 565 175 l 301 175 m 301 587 l 301 837 l 464 837 q 573 804 535 837 q 612 716 612 770 q 592 647 612 676 q 538 603 572 618 q 460 587 504 587 l 301 587 "},"C":{"ha":1045,"x_min":70,"x_max":979,"o":"m 979 656 q 932 812 969 744 q 837 927 895 880 q 704 999 779 975 q 541 1024 628 1024 q 301 963 407 1024 q 132 786 194 902 q 70 505 70 670 q 131 224 70 340 q 299 47 193 109 q 541 -14 405 -14 q 715 16 638 -14 q 848 95 792 45 q 937 210 904 146 q 979 344 971 275 l 763 345 q 737 273 756 305 q 689 220 718 242 q 624 186 660 198 q 544 175 587 175 q 409 213 468 175 q 319 324 351 250 q 287 505 287 397 q 319 684 287 610 q 409 796 351 758 q 545 835 467 835 q 626 823 589 835 q 692 787 663 810 q 739 731 721 764 q 763 656 757 698 l 979 656 "},"Ƈ":{"ha":1163,"x_min":70,"x_max":1175,"o":"m 979 656 l 979 741 q 1000 817 979 789 q 1053 856 1021 844 q 1116 868 1084 868 q 1145 867 1127 868 q 1175 865 1163 866 l 1175 1035 q 1125 1040 1149 1039 q 1075 1041 1101 1041 q 926 1009 994 1041 q 816 917 857 978 q 774 768 774 857 l 774 656 l 979 656 m 979 656 q 932 812 969 744 q 837 927 895 880 q 704 999 779 975 q 541 1024 628 1024 q 301 963 407 1024 q 132 786 194 902 q 70 505 70 670 q 131 224 70 340 q 299 47 193 109 q 541 -14 405 -14 q 715 16 638 -14 q 848 95 792 45 q 937 210 904 146 q 979 344 971 275 l 763 345 q 737 273 756 305 q 689 220 718 242 q 624 186 660 198 q 544 175 587 175 q 409 213 468 175 q 319 324 351 250 q 287 505 287 397 q 319 684 287 610 q 409 796 351 758 q 545 835 467 835 q 626 823 589 835 q 692 787 663 810 q 739 731 721 764 q 763 656 757 698 l 979 656 "},"Ç":{"ha":1045,"x_min":70,"x_max":979,"o":"m 979 656 q 932 812 969 744 q 837 927 895 880 q 704 999 779 975 q 541 1024 628 1024 q 301 963 407 1024 q 132 786 194 902 q 70 505 70 670 q 131 224 70 340 q 299 47 193 109 q 541 -14 405 -14 q 715 16 638 -14 q 848 95 792 45 q 937 210 904 146 q 979 344 971 275 l 763 345 q 737 273 756 305 q 689 220 718 242 q 624 186 660 198 q 544 175 587 175 q 409 213 468 175 q 319 324 351 250 q 287 505 287 397 q 319 684 287 610 q 409 796 351 758 q 545 835 467 835 q 626 823 589 835 q 692 787 663 810 q 739 731 721 764 q 763 656 757 698 l 979 656 m 488 3 l 466 -97 q 541 -119 517 -104 q 564 -165 565 -135 q 527 -212 563 -197 q 430 -227 492 -227 l 432 -321 q 624 -277 556 -321 q 692 -160 693 -233 q 660 -78 692 -108 q 577 -40 627 -48 l 584 3 l 488 3 "},"Ć":{"ha":1045,"x_min":70,"x_max":979,"o":"m 979 656 q 932 812 969 744 q 837 927 895 880 q 704 999 779 975 q 541 1024 628 1024 q 301 963 407 1024 q 132 786 194 902 q 70 505 70 670 q 131 224 70 340 q 299 47 193 109 q 541 -14 405 -14 q 715 16 638 -14 q 848 95 792 45 q 937 210 904 146 q 979 344 971 275 l 763 345 q 737 273 756 305 q 689 220 718 242 q 624 186 660 198 q 544 175 587 175 q 409 213 468 175 q 319 324 351 250 q 287 505 287 397 q 319 684 287 610 q 409 796 351 758 q 545 835 467 835 q 626 823 589 835 q 692 787 663 810 q 739 731 721 764 q 763 656 757 698 l 979 656 m 465 1108 l 614 1108 l 764 1332 l 570 1332 l 465 1108 "},"Ĉ":{"ha":1045,"x_min":70,"x_max":979,"o":"m 979 656 q 932 812 969 744 q 837 927 895 880 q 704 999 779 975 q 541 1024 628 1024 q 301 963 407 1024 q 132 786 194 902 q 70 505 70 670 q 131 224 70 340 q 299 47 193 109 q 541 -14 405 -14 q 715 16 638 -14 q 848 95 792 45 q 937 210 904 146 q 979 344 971 275 l 763 345 q 737 273 756 305 q 689 220 718 242 q 624 186 660 198 q 544 175 587 175 q 409 213 468 175 q 319 324 351 250 q 287 505 287 397 q 319 684 287 610 q 409 796 351 758 q 545 835 467 835 q 626 823 589 835 q 692 787 663 810 q 739 731 721 764 q 763 656 757 698 l 979 656 m 640 1101 l 819 1101 l 819 1108 l 618 1325 l 462 1325 l 262 1108 l 262 1101 l 441 1101 l 541 1221 l 640 1101 "},"Ċ":{"ha":1045,"x_min":70,"x_max":979,"o":"m 979 656 q 932 812 969 744 q 837 927 895 880 q 704 999 779 975 q 541 1024 628 1024 q 301 963 407 1024 q 132 786 194 902 q 70 505 70 670 q 131 224 70 340 q 299 47 193 109 q 541 -14 405 -14 q 715 16 638 -14 q 848 95 792 45 q 937 210 904 146 q 979 344 971 275 l 763 345 q 737 273 756 305 q 689 220 718 242 q 624 186 660 198 q 544 175 587 175 q 409 213 468 175 q 319 324 351 250 q 287 505 287 397 q 319 684 287 610 q 409 796 351 758 q 545 835 467 835 q 626 823 589 835 q 692 787 663 810 q 739 731 721 764 q 763 656 757 698 l 979 656 m 541 1108 q 621 1139 588 1108 q 654 1214 654 1170 q 621 1289 654 1258 q 541 1320 588 1320 q 461 1289 494 1320 q 427 1214 427 1258 q 461 1139 427 1170 q 541 1108 494 1108 "},"Č":{"ha":1045,"x_min":70,"x_max":979,"o":"m 979 656 q 932 812 969 744 q 837 927 895 880 q 704 999 779 975 q 541 1024 628 1024 q 301 963 407 1024 q 132 786 194 902 q 70 505 70 670 q 131 224 70 340 q 299 47 193 109 q 541 -14 405 -14 q 715 16 638 -14 q 848 95 792 45 q 937 210 904 146 q 979 344 971 275 l 763 345 q 737 273 756 305 q 689 220 718 242 q 624 186 660 198 q 544 175 587 175 q 409 213 468 175 q 319 324 351 250 q 287 505 287 397 q 319 684 287 610 q 409 796 351 758 q 545 835 467 835 q 626 823 589 835 q 692 787 663 810 q 739 731 721 764 q 763 656 757 698 l 979 656 m 441 1325 l 262 1325 l 262 1318 l 462 1101 l 618 1101 l 819 1318 l 819 1325 l 640 1325 l 541 1204 l 441 1325 "},"Ḉ":{"ha":1045,"x_min":70,"x_max":979,"o":"m 979 656 q 932 812 969 744 q 837 927 895 880 q 704 999 779 975 q 541 1024 628 1024 q 301 963 407 1024 q 132 786 194 902 q 70 505 70 670 q 131 224 70 340 q 299 47 193 109 q 541 -14 405 -14 q 715 16 638 -14 q 848 95 792 45 q 937 210 904 146 q 979 344 971 275 l 763 345 q 737 273 756 305 q 689 220 718 242 q 624 186 660 198 q 544 175 587 175 q 409 213 468 175 q 319 324 351 250 q 287 505 287 397 q 319 684 287 610 q 409 796 351 758 q 545 835 467 835 q 626 823 589 835 q 692 787 663 810 q 739 731 721 764 q 763 656 757 698 l 979 656 m 488 3 l 466 -97 q 541 -119 517 -104 q 564 -165 565 -135 q 527 -212 563 -197 q 430 -227 492 -227 l 432 -321 q 624 -277 556 -321 q 692 -160 693 -233 q 660 -78 692 -108 q 577 -40 627 -48 l 584 3 l 488 3 m 465 1108 l 614 1108 l 764 1332 l 570 1332 l 465 1108 "},"Ȼ":{"ha":1045,"x_min":70,"x_max":979,"o":"m 256 -128 l 385 -128 l 795 1138 l 666 1138 l 256 -128 m 979 656 q 932 812 969 744 q 837 927 895 880 q 704 999 779 975 q 541 1024 628 1024 q 301 963 407 1024 q 132 786 194 902 q 70 505 70 670 q 131 224 70 340 q 299 47 193 109 q 541 -14 405 -14 q 715 16 638 -14 q 848 95 792 45 q 937 210 904 146 q 979 344 971 275 l 763 345 q 737 273 756 305 q 689 220 718 242 q 624 186 660 198 q 544 175 587 175 q 409 213 468 175 q 319 324 351 250 q 287 505 287 397 q 319 684 287 610 q 409 796 351 758 q 545 835 467 835 q 626 823 589 835 q 692 787 663 810 q 739 731 721 764 q 763 656 757 698 l 979 656 "},"Ɔ":{"ha":1045,"x_min":66,"x_max":975,"o":"m 66 354 q 113 198 76 266 q 207 83 149 130 q 341 11 265 36 q 504 -14 416 -14 q 744 47 637 -14 q 912 224 850 108 q 975 505 975 340 q 913 786 975 670 q 745 963 852 902 q 504 1024 639 1024 q 329 995 407 1024 q 196 915 252 965 q 108 800 141 864 q 66 666 74 736 l 281 665 q 308 737 289 705 q 356 790 327 768 q 421 824 384 812 q 500 835 458 835 q 635 798 577 835 q 726 687 693 760 q 758 505 758 613 q 726 326 758 400 q 636 214 694 253 q 499 175 577 175 q 418 187 455 175 q 352 223 381 200 q 306 279 324 246 q 281 354 288 312 l 66 354 "},"Ϲ":{"ha":1045,"x_min":70,"x_max":979,"o":"m 979 656 q 932 812 969 744 q 837 927 895 880 q 704 999 779 975 q 541 1024 628 1024 q 301 963 407 1024 q 132 786 194 902 q 70 505 70 670 q 131 224 70 340 q 299 47 193 109 q 541 -14 405 -14 q 715 16 638 -14 q 848 95 792 45 q 937 210 904 146 q 979 344 971 275 l 763 345 q 737 273 756 305 q 689 220 718 242 q 624 186 660 198 q 544 175 587 175 q 409 213 468 175 q 319 324 351 250 q 287 505 287 397 q 319 684 287 610 q 409 796 351 758 q 545 835 467 835 q 626 823 589 835 q 692 787 663 810 q 739 731 721 764 q 763 656 757 698 l 979 656 "},"D":{"ha":1010,"x_min":88,"x_max":940,"o":"m 446 0 q 710 61 600 0 q 881 235 821 121 q 940 506 940 348 q 881 776 940 663 q 711 950 821 889 q 449 1010 601 1010 l 88 1010 l 88 0 l 446 0 m 301 183 l 301 827 l 437 827 q 597 794 532 827 q 694 689 661 760 q 727 506 727 618 q 694 322 727 393 q 597 217 661 251 q 437 183 532 183 l 301 183 "},"Ɗ":{"ha":1300,"x_min":49,"x_max":1230,"o":"m 49 651 l 240 651 l 240 709 q 247 767 239 740 q 276 810 254 794 q 339 827 298 827 l 485 827 l 485 1010 l 338 1010 q 184 978 249 1010 q 84 888 119 946 q 49 750 49 829 l 49 651 m 736 0 q 1000 61 890 0 q 1171 235 1111 121 q 1230 506 1230 348 q 1171 776 1230 663 q 1001 950 1111 889 q 739 1010 891 1010 l 378 1010 l 378 0 l 736 0 m 591 183 l 591 827 l 727 827 q 887 794 822 827 q 984 689 951 760 q 1017 506 1017 618 q 984 322 1017 393 q 887 217 951 251 q 727 183 822 183 l 591 183 "},"Ď":{"ha":1010,"x_min":88,"x_max":940,"o":"m 446 0 q 710 61 600 0 q 881 235 821 121 q 940 506 940 348 q 881 776 940 663 q 711 950 821 889 q 449 1010 601 1010 l 88 1010 l 88 0 l 446 0 m 301 183 l 301 827 l 437 827 q 597 794 532 827 q 694 689 661 760 q 727 506 727 618 q 694 322 727 393 q 597 217 661 251 q 437 183 532 183 l 301 183 m 310 1325 l 131 1325 l 131 1318 l 330 1101 l 487 1101 l 687 1318 l 687 1325 l 508 1325 l 409 1204 l 310 1325 "},"Ḋ":{"ha":1010,"x_min":88,"x_max":940,"o":"m 446 0 q 710 61 600 0 q 881 235 821 121 q 940 506 940 348 q 881 776 940 663 q 711 950 821 889 q 449 1010 601 1010 l 88 1010 l 88 0 l 446 0 m 301 183 l 301 827 l 437 827 q 597 794 532 827 q 694 689 661 760 q 727 506 727 618 q 694 322 727 393 q 597 217 661 251 q 437 183 532 183 l 301 183 m 409 1108 q 489 1139 456 1108 q 522 1214 522 1170 q 489 1289 522 1258 q 408 1320 456 1320 q 328 1289 362 1320 q 295 1214 295 1258 q 328 1139 295 1170 q 409 1108 362 1108 "},"Ḍ":{"ha":1010,"x_min":88,"x_max":940,"o":"m 446 0 q 710 61 600 0 q 881 235 821 121 q 940 506 940 348 q 881 776 940 663 q 711 950 821 889 q 449 1010 601 1010 l 88 1010 l 88 0 l 446 0 m 301 183 l 301 827 l 437 827 q 597 794 532 827 q 694 689 661 760 q 727 506 727 618 q 694 322 727 393 q 597 217 661 251 q 437 183 532 183 l 301 183 m 444 -284 q 524 -253 491 -284 q 557 -178 557 -221 q 524 -103 557 -134 q 444 -72 491 -72 q 363 -103 397 -72 q 330 -178 330 -134 q 363 -253 330 -221 q 444 -284 397 -284 "},"Ḏ":{"ha":1010,"x_min":88,"x_max":940,"o":"m 446 0 q 710 61 600 0 q 881 235 821 121 q 940 506 940 348 q 881 776 940 663 q 711 950 821 889 q 449 1010 601 1010 l 88 1010 l 88 0 l 446 0 m 301 183 l 301 827 l 437 827 q 597 794 532 827 q 694 689 661 760 q 727 506 727 618 q 694 322 727 393 q 597 217 661 251 q 437 183 532 183 l 301 183 m 684 -126 l 203 -126 l 203 -240 l 684 -240 l 684 -126 "},"Ḑ":{"ha":1010,"x_min":88,"x_max":940,"o":"m 446 0 q 710 61 600 0 q 881 235 821 121 q 940 506 940 348 q 881 776 940 663 q 711 950 821 889 q 449 1010 601 1010 l 88 1010 l 88 0 l 446 0 m 301 183 l 301 827 l 437 827 q 597 794 532 827 q 694 689 661 760 q 727 506 727 618 q 694 322 727 393 q 597 217 661 251 q 437 183 532 183 l 301 183 m 287 -324 l 434 -324 l 542 -80 l 348 -80 l 287 -324 "},"Ḓ":{"ha":1010,"x_min":88,"x_max":940,"o":"m 446 0 q 710 61 600 0 q 881 235 821 121 q 940 506 940 348 q 881 776 940 663 q 711 950 821 889 q 449 1010 601 1010 l 88 1010 l 88 0 l 446 0 m 301 183 l 301 827 l 437 827 q 597 794 532 827 q 694 689 661 760 q 727 506 727 618 q 694 322 727 393 q 597 217 661 251 q 437 183 532 183 l 301 183 m 543 -287 l 722 -287 l 722 -280 l 522 -63 l 365 -63 l 165 -280 l 165 -287 l 344 -287 l 443 -167 l 543 -287 "},"Ɖ":{"ha":1010,"x_min":-52,"x_max":940,"o":"m 446 0 q 710 61 600 0 q 881 235 821 121 q 940 506 940 348 q 881 776 940 663 q 711 950 821 889 q 449 1010 601 1010 l 179 1010 l 179 827 l 437 827 q 597 794 532 827 q 694 689 661 760 q 727 506 727 618 q 694 322 727 393 q 597 217 661 251 q 437 183 532 183 l 183 183 l 183 0 l 446 0 m 301 1010 l 88 1010 l 88 0 l 301 0 l 301 1010 m -52 471 l 439 471 l 439 595 l -52 595 l -52 471 "},"ǲ":{"ha":1804,"x_min":88,"x_max":1727,"o":"m 446 0 q 710 61 600 0 q 881 235 821 121 q 940 506 940 348 q 881 776 940 663 q 711 950 821 889 q 449 1010 601 1010 l 88 1010 l 88 0 l 446 0 m 301 183 l 301 827 l 437 827 q 597 794 532 827 q 694 689 661 760 q 727 506 727 618 q 694 322 727 393 q 597 217 661 251 q 437 183 532 183 l 301 183 m 1090 0 l 1727 0 l 1727 168 l 1366 168 l 1366 173 l 1714 621 l 1714 758 l 1103 758 l 1103 590 l 1461 590 l 1461 584 l 1090 125 l 1090 0 "},"ǅ":{"ha":1804,"x_min":88,"x_max":1727,"o":"m 446 0 q 710 61 600 0 q 881 235 821 121 q 940 506 940 348 q 881 776 940 663 q 711 950 821 889 q 449 1010 601 1010 l 88 1010 l 88 0 l 446 0 m 301 183 l 301 827 l 437 827 q 597 794 532 827 q 694 689 661 760 q 727 506 727 618 q 694 322 727 393 q 597 217 661 251 q 437 183 532 183 l 301 183 m 1090 0 l 1727 0 l 1727 168 l 1366 168 l 1366 173 l 1714 621 l 1714 758 l 1103 758 l 1103 590 l 1461 590 l 1461 584 l 1090 125 l 1090 0 m 1307 1072 l 1128 1072 l 1128 1065 l 1328 848 l 1485 848 l 1684 1065 l 1684 1072 l 1505 1072 l 1406 952 l 1307 1072 "},"E":{"ha":851,"x_min":88,"x_max":770,"o":"m 88 0 l 770 0 l 770 176 l 301 176 l 301 417 l 733 417 l 733 593 l 301 593 l 301 834 l 768 834 l 768 1010 l 88 1010 l 88 0 "},"È":{"ha":851,"x_min":88,"x_max":770,"o":"m 88 0 l 770 0 l 770 176 l 301 176 l 301 417 l 733 417 l 733 593 l 301 593 l 301 834 l 768 834 l 768 1010 l 88 1010 l 88 0 m 357 1108 l 506 1108 l 400 1332 l 207 1332 l 357 1108 "},"É":{"ha":851,"x_min":88,"x_max":770,"o":"m 88 0 l 770 0 l 770 176 l 301 176 l 301 417 l 733 417 l 733 593 l 301 593 l 301 834 l 768 834 l 768 1010 l 88 1010 l 88 0 m 354 1108 l 503 1108 l 653 1332 l 459 1332 l 354 1108 "},"Ê":{"ha":851,"x_min":88,"x_max":770,"o":"m 88 0 l 770 0 l 770 176 l 301 176 l 301 417 l 733 417 l 733 593 l 301 593 l 301 834 l 768 834 l 768 1010 l 88 1010 l 88 0 m 529 1101 l 708 1101 l 708 1108 l 508 1325 l 351 1325 l 151 1108 l 151 1101 l 330 1101 l 430 1221 l 529 1101 "},"Ë":{"ha":851,"x_min":88,"x_max":770,"o":"m 88 0 l 770 0 l 770 176 l 301 176 l 301 417 l 733 417 l 733 593 l 301 593 l 301 834 l 768 834 l 768 1010 l 88 1010 l 88 0 m 279 1114 q 352 1144 322 1114 q 382 1214 382 1173 q 352 1285 382 1256 q 279 1314 322 1314 q 206 1285 237 1314 q 176 1214 176 1256 q 206 1144 176 1173 q 279 1114 237 1114 m 581 1114 q 654 1144 624 1114 q 684 1214 684 1173 q 654 1285 684 1256 q 581 1314 624 1314 q 508 1285 539 1314 q 477 1214 477 1256 q 508 1144 477 1173 q 581 1114 539 1114 "},"Ē":{"ha":851,"x_min":88,"x_max":770,"o":"m 88 0 l 770 0 l 770 176 l 301 176 l 301 417 l 733 417 l 733 593 l 301 593 l 301 834 l 768 834 l 768 1010 l 88 1010 l 88 0 m 670 1263 l 189 1263 l 189 1149 l 670 1149 l 670 1263 "},"Ĕ":{"ha":851,"x_min":88,"x_max":770,"o":"m 88 0 l 770 0 l 770 176 l 301 176 l 301 417 l 733 417 l 733 593 l 301 593 l 301 834 l 768 834 l 768 1010 l 88 1010 l 88 0 m 527 1274 q 505 1213 527 1239 q 430 1186 482 1186 q 353 1213 376 1186 q 331 1274 331 1240 l 186 1274 q 252 1130 186 1185 q 430 1075 317 1075 q 607 1130 542 1075 q 674 1274 673 1185 l 527 1274 "},"Ė":{"ha":851,"x_min":88,"x_max":770,"o":"m 88 0 l 770 0 l 770 176 l 301 176 l 301 417 l 733 417 l 733 593 l 301 593 l 301 834 l 768 834 l 768 1010 l 88 1010 l 88 0 m 430 1108 q 510 1139 477 1108 q 544 1214 544 1170 q 510 1289 544 1258 q 430 1320 477 1320 q 350 1289 383 1320 q 316 1214 316 1258 q 350 1139 316 1170 q 430 1108 383 1108 "},"Ę":{"ha":851,"x_min":88,"x_max":787,"o":"m 88 0 l 770 0 l 770 176 l 301 176 l 301 417 l 733 417 l 733 593 l 301 593 l 301 834 l 768 834 l 768 1010 l 88 1010 l 88 0 m 675 -283 q 741 -273 712 -283 q 787 -254 769 -264 l 765 -145 q 743 -153 756 -148 q 714 -157 730 -157 q 678 -144 690 -157 q 666 -108 665 -131 q 695 -47 665 -72 q 771 0 725 -22 l 615 57 q 545 3 571 37 q 511 -72 519 -31 q 509 -153 502 -112 q 565 -249 521 -216 q 675 -283 609 -283 "},"Ě":{"ha":851,"x_min":88,"x_max":770,"o":"m 88 0 l 770 0 l 770 176 l 301 176 l 301 417 l 733 417 l 733 593 l 301 593 l 301 834 l 768 834 l 768 1010 l 88 1010 l 88 0 m 330 1325 l 151 1325 l 151 1318 l 351 1101 l 508 1101 l 708 1318 l 708 1325 l 529 1325 l 430 1204 l 330 1325 "},"Ȅ":{"ha":851,"x_min":86,"x_max":770,"o":"m 88 0 l 770 0 l 770 176 l 301 176 l 301 417 l 733 417 l 733 593 l 301 593 l 301 834 l 768 834 l 768 1010 l 88 1010 l 88 0 m 240 1108 l 389 1108 l 284 1332 l 86 1332 l 240 1108 m 484 1108 l 629 1108 l 570 1332 l 378 1332 l 484 1108 "},"Ȇ":{"ha":851,"x_min":88,"x_max":770,"o":"m 88 0 l 770 0 l 770 176 l 301 176 l 301 417 l 733 417 l 733 593 l 301 593 l 301 834 l 768 834 l 768 1010 l 88 1010 l 88 0 m 184 1132 l 331 1132 q 353 1193 330 1166 q 429 1220 375 1220 q 504 1193 481 1220 q 527 1132 527 1166 l 673 1132 q 607 1279 673 1222 q 429 1337 541 1337 q 250 1279 316 1337 q 184 1132 184 1222 "},"Ȩ":{"ha":851,"x_min":88,"x_max":770,"o":"m 88 0 l 770 0 l 770 176 l 301 176 l 301 417 l 733 417 l 733 593 l 301 593 l 301 834 l 768 834 l 768 1010 l 88 1010 l 88 0 m 379 4 l 357 -96 q 432 -118 408 -103 q 455 -164 456 -134 q 418 -211 454 -196 q 321 -226 383 -226 l 323 -320 q 515 -276 447 -320 q 583 -159 584 -232 q 551 -77 583 -107 q 468 -39 518 -47 l 475 4 l 379 4 "},"Ḕ":{"ha":851,"x_min":88,"x_max":770,"o":"m 88 0 l 770 0 l 770 176 l 301 176 l 301 417 l 733 417 l 733 593 l 301 593 l 301 834 l 768 834 l 768 1010 l 88 1010 l 88 0 m 360 1323 l 518 1323 l 380 1497 l 190 1497 l 360 1323 m 670 1240 l 189 1240 l 189 1126 l 670 1126 l 670 1240 "},"Ḗ":{"ha":851,"x_min":88,"x_max":770,"o":"m 88 0 l 770 0 l 770 176 l 301 176 l 301 417 l 733 417 l 733 593 l 301 593 l 301 834 l 768 834 l 768 1010 l 88 1010 l 88 0 m 342 1323 l 500 1323 l 669 1497 l 479 1497 l 342 1323 m 670 1240 l 189 1240 l 189 1126 l 670 1126 l 670 1240 "},"Ḙ":{"ha":851,"x_min":88,"x_max":770,"o":"m 88 0 l 770 0 l 770 176 l 301 176 l 301 417 l 733 417 l 733 593 l 301 593 l 301 834 l 768 834 l 768 1010 l 88 1010 l 88 0 m 525 -287 l 704 -287 l 704 -280 l 504 -63 l 348 -63 l 147 -280 l 147 -287 l 327 -287 l 426 -167 l 525 -287 "},"Ḛ":{"ha":851,"x_min":88,"x_max":770,"o":"m 88 0 l 770 0 l 770 176 l 301 176 l 301 417 l 733 417 l 733 593 l 301 593 l 301 834 l 768 834 l 768 1010 l 88 1010 l 88 0 m 311 -271 q 327 -216 311 -236 q 368 -196 342 -196 q 408 -207 390 -196 q 444 -233 426 -218 q 488 -258 463 -247 q 550 -269 513 -270 q 663 -218 617 -269 q 710 -74 709 -168 l 595 -72 q 580 -127 595 -106 q 537 -147 565 -147 q 497 -136 515 -147 q 459 -111 479 -125 q 414 -85 439 -96 q 355 -74 389 -74 q 241 -125 288 -74 q 194 -269 194 -175 l 311 -271 "},"Ḝ":{"ha":851,"x_min":88,"x_max":770,"o":"m 88 0 l 770 0 l 770 176 l 301 176 l 301 417 l 733 417 l 733 593 l 301 593 l 301 834 l 768 834 l 768 1010 l 88 1010 l 88 0 m 379 4 l 357 -96 q 432 -118 408 -103 q 455 -164 456 -134 q 418 -211 454 -196 q 321 -226 383 -226 l 323 -320 q 515 -276 447 -320 q 583 -159 584 -232 q 551 -77 583 -107 q 468 -39 518 -47 l 475 4 l 379 4 m 527 1274 q 505 1213 527 1239 q 430 1186 482 1186 q 353 1213 376 1186 q 331 1274 331 1240 l 186 1274 q 252 1130 186 1185 q 430 1075 317 1075 q 607 1130 542 1075 q 674 1274 673 1185 l 527 1274 "},"Ẹ":{"ha":851,"x_min":88,"x_max":770,"o":"m 88 0 l 770 0 l 770 176 l 301 176 l 301 417 l 733 417 l 733 593 l 301 593 l 301 834 l 768 834 l 768 1010 l 88 1010 l 88 0 m 426 -284 q 506 -253 473 -284 q 540 -178 540 -221 q 506 -103 540 -134 q 426 -72 473 -72 q 346 -103 379 -72 q 312 -178 312 -134 q 346 -253 312 -221 q 426 -284 379 -284 "},"Ẻ":{"ha":851,"x_min":88,"x_max":770,"o":"m 88 0 l 770 0 l 770 176 l 301 176 l 301 417 l 733 417 l 733 593 l 301 593 l 301 834 l 768 834 l 768 1010 l 88 1010 l 88 0 m 507 1119 l 507 1162 q 580 1191 547 1168 q 612 1259 613 1214 q 544 1357 613 1322 q 343 1393 475 1393 l 338 1298 q 409 1288 380 1298 q 436 1252 437 1279 q 415 1221 437 1233 q 340 1207 393 1210 l 351 1119 l 507 1119 "},"Ẽ":{"ha":851,"x_min":88,"x_max":770,"o":"m 88 0 l 770 0 l 770 176 l 301 176 l 301 417 l 733 417 l 733 593 l 301 593 l 301 834 l 768 834 l 768 1010 l 88 1010 l 88 0 m 289 1103 q 304 1158 289 1138 q 345 1178 320 1178 q 385 1167 367 1178 q 422 1141 403 1156 q 465 1115 440 1126 q 527 1104 490 1104 q 640 1155 594 1105 q 688 1299 687 1206 l 573 1303 q 558 1248 573 1269 q 514 1226 543 1227 q 474 1237 493 1226 q 436 1263 456 1248 q 391 1289 416 1278 q 332 1300 366 1300 q 218 1249 265 1300 q 172 1105 172 1199 l 289 1103 "},"Ế":{"ha":851,"x_min":88,"x_max":911,"o":"m 88 0 l 770 0 l 770 176 l 301 176 l 301 417 l 733 417 l 733 593 l 301 593 l 301 834 l 768 834 l 768 1010 l 88 1010 l 88 0 m 173 1093 l 324 1093 l 430 1176 l 534 1093 l 685 1093 l 485 1246 l 372 1246 l 173 1093 m 633 1180 l 752 1180 l 911 1365 l 749 1365 l 633 1180 "},"Ề":{"ha":851,"x_min":-52,"x_max":770,"o":"m 88 0 l 770 0 l 770 176 l 301 176 l 301 417 l 733 417 l 733 593 l 301 593 l 301 834 l 768 834 l 768 1010 l 88 1010 l 88 0 m 485 1243 l 372 1243 l 174 1090 l 325 1090 l 430 1173 l 534 1090 l 686 1090 l 485 1243 m 109 1361 l -52 1361 l 108 1177 l 225 1177 l 109 1361 "},"Ể":{"ha":851,"x_min":88,"x_max":816,"o":"m 88 0 l 770 0 l 770 176 l 301 176 l 301 417 l 733 417 l 733 593 l 301 593 l 301 834 l 768 834 l 768 1010 l 88 1010 l 88 0 m 488 1241 l 367 1241 l 173 1088 l 318 1088 l 429 1174 l 538 1088 l 683 1088 l 488 1241 m 727 1174 l 727 1209 q 788 1234 761 1215 q 816 1291 816 1254 q 763 1373 816 1344 q 611 1403 711 1403 l 606 1323 q 666 1315 642 1323 q 690 1285 690 1308 q 671 1259 690 1268 q 609 1248 652 1250 l 618 1174 l 727 1174 "},"Ễ":{"ha":851,"x_min":88,"x_max":770,"o":"m 88 0 l 770 0 l 770 176 l 301 176 l 301 417 l 733 417 l 733 593 l 301 593 l 301 834 l 768 834 l 768 1010 l 88 1010 l 88 0 m 486 1237 l 373 1237 l 173 1086 l 320 1086 l 429 1168 l 540 1086 l 685 1086 l 486 1237 m 537 1405 q 527 1369 537 1386 q 502 1352 517 1352 q 466 1359 484 1352 q 429 1373 448 1365 q 392 1388 410 1381 q 354 1394 373 1394 q 286 1361 311 1394 q 261 1289 261 1328 l 332 1270 q 342 1302 332 1288 q 368 1316 352 1316 q 404 1310 387 1316 q 437 1295 420 1304 q 474 1279 454 1286 q 516 1273 493 1273 q 584 1306 559 1273 q 610 1380 610 1340 l 537 1405 "},"Ệ":{"ha":851,"x_min":88,"x_max":770,"o":"m 88 0 l 770 0 l 770 176 l 301 176 l 301 417 l 733 417 l 733 593 l 301 593 l 301 834 l 768 834 l 768 1010 l 88 1010 l 88 0 m 529 1101 l 708 1101 l 708 1108 l 508 1325 l 351 1325 l 151 1108 l 151 1101 l 330 1101 l 430 1221 l 529 1101 m 426 -284 q 506 -253 473 -284 q 540 -178 540 -221 q 506 -103 540 -134 q 426 -72 473 -72 q 346 -103 379 -72 q 312 -178 312 -134 q 346 -253 312 -221 q 426 -284 379 -284 "},"Ɇ":{"ha":851,"x_min":88,"x_max":770,"o":"m 696 1138 l 584 1138 l 219 -128 l 331 -128 l 696 1138 m 88 0 l 770 0 l 770 176 l 301 176 l 301 417 l 733 417 l 733 593 l 301 593 l 301 834 l 768 834 l 768 1010 l 88 1010 l 88 0 "},"Ǝ":{"ha":851,"x_min":80,"x_max":763,"o":"m 763 1010 l 80 1010 l 80 834 l 549 834 l 549 593 l 117 593 l 117 417 l 549 417 l 549 176 l 82 176 l 82 0 l 763 0 l 763 1010 "},"Ε":{"ha":851,"x_min":88,"x_max":770,"o":"m 88 0 l 770 0 l 770 176 l 301 176 l 301 417 l 733 417 l 733 593 l 301 593 l 301 834 l 768 834 l 768 1010 l 88 1010 l 88 0 "},"Έ":{"ha":1090,"x_min":66,"x_max":1010,"o":"m 327 0 l 1010 0 l 1010 176 l 541 176 l 541 417 l 973 417 l 973 593 l 541 593 l 541 834 l 1008 834 l 1008 1010 l 327 1010 l 327 0 m 66 848 l 189 848 l 306 1083 l 118 1083 l 66 848 "},"Ἐ":{"ha":1053,"x_min":38,"x_max":972,"o":"m 290 0 l 972 0 l 972 176 l 503 176 l 503 417 l 935 417 l 935 593 l 503 593 l 503 834 l 970 834 l 970 1010 l 290 1010 l 290 0 m 212 1010 l 93 1010 l 93 949 q 88 900 93 923 q 71 860 83 878 q 38 827 59 841 l 97 765 q 156 807 130 781 q 197 868 182 833 q 212 945 212 903 l 212 1010 "},"Ἑ":{"ha":1054,"x_min":64,"x_max":974,"o":"m 291 0 l 974 0 l 974 176 l 505 176 l 505 417 l 937 417 l 937 593 l 505 593 l 505 834 l 972 834 l 972 1010 l 291 1010 l 291 0 m 64 945 q 97 836 64 882 q 179 765 130 789 l 237 827 q 204 861 216 842 q 188 903 193 881 q 183 949 184 926 l 183 1010 l 64 1010 l 64 945 "},"Ἒ":{"ha":1320,"x_min":62,"x_max":1240,"o":"m 557 0 l 1239 0 l 1239 176 l 770 176 l 770 417 l 1202 417 l 1202 593 l 770 593 l 770 834 l 1237 834 l 1237 1010 l 557 1010 l 557 0 m 504 793 l 424 1012 l 278 1012 l 278 998 l 438 783 l 504 783 l 504 793 m 246 1012 l 119 1012 l 119 960 q 105 876 119 912 q 63 808 90 839 l 117 767 q 187 818 158 789 q 231 882 216 847 q 246 956 246 917 l 246 1012 "},"Ἓ":{"ha":1279,"x_min":60,"x_max":1199,"o":"m 516 0 l 1199 0 l 1199 176 l 730 176 l 730 417 l 1162 417 l 1162 593 l 730 593 l 730 834 l 1197 834 l 1197 1010 l 516 1010 l 516 0 m 462 796 l 385 1010 l 236 1010 l 236 996 l 397 780 l 462 780 l 462 796 m 60 945 q 93 836 60 882 q 177 765 126 789 l 235 827 q 191 882 202 849 q 181 949 181 914 l 181 1010 l 60 1010 l 60 945 "},"Ἔ":{"ha":1293,"x_min":65,"x_max":1213,"o":"m 530 0 l 1213 0 l 1213 176 l 744 176 l 744 417 l 1176 417 l 1176 593 l 744 593 l 744 834 l 1211 834 l 1211 1010 l 530 1010 l 530 0 m 260 780 l 326 780 l 487 996 l 487 1010 l 340 1010 l 260 796 l 260 780 m 240 1010 l 119 1010 l 119 949 q 108 882 119 914 q 65 827 98 849 l 123 765 q 183 808 157 781 q 225 869 210 834 q 240 945 240 904 l 240 1010 "},"Ἕ":{"ha":1312,"x_min":64,"x_max":1232,"o":"m 549 0 l 1232 0 l 1232 176 l 763 176 l 763 417 l 1195 417 l 1195 593 l 763 593 l 763 834 l 1230 834 l 1230 1010 l 549 1010 l 549 0 m 275 780 l 338 780 l 500 996 l 500 1010 l 351 1010 l 275 796 l 275 780 m 178 765 l 236 827 q 195 879 206 848 q 183 949 183 909 l 183 1010 l 64 1010 l 64 945 q 97 834 64 880 q 178 765 131 788 "},"Ὲ":{"ha":1109,"x_min":62,"x_max":1029,"o":"m 346 0 l 1028 0 l 1028 176 l 559 176 l 559 417 l 991 417 l 991 593 l 559 593 l 559 834 l 1026 834 l 1026 1010 l 346 1010 l 346 0 m 223 779 l 286 779 l 286 798 l 209 1010 l 62 1010 l 62 996 l 223 779 "},"Έ":{"ha":1093,"x_min":73,"x_max":1013,"o":"m 330 0 l 1013 0 l 1013 176 l 544 176 l 544 417 l 976 417 l 976 593 l 544 593 l 544 834 l 1011 834 l 1011 1010 l 330 1010 l 330 0 m 73 852 l 178 852 l 338 1069 l 338 1083 l 150 1083 l 73 871 l 73 852 "},"Е":{"ha":851,"x_min":88,"x_max":770,"o":"m 88 0 l 770 0 l 770 176 l 301 176 l 301 417 l 733 417 l 733 593 l 301 593 l 301 834 l 768 834 l 768 1010 l 88 1010 l 88 0 "},"Ѐ":{"ha":851,"x_min":88,"x_max":770,"o":"m 88 0 l 770 0 l 770 176 l 301 176 l 301 417 l 733 417 l 733 593 l 301 593 l 301 834 l 768 834 l 768 1010 l 88 1010 l 88 0 m 357 1108 l 506 1108 l 400 1332 l 207 1332 l 357 1108 "},"Ё":{"ha":851,"x_min":88,"x_max":770,"o":"m 88 0 l 770 0 l 770 176 l 301 176 l 301 417 l 733 417 l 733 593 l 301 593 l 301 834 l 768 834 l 768 1010 l 88 1010 l 88 0 m 279 1114 q 352 1144 322 1114 q 382 1214 382 1173 q 352 1285 382 1256 q 279 1314 322 1314 q 206 1285 237 1314 q 176 1214 176 1256 q 206 1144 176 1173 q 279 1114 237 1114 m 581 1114 q 654 1144 624 1114 q 684 1214 684 1173 q 654 1285 684 1256 q 581 1314 624 1314 q 508 1285 539 1314 q 477 1214 477 1256 q 508 1144 477 1173 q 581 1114 539 1114 "},"Ӗ":{"ha":851,"x_min":88,"x_max":770,"o":"m 88 0 l 770 0 l 770 176 l 301 176 l 301 417 l 733 417 l 733 593 l 301 593 l 301 834 l 768 834 l 768 1010 l 88 1010 l 88 0 m 527 1274 q 505 1213 527 1239 q 430 1186 482 1186 q 353 1213 376 1186 q 331 1274 331 1240 l 186 1274 q 252 1130 186 1185 q 430 1075 317 1075 q 607 1130 542 1075 q 674 1274 673 1185 l 527 1274 "},"F":{"ha":812,"x_min":88,"x_max":757,"o":"m 88 0 l 301 0 l 301 417 l 712 417 l 712 593 l 301 593 l 301 834 l 757 834 l 757 1010 l 88 1010 l 88 0 "},"Ƒ":{"ha":843,"x_min":-29,"x_max":787,"o":"m 119 0 l 119 -46 q 87 -105 119 -90 q 14 -120 56 -120 q -7 -120 5 -120 q -29 -118 -19 -120 l -29 -279 q 18 -284 -6 -283 q 58 -284 43 -284 q 162 -274 113 -284 q 250 -239 212 -264 q 310 -166 288 -213 q 332 -46 332 -120 l 332 0 l 119 0 m 119 0 l 332 0 l 332 417 l 743 417 l 743 593 l 332 593 l 332 834 l 787 834 l 787 1010 l 119 1010 l 119 0 "},"Ḟ":{"ha":812,"x_min":88,"x_max":757,"o":"m 88 0 l 301 0 l 301 417 l 712 417 l 712 593 l 301 593 l 301 834 l 757 834 l 757 1010 l 88 1010 l 88 0 m 429 1108 q 509 1139 475 1108 q 542 1214 542 1170 q 509 1289 542 1258 q 428 1320 475 1320 q 348 1289 382 1320 q 315 1214 315 1258 q 348 1139 315 1170 q 429 1108 382 1108 "},"Ⅎ":{"ha":812,"x_min":56,"x_max":725,"o":"m 725 1010 l 511 1010 l 511 593 l 100 593 l 100 417 l 511 417 l 511 176 l 56 176 l 56 0 l 725 0 l 725 1010 "},"G":{"ha":1056,"x_min":70,"x_max":984,"o":"m 758 684 l 975 684 q 928 821 964 759 q 834 929 891 883 q 702 999 776 974 q 543 1024 628 1024 q 357 989 442 1024 q 206 887 271 954 q 106 723 142 820 q 70 504 70 627 q 130 228 70 344 q 297 49 190 112 q 547 -14 405 -14 q 773 38 674 -14 q 928 185 872 89 q 984 413 984 280 l 984 541 l 561 541 l 561 380 l 822 380 l 778 386 q 751 274 778 322 q 672 201 724 227 q 548 175 620 175 q 409 214 468 175 q 319 327 351 253 q 287 506 287 400 q 319 685 287 612 q 410 797 352 758 q 546 835 469 835 q 622 825 587 835 q 683 795 656 814 q 728 747 710 775 q 758 684 747 720 "},"Ǥ":{"ha":1056,"x_min":70,"x_max":1031,"o":"m 1031 327 l 561 327 l 561 251 l 1031 251 l 1031 327 m 758 684 l 975 684 q 928 821 964 759 q 834 929 891 883 q 702 999 776 974 q 543 1024 628 1024 q 357 989 442 1024 q 206 887 271 954 q 106 723 142 820 q 70 504 70 627 q 130 228 70 344 q 297 49 190 112 q 547 -14 405 -14 q 773 38 674 -14 q 928 185 872 89 q 984 413 984 280 l 984 541 l 561 541 l 561 380 l 822 380 l 778 386 q 751 274 778 322 q 672 201 724 227 q 548 175 620 175 q 409 214 468 175 q 319 327 351 253 q 287 506 287 400 q 319 685 287 612 q 410 797 352 758 q 546 835 469 835 q 622 825 587 835 q 683 795 656 814 q 728 747 710 775 q 758 684 747 720 "},"Ɠ":{"ha":1159,"x_min":70,"x_max":1163,"o":"m 974 684 l 974 837 q 992 900 974 879 q 1040 929 1010 922 q 1104 937 1070 937 q 1134 935 1119 937 q 1163 932 1149 933 l 1163 1099 q 1113 1108 1137 1105 q 1064 1111 1089 1111 q 947 1093 1002 1111 q 849 1040 892 1075 q 782 955 807 1006 q 757 837 758 904 l 756 684 l 974 684 m 758 684 l 975 684 q 928 821 964 759 q 834 929 891 883 q 702 999 776 974 q 543 1024 628 1024 q 357 989 442 1024 q 206 887 271 954 q 106 723 142 820 q 70 504 70 627 q 130 228 70 344 q 297 49 190 112 q 547 -14 405 -14 q 773 38 674 -14 q 928 185 872 89 q 984 413 984 280 l 984 541 l 561 541 l 561 380 l 822 380 l 778 386 q 751 274 778 322 q 672 201 724 227 q 548 175 620 175 q 409 214 468 175 q 319 327 351 253 q 287 506 287 400 q 319 685 287 612 q 410 797 352 758 q 546 835 469 835 q 622 825 587 835 q 683 795 656 814 q 728 747 710 775 q 758 684 747 720 "},"Ĝ":{"ha":1056,"x_min":70,"x_max":984,"o":"m 758 684 l 975 684 q 928 821 964 759 q 834 929 891 883 q 702 999 776 974 q 543 1024 628 1024 q 357 989 442 1024 q 206 887 271 954 q 106 723 142 820 q 70 504 70 627 q 130 228 70 344 q 297 49 190 112 q 547 -14 405 -14 q 773 38 674 -14 q 928 185 872 89 q 984 413 984 280 l 984 541 l 561 541 l 561 380 l 822 380 l 778 386 q 751 274 778 322 q 672 201 724 227 q 548 175 620 175 q 409 214 468 175 q 319 327 351 253 q 287 506 287 400 q 319 685 287 612 q 410 797 352 758 q 546 835 469 835 q 622 825 587 835 q 683 795 656 814 q 728 747 710 775 q 758 684 747 720 m 637 1101 l 816 1101 l 816 1108 l 616 1325 l 460 1325 l 260 1108 l 260 1101 l 439 1101 l 538 1221 l 637 1101 "},"Ğ":{"ha":1056,"x_min":70,"x_max":984,"o":"m 758 684 l 975 684 q 928 821 964 759 q 834 929 891 883 q 702 999 776 974 q 543 1024 628 1024 q 357 989 442 1024 q 206 887 271 954 q 106 723 142 820 q 70 504 70 627 q 130 228 70 344 q 297 49 190 112 q 547 -14 405 -14 q 773 38 674 -14 q 928 185 872 89 q 984 413 984 280 l 984 541 l 561 541 l 561 380 l 822 380 l 778 386 q 751 274 778 322 q 672 201 724 227 q 548 175 620 175 q 409 214 468 175 q 319 327 351 253 q 287 506 287 400 q 319 685 287 612 q 410 797 352 758 q 546 835 469 835 q 622 825 587 835 q 683 795 656 814 q 728 747 710 775 q 758 684 747 720 m 636 1274 q 613 1213 636 1239 q 538 1186 590 1186 q 462 1213 484 1186 q 440 1274 439 1240 l 294 1274 q 360 1130 294 1185 q 538 1075 426 1075 q 716 1130 650 1075 q 782 1274 782 1185 l 636 1274 "},"Ġ":{"ha":1056,"x_min":70,"x_max":984,"o":"m 758 684 l 975 684 q 928 821 964 759 q 834 929 891 883 q 702 999 776 974 q 543 1024 628 1024 q 357 989 442 1024 q 206 887 271 954 q 106 723 142 820 q 70 504 70 627 q 130 228 70 344 q 297 49 190 112 q 547 -14 405 -14 q 773 38 674 -14 q 928 185 872 89 q 984 413 984 280 l 984 541 l 561 541 l 561 380 l 822 380 l 778 386 q 751 274 778 322 q 672 201 724 227 q 548 175 620 175 q 409 214 468 175 q 319 327 351 253 q 287 506 287 400 q 319 685 287 612 q 410 797 352 758 q 546 835 469 835 q 622 825 587 835 q 683 795 656 814 q 728 747 710 775 q 758 684 747 720 m 538 1108 q 618 1139 585 1108 q 652 1214 652 1170 q 618 1289 652 1258 q 538 1320 585 1320 q 458 1289 491 1320 q 424 1214 424 1258 q 458 1139 424 1170 q 538 1108 491 1108 "},"Ģ":{"ha":1056,"x_min":70,"x_max":984,"o":"m 758 684 l 975 684 q 928 821 964 759 q 834 929 891 883 q 702 999 776 974 q 543 1024 628 1024 q 357 989 442 1024 q 206 887 271 954 q 106 723 142 820 q 70 504 70 627 q 130 228 70 344 q 297 49 190 112 q 547 -14 405 -14 q 773 38 674 -14 q 928 185 872 89 q 984 413 984 280 l 984 541 l 561 541 l 561 380 l 822 380 l 778 386 q 751 274 778 322 q 672 201 724 227 q 548 175 620 175 q 409 214 468 175 q 319 327 351 253 q 287 506 287 400 q 319 685 287 612 q 410 797 352 758 q 546 835 469 835 q 622 825 587 835 q 683 795 656 814 q 728 747 710 775 q 758 684 747 720 m 379 -321 l 526 -321 l 634 -77 l 440 -77 l 379 -321 "},"Ǧ":{"ha":1056,"x_min":70,"x_max":984,"o":"m 758 684 l 975 684 q 928 821 964 759 q 834 929 891 883 q 702 999 776 974 q 543 1024 628 1024 q 357 989 442 1024 q 206 887 271 954 q 106 723 142 820 q 70 504 70 627 q 130 228 70 344 q 297 49 190 112 q 547 -14 405 -14 q 773 38 674 -14 q 928 185 872 89 q 984 413 984 280 l 984 541 l 561 541 l 561 380 l 822 380 l 778 386 q 751 274 778 322 q 672 201 724 227 q 548 175 620 175 q 409 214 468 175 q 319 327 351 253 q 287 506 287 400 q 319 685 287 612 q 410 797 352 758 q 546 835 469 835 q 622 825 587 835 q 683 795 656 814 q 728 747 710 775 q 758 684 747 720 m 439 1325 l 260 1325 l 260 1318 l 460 1101 l 616 1101 l 816 1318 l 816 1325 l 637 1325 l 538 1204 l 439 1325 "},"Ǵ":{"ha":1056,"x_min":70,"x_max":984,"o":"m 758 684 l 975 684 q 928 821 964 759 q 834 929 891 883 q 702 999 776 974 q 543 1024 628 1024 q 357 989 442 1024 q 206 887 271 954 q 106 723 142 820 q 70 504 70 627 q 130 228 70 344 q 297 49 190 112 q 547 -14 405 -14 q 773 38 674 -14 q 928 185 872 89 q 984 413 984 280 l 984 541 l 561 541 l 561 380 l 822 380 l 778 386 q 751 274 778 322 q 672 201 724 227 q 548 175 620 175 q 409 214 468 175 q 319 327 351 253 q 287 506 287 400 q 319 685 287 612 q 410 797 352 758 q 546 835 469 835 q 622 825 587 835 q 683 795 656 814 q 728 747 710 775 q 758 684 747 720 m 462 1108 l 611 1108 l 761 1332 l 567 1332 l 462 1108 "},"Ḡ":{"ha":1056,"x_min":70,"x_max":984,"o":"m 758 684 l 975 684 q 928 821 964 759 q 834 929 891 883 q 702 999 776 974 q 543 1024 628 1024 q 357 989 442 1024 q 206 887 271 954 q 106 723 142 820 q 70 504 70 627 q 130 228 70 344 q 297 49 190 112 q 547 -14 405 -14 q 773 38 674 -14 q 928 185 872 89 q 984 413 984 280 l 984 541 l 561 541 l 561 380 l 822 380 l 778 386 q 751 274 778 322 q 672 201 724 227 q 548 175 620 175 q 409 214 468 175 q 319 327 351 253 q 287 506 287 400 q 319 685 287 612 q 410 797 352 758 q 546 835 469 835 q 622 825 587 835 q 683 795 656 814 q 728 747 710 775 q 758 684 747 720 m 778 1263 l 297 1263 l 297 1149 l 778 1149 l 778 1263 "},"":{"ha":1065,"x_min":70,"x_max":993,"o":"m 547 -14 q 709 20 640 -14 q 829 115 778 54 l 835 115 l 847 0 l 993 0 l 993 541 l 561 541 l 561 380 l 823 380 l 782 388 q 754 277 782 325 q 674 202 727 229 q 548 175 622 175 q 410 214 469 175 q 319 327 351 253 q 287 506 287 400 q 320 685 287 612 q 414 797 354 758 q 550 835 473 835 q 627 825 592 835 q 691 795 662 814 q 739 747 719 775 q 768 684 758 720 l 984 684 q 937 821 974 759 q 841 929 900 884 q 708 999 782 974 q 547 1024 633 1024 q 361 989 447 1024 q 208 887 274 954 q 107 723 143 820 q 70 504 70 627 q 130 228 70 344 q 298 49 190 112 q 547 -14 405 -14 "},"":{"ha":1066,"x_min":70,"x_max":1041,"o":"m 1041 327 l 561 327 l 561 251 l 1041 251 l 1041 327 m 547 -14 q 709 20 640 -14 q 829 115 778 54 l 835 115 l 847 0 l 993 0 l 993 541 l 561 541 l 561 380 l 823 380 l 782 388 q 754 277 782 325 q 674 202 727 229 q 548 175 622 175 q 410 214 469 175 q 319 327 351 253 q 287 506 287 400 q 320 685 287 612 q 414 797 354 758 q 550 835 473 835 q 627 825 592 835 q 691 795 662 814 q 739 747 719 775 q 768 684 758 720 l 984 684 q 937 821 974 759 q 841 929 900 884 q 708 999 782 974 q 547 1024 633 1024 q 361 989 447 1024 q 208 887 274 954 q 107 723 143 820 q 70 504 70 627 q 130 228 70 344 q 298 49 190 112 q 547 -14 405 -14 "},"":{"ha":1159,"x_min":70,"x_max":1174,"o":"m 984 684 l 984 837 q 1003 900 984 879 q 1051 929 1021 922 q 1115 937 1081 937 q 1145 935 1130 937 q 1174 932 1160 933 l 1174 1099 q 1124 1108 1148 1105 q 1075 1111 1100 1111 q 958 1093 1013 1111 q 860 1040 903 1075 q 793 955 817 1006 q 768 837 769 904 l 766 684 l 984 684 m 547 -14 q 709 20 640 -14 q 829 115 778 54 l 835 115 l 847 0 l 993 0 l 993 541 l 561 541 l 561 380 l 823 380 l 782 388 q 754 277 782 325 q 674 202 727 229 q 548 175 622 175 q 410 214 469 175 q 319 327 351 253 q 287 506 287 400 q 320 685 287 612 q 414 797 354 758 q 550 835 473 835 q 627 825 592 835 q 691 795 662 814 q 739 747 719 775 q 768 684 758 720 l 984 684 q 937 821 974 759 q 841 929 900 884 q 708 999 782 974 q 547 1024 633 1024 q 361 989 447 1024 q 208 887 274 954 q 107 723 143 820 q 70 504 70 627 q 130 228 70 344 q 298 49 190 112 q 547 -14 405 -14 "},"":{"ha":1065,"x_min":70,"x_max":993,"o":"m 547 -14 q 709 20 640 -14 q 829 115 778 54 l 835 115 l 847 0 l 993 0 l 993 541 l 561 541 l 561 380 l 823 380 l 782 388 q 754 277 782 325 q 674 202 727 229 q 548 175 622 175 q 410 214 469 175 q 319 327 351 253 q 287 506 287 400 q 320 685 287 612 q 414 797 354 758 q 550 835 473 835 q 627 825 592 835 q 691 795 662 814 q 739 747 719 775 q 768 684 758 720 l 984 684 q 937 821 974 759 q 841 929 900 884 q 708 999 782 974 q 547 1024 633 1024 q 361 989 447 1024 q 208 887 274 954 q 107 723 143 820 q 70 504 70 627 q 130 228 70 344 q 298 49 190 112 q 547 -14 405 -14 m 637 1101 l 816 1101 l 816 1108 l 616 1325 l 460 1325 l 260 1108 l 260 1101 l 439 1101 l 538 1221 l 637 1101 "},"":{"ha":1065,"x_min":70,"x_max":993,"o":"m 547 -14 q 709 20 640 -14 q 829 115 778 54 l 835 115 l 847 0 l 993 0 l 993 541 l 561 541 l 561 380 l 823 380 l 782 388 q 754 277 782 325 q 674 202 727 229 q 548 175 622 175 q 410 214 469 175 q 319 327 351 253 q 287 506 287 400 q 320 685 287 612 q 414 797 354 758 q 550 835 473 835 q 627 825 592 835 q 691 795 662 814 q 739 747 719 775 q 768 684 758 720 l 984 684 q 937 821 974 759 q 841 929 900 884 q 708 999 782 974 q 547 1024 633 1024 q 361 989 447 1024 q 208 887 274 954 q 107 723 143 820 q 70 504 70 627 q 130 228 70 344 q 298 49 190 112 q 547 -14 405 -14 m 636 1274 q 613 1213 636 1239 q 538 1186 590 1186 q 462 1213 484 1186 q 440 1274 439 1240 l 294 1274 q 360 1130 294 1185 q 538 1075 426 1075 q 716 1130 650 1075 q 782 1274 782 1185 l 636 1274 "},"":{"ha":1065,"x_min":70,"x_max":993,"o":"m 547 -14 q 709 20 640 -14 q 829 115 778 54 l 835 115 l 847 0 l 993 0 l 993 541 l 561 541 l 561 380 l 823 380 l 782 388 q 754 277 782 325 q 674 202 727 229 q 548 175 622 175 q 410 214 469 175 q 319 327 351 253 q 287 506 287 400 q 320 685 287 612 q 414 797 354 758 q 550 835 473 835 q 627 825 592 835 q 691 795 662 814 q 739 747 719 775 q 768 684 758 720 l 984 684 q 937 821 974 759 q 841 929 900 884 q 708 999 782 974 q 547 1024 633 1024 q 361 989 447 1024 q 208 887 274 954 q 107 723 143 820 q 70 504 70 627 q 130 228 70 344 q 298 49 190 112 q 547 -14 405 -14 m 538 1108 q 618 1139 585 1108 q 652 1214 652 1170 q 618 1289 652 1258 q 538 1320 585 1320 q 458 1289 491 1320 q 424 1214 424 1258 q 458 1139 424 1170 q 538 1108 491 1108 "},"":{"ha":1065,"x_min":70,"x_max":993,"o":"m 547 -14 q 709 20 640 -14 q 829 115 778 54 l 835 115 l 847 0 l 993 0 l 993 541 l 561 541 l 561 380 l 823 380 l 782 388 q 754 277 782 325 q 674 202 727 229 q 548 175 622 175 q 410 214 469 175 q 319 327 351 253 q 287 506 287 400 q 320 685 287 612 q 414 797 354 758 q 550 835 473 835 q 627 825 592 835 q 691 795 662 814 q 739 747 719 775 q 768 684 758 720 l 984 684 q 937 821 974 759 q 841 929 900 884 q 708 999 782 974 q 547 1024 633 1024 q 361 989 447 1024 q 208 887 274 954 q 107 723 143 820 q 70 504 70 627 q 130 228 70 344 q 298 49 190 112 q 547 -14 405 -14 m 379 -321 l 526 -321 l 634 -77 l 440 -77 l 379 -321 "},"":{"ha":1065,"x_min":70,"x_max":993,"o":"m 547 -14 q 709 20 640 -14 q 829 115 778 54 l 835 115 l 847 0 l 993 0 l 993 541 l 561 541 l 561 380 l 823 380 l 782 388 q 754 277 782 325 q 674 202 727 229 q 548 175 622 175 q 410 214 469 175 q 319 327 351 253 q 287 506 287 400 q 320 685 287 612 q 414 797 354 758 q 550 835 473 835 q 627 825 592 835 q 691 795 662 814 q 739 747 719 775 q 768 684 758 720 l 984 684 q 937 821 974 759 q 841 929 900 884 q 708 999 782 974 q 547 1024 633 1024 q 361 989 447 1024 q 208 887 274 954 q 107 723 143 820 q 70 504 70 627 q 130 228 70 344 q 298 49 190 112 q 547 -14 405 -14 m 439 1325 l 260 1325 l 260 1318 l 460 1101 l 616 1101 l 816 1318 l 816 1325 l 637 1325 l 538 1204 l 439 1325 "},"":{"ha":1065,"x_min":70,"x_max":993,"o":"m 547 -14 q 709 20 640 -14 q 829 115 778 54 l 835 115 l 847 0 l 993 0 l 993 541 l 561 541 l 561 380 l 823 380 l 782 388 q 754 277 782 325 q 674 202 727 229 q 548 175 622 175 q 410 214 469 175 q 319 327 351 253 q 287 506 287 400 q 320 685 287 612 q 414 797 354 758 q 550 835 473 835 q 627 825 592 835 q 691 795 662 814 q 739 747 719 775 q 768 684 758 720 l 984 684 q 937 821 974 759 q 841 929 900 884 q 708 999 782 974 q 547 1024 633 1024 q 361 989 447 1024 q 208 887 274 954 q 107 723 143 820 q 70 504 70 627 q 130 228 70 344 q 298 49 190 112 q 547 -14 405 -14 m 462 1108 l 611 1108 l 761 1332 l 567 1332 l 462 1108 "},"":{"ha":1065,"x_min":70,"x_max":993,"o":"m 547 -14 q 709 20 640 -14 q 829 115 778 54 l 835 115 l 847 0 l 993 0 l 993 541 l 561 541 l 561 380 l 823 380 l 782 388 q 754 277 782 325 q 674 202 727 229 q 548 175 622 175 q 410 214 469 175 q 319 327 351 253 q 287 506 287 400 q 320 685 287 612 q 414 797 354 758 q 550 835 473 835 q 627 825 592 835 q 691 795 662 814 q 739 747 719 775 q 768 684 758 720 l 984 684 q 937 821 974 759 q 841 929 900 884 q 708 999 782 974 q 547 1024 633 1024 q 361 989 447 1024 q 208 887 274 954 q 107 723 143 820 q 70 504 70 627 q 130 228 70 344 q 298 49 190 112 q 547 -14 405 -14 m 778 1263 l 297 1263 l 297 1149 l 778 1149 l 778 1263 "},"H":{"ha":1036,"x_min":88,"x_max":948,"o":"m 88 0 l 301 0 l 301 417 l 735 417 l 735 0 l 948 0 l 948 1010 l 735 1010 l 735 593 l 301 593 l 301 1010 l 88 1010 l 88 0 "},"Ḩ":{"ha":1036,"x_min":88,"x_max":948,"o":"m 88 0 l 301 0 l 301 417 l 735 417 l 735 0 l 948 0 l 948 1010 l 735 1010 l 735 593 l 301 593 l 301 1010 l 88 1010 l 88 0 m 148 3 l 126 -97 q 201 -119 177 -104 q 224 -165 225 -135 q 188 -212 223 -197 q 90 -227 152 -227 l 92 -321 q 285 -277 216 -321 q 353 -160 353 -233 q 320 -78 352 -108 q 237 -40 288 -48 l 245 3 l 148 3 "},"Ĥ":{"ha":1036,"x_min":88,"x_max":948,"o":"m 88 0 l 301 0 l 301 417 l 735 417 l 735 0 l 948 0 l 948 1010 l 735 1010 l 735 593 l 301 593 l 301 1010 l 88 1010 l 88 0 m 619 1102 l 799 1102 l 799 1109 l 598 1326 l 442 1326 l 242 1109 l 242 1102 l 421 1102 l 520 1222 l 619 1102 "},"Ȟ":{"ha":1036,"x_min":88,"x_max":948,"o":"m 88 0 l 301 0 l 301 417 l 735 417 l 735 0 l 948 0 l 948 1010 l 735 1010 l 735 593 l 301 593 l 301 1010 l 88 1010 l 88 0 m 421 1326 l 242 1326 l 242 1319 l 442 1102 l 598 1102 l 799 1319 l 799 1326 l 619 1326 l 520 1205 l 421 1326 "},"Ḣ":{"ha":1036,"x_min":88,"x_max":948,"o":"m 88 0 l 301 0 l 301 417 l 735 417 l 735 0 l 948 0 l 948 1010 l 735 1010 l 735 593 l 301 593 l 301 1010 l 88 1010 l 88 0 m 520 1109 q 600 1140 567 1109 q 634 1215 634 1171 q 600 1290 634 1259 q 520 1321 567 1321 q 440 1290 473 1321 q 406 1215 406 1259 q 440 1140 406 1171 q 520 1109 473 1109 "},"Ḥ":{"ha":1036,"x_min":88,"x_max":948,"o":"m 88 0 l 301 0 l 301 417 l 735 417 l 735 0 l 948 0 l 948 1010 l 735 1010 l 735 593 l 301 593 l 301 1010 l 88 1010 l 88 0 m 518 -284 q 598 -253 565 -284 q 631 -178 631 -221 q 598 -103 631 -134 q 518 -72 565 -72 q 437 -103 471 -72 q 404 -178 404 -134 q 437 -253 404 -221 q 518 -284 471 -284 "},"Ḧ":{"ha":1036,"x_min":88,"x_max":948,"o":"m 88 0 l 301 0 l 301 417 l 735 417 l 735 0 l 948 0 l 948 1010 l 735 1010 l 735 593 l 301 593 l 301 1010 l 88 1010 l 88 0 m 370 1115 q 443 1145 413 1115 q 472 1215 472 1174 q 443 1286 472 1257 q 370 1315 413 1315 q 297 1286 327 1315 q 266 1215 266 1257 q 297 1145 266 1174 q 370 1115 327 1115 m 672 1115 q 745 1145 715 1115 q 774 1215 774 1174 q 745 1286 774 1257 q 672 1315 715 1315 q 599 1286 629 1315 q 568 1215 568 1257 q 599 1145 568 1174 q 672 1115 629 1115 "},"Ḫ":{"ha":1036,"x_min":88,"x_max":948,"o":"m 88 0 l 301 0 l 301 417 l 735 417 l 735 0 l 948 0 l 948 1010 l 735 1010 l 735 593 l 301 593 l 301 1010 l 88 1010 l 88 0 m 618 -56 q 594 -117 617 -89 q 518 -145 571 -145 q 442 -118 465 -145 q 420 -56 420 -90 l 275 -56 q 341 -203 275 -146 q 518 -260 408 -260 q 648 -234 593 -260 q 732 -161 703 -208 q 763 -56 762 -115 l 618 -56 "},"Ħ":{"ha":1126,"x_min":49,"x_max":1076,"o":"m 1076 835 l 49 835 l 49 716 l 1076 716 l 1076 835 m 133 0 l 346 0 l 346 417 l 779 417 l 779 0 l 993 0 l 993 1010 l 779 1010 l 779 593 l 346 593 l 346 1010 l 133 1010 l 133 0 "},"Ӈ":{"ha":1036,"x_min":88,"x_max":948,"o":"m 735 0 l 735 -36 q 717 -93 735 -73 q 670 -120 698 -112 q 611 -127 642 -127 q 580 -126 598 -127 q 551 -123 562 -124 l 551 -293 q 581 -297 558 -295 q 628 -299 605 -299 q 771 -283 714 -299 q 864 -239 828 -266 q 917 -178 899 -211 q 942 -111 936 -145 q 948 -49 948 -77 l 948 0 l 735 0 m 88 0 l 301 0 l 301 417 l 735 417 l 735 0 l 948 0 l 948 1010 l 735 1010 l 735 593 l 301 593 l 301 1010 l 88 1010 l 88 0 "},"Ң":{"ha":1186,"x_min":88,"x_max":1147,"o":"m 88 0 l 301 0 l 301 417 l 735 417 l 735 0 l 948 0 l 948 1010 l 735 1010 l 735 593 l 301 593 l 301 1010 l 88 1010 l 88 0 m 1148 145 l 944 145 l 944 -244 l 1148 -244 l 1148 145 "},"Ӊ":{"ha":1154,"x_min":88,"x_max":1116,"o":"m 88 0 l 301 0 l 301 417 l 735 417 l 735 0 l 948 0 l 948 1010 l 735 1010 l 735 593 l 301 593 l 301 1010 l 88 1010 l 88 0 m 1116 115 l 948 115 l 948 -15 q 937 -105 948 -66 q 909 -175 926 -143 q 877 -240 893 -208 l 989 -289 q 1055 -208 1026 -254 q 1100 -109 1084 -162 q 1116 -3 1116 -57 l 1116 115 "},"Ҥ":{"ha":1398,"x_min":88,"x_max":1348,"o":"m 1348 1010 l 735 1010 l 735 593 l 301 593 l 301 1010 l 88 1010 l 88 0 l 301 0 l 301 417 l 735 417 l 735 0 l 948 0 l 948 834 l 1348 834 l 1348 1010 "},"Ƕ":{"ha":1560,"x_min":88,"x_max":1476,"o":"m 1106 -14 q 1302 28 1219 -14 q 1430 148 1385 69 q 1476 340 1476 227 l 1476 737 l 1262 737 l 1262 340 q 1221 210 1262 254 q 1106 166 1181 166 q 990 210 1032 166 q 948 340 948 254 l 948 1010 l 735 1010 l 735 593 l 301 593 l 301 1010 l 88 1010 l 88 0 l 301 0 l 301 417 l 735 417 l 735 340 q 781 149 735 228 q 909 28 826 70 q 1106 -14 993 -14 "},"Η":{"ha":1036,"x_min":88,"x_max":948,"o":"m 88 0 l 301 0 l 301 417 l 735 417 l 735 0 l 948 0 l 948 1010 l 735 1010 l 735 593 l 301 593 l 301 1010 l 88 1010 l 88 0 "},"Ή":{"ha":1290,"x_min":86,"x_max":1202,"o":"m 341 0 l 555 0 l 555 417 l 988 417 l 988 0 l 1201 0 l 1201 1010 l 988 1010 l 988 593 l 555 593 l 555 1010 l 341 1010 l 341 0 m 85 848 l 209 848 l 326 1083 l 138 1083 l 85 848 "},"Ἠ":{"ha":1272,"x_min":78,"x_max":1184,"o":"m 324 0 l 537 0 l 537 417 l 971 417 l 971 0 l 1184 0 l 1184 1010 l 971 1010 l 971 593 l 537 593 l 537 1010 l 324 1010 l 324 0 m 252 1010 l 133 1010 l 133 949 q 128 900 133 923 q 111 860 123 878 q 78 827 99 841 l 137 765 q 196 807 170 781 q 236 868 221 833 q 252 945 252 903 l 252 1010 "},"Ἡ":{"ha":1254,"x_min":83,"x_max":1166,"o":"m 306 0 l 519 0 l 519 417 l 953 417 l 953 0 l 1166 0 l 1166 1010 l 953 1010 l 953 593 l 519 593 l 519 1010 l 306 1010 l 306 0 m 83 945 q 117 836 84 882 q 198 765 149 789 l 256 827 q 224 861 235 842 q 208 903 213 881 q 203 949 204 926 l 203 1010 l 83 1010 l 83 945 "},"Ἢ":{"ha":1520,"x_min":82,"x_max":1431,"o":"m 571 0 l 785 0 l 785 417 l 1218 417 l 1218 0 l 1431 0 l 1431 1010 l 1218 1010 l 1218 593 l 785 593 l 785 1010 l 571 1010 l 571 0 m 523 793 l 444 1012 l 297 1012 l 297 998 l 458 783 l 523 783 l 523 793 m 266 1012 l 139 1012 l 139 960 q 125 876 139 912 q 82 808 110 839 l 137 767 q 206 818 178 789 q 251 882 235 847 q 266 956 266 917 l 266 1012 "},"Ἣ":{"ha":1479,"x_min":79,"x_max":1391,"o":"m 531 0 l 744 0 l 744 417 l 1178 417 l 1178 0 l 1391 0 l 1391 1010 l 1178 1010 l 1178 593 l 744 593 l 744 1010 l 531 1010 l 531 0 m 482 796 l 404 1010 l 256 1010 l 256 996 l 416 780 l 482 780 l 482 796 m 80 945 q 112 836 79 882 q 197 765 145 789 l 255 827 q 211 882 221 849 q 201 949 201 914 l 201 1010 l 80 1010 l 80 945 "},"Ἤ":{"ha":1492,"x_min":84,"x_max":1405,"o":"m 545 0 l 758 0 l 758 417 l 1192 417 l 1192 0 l 1405 0 l 1405 1010 l 1192 1010 l 1192 593 l 758 593 l 758 1010 l 545 1010 l 545 0 m 280 780 l 346 780 l 507 996 l 507 1010 l 360 1010 l 280 796 l 280 780 m 260 1010 l 139 1010 l 139 949 q 128 882 139 914 q 85 827 117 849 l 143 765 q 203 808 177 781 q 244 869 229 834 q 260 945 259 904 l 260 1010 "},"Ἥ":{"ha":1512,"x_min":83,"x_max":1423,"o":"m 563 0 l 777 0 l 777 417 l 1210 417 l 1210 0 l 1423 0 l 1423 1010 l 1210 1010 l 1210 593 l 777 593 l 777 1010 l 563 1010 l 563 0 m 294 780 l 358 780 l 519 996 l 519 1010 l 371 1010 l 294 796 l 294 780 m 198 765 l 256 827 q 215 879 226 848 q 203 949 203 909 l 203 1010 l 83 1010 l 83 945 q 117 834 83 880 q 198 765 150 788 "},"Ἦ":{"ha":1397,"x_min":80,"x_max":1309,"o":"m 449 0 l 662 0 l 662 417 l 1096 417 l 1096 0 l 1309 0 l 1309 1010 l 1096 1010 l 1096 593 l 662 593 l 662 1010 l 449 1010 l 449 0 m 403 1178 q 389 1137 403 1154 q 356 1120 376 1120 q 315 1127 335 1120 q 276 1143 295 1134 q 236 1159 256 1152 q 193 1165 216 1165 q 111 1127 143 1165 q 79 1041 79 1090 l 165 1017 q 178 1058 165 1041 q 211 1076 190 1076 q 252 1069 234 1076 q 288 1053 270 1062 q 326 1037 305 1044 q 374 1030 347 1030 q 456 1067 424 1030 q 488 1152 488 1103 l 403 1178 m 351 995 l 240 995 l 240 944 q 232 888 240 915 q 194 843 223 861 l 249 793 q 322 851 293 813 q 351 941 351 890 l 351 995 "},"Ἧ":{"ha":1416,"x_min":80,"x_max":1328,"o":"m 468 0 l 681 0 l 681 417 l 1115 417 l 1115 0 l 1328 0 l 1328 1010 l 1115 1010 l 1115 593 l 681 593 l 681 1010 l 468 1010 l 468 0 m 239 941 q 269 850 239 888 q 339 793 298 812 l 397 843 q 358 888 367 861 q 350 944 350 915 l 350 995 l 239 995 l 239 941 m 403 1178 q 389 1137 403 1154 q 356 1120 376 1120 q 315 1127 335 1120 q 276 1143 295 1134 q 236 1159 256 1152 q 193 1165 216 1165 q 111 1127 143 1165 q 79 1041 79 1090 l 165 1017 q 178 1058 165 1041 q 211 1076 190 1076 q 252 1069 234 1076 q 288 1053 270 1062 q 326 1037 305 1044 q 374 1030 347 1030 q 456 1067 424 1030 q 488 1152 488 1103 l 403 1178 "},"Ὴ":{"ha":1308,"x_min":82,"x_max":1220,"o":"m 360 0 l 574 0 l 574 417 l 1007 417 l 1007 0 l 1220 0 l 1220 1010 l 1007 1010 l 1007 593 l 574 593 l 574 1010 l 360 1010 l 360 0 m 243 779 l 306 779 l 306 798 l 229 1010 l 82 1010 l 82 996 l 243 779 "},"Ή":{"ha":1293,"x_min":93,"x_max":1204,"o":"m 344 0 l 558 0 l 558 417 l 991 417 l 991 0 l 1204 0 l 1204 1010 l 991 1010 l 991 593 l 558 593 l 558 1010 l 344 1010 l 344 0 m 93 852 l 197 852 l 358 1069 l 358 1083 l 170 1083 l 93 871 l 93 852 "},"Н":{"ha":1036,"x_min":88,"x_max":948,"o":"m 88 0 l 301 0 l 301 417 l 735 417 l 735 0 l 948 0 l 948 1010 l 735 1010 l 735 593 l 301 593 l 301 1010 l 88 1010 l 88 0 "},"ᾘ":{"ha":1240,"x_min":47,"x_max":1153,"o":"m 292 0 l 506 0 l 506 417 l 939 417 l 939 0 l 1152 0 l 1152 1010 l 939 1010 l 939 593 l 506 593 l 506 1010 l 292 1010 l 292 0 m 790 -335 q 826 -333 810 -335 q 854 -327 841 -330 l 854 -246 q 841 -247 849 -246 q 823 -248 834 -248 q 794 -238 802 -248 q 786 -207 786 -228 l 786 -65 l 661 -65 l 661 -208 q 699 -305 661 -275 q 790 -335 736 -335 m 220 1010 l 101 1010 l 101 949 q 96 900 101 923 q 79 860 91 878 q 47 827 68 841 l 105 765 q 164 807 138 781 q 205 868 190 833 q 220 945 220 903 l 220 1010 "},"ᾙ":{"ha":1254,"x_min":83,"x_max":1166,"o":"m 306 0 l 519 0 l 519 417 l 953 417 l 953 0 l 1166 0 l 1166 1010 l 953 1010 l 953 593 l 519 593 l 519 1010 l 306 1010 l 306 0 m 803 -335 q 839 -333 824 -335 q 868 -327 855 -330 l 868 -246 q 855 -247 863 -246 q 837 -248 847 -248 q 808 -238 816 -248 q 800 -207 800 -228 l 800 -65 l 675 -65 l 675 -208 q 712 -305 675 -275 q 803 -335 750 -335 m 83 945 q 117 836 84 882 q 198 765 149 789 l 256 827 q 224 861 235 842 q 208 903 213 881 q 203 949 204 926 l 203 1010 l 83 1010 l 83 945 "},"ᾚ":{"ha":1520,"x_min":82,"x_max":1431,"o":"m 571 0 l 785 0 l 785 417 l 1218 417 l 1218 0 l 1431 0 l 1431 1010 l 1218 1010 l 1218 593 l 785 593 l 785 1010 l 571 1010 l 571 0 m 1069 -335 q 1105 -333 1090 -335 q 1133 -327 1120 -330 l 1133 -246 q 1120 -247 1128 -246 q 1102 -248 1113 -248 q 1073 -238 1082 -248 q 1065 -207 1065 -228 l 1065 -65 l 940 -65 l 940 -208 q 978 -305 940 -275 q 1069 -335 1016 -335 m 523 793 l 444 1012 l 297 1012 l 297 998 l 458 783 l 523 783 l 523 793 m 266 1012 l 139 1012 l 139 960 q 125 876 139 912 q 82 808 110 839 l 137 767 q 206 818 178 789 q 251 882 235 847 q 266 956 266 917 l 266 1012 "},"ᾛ":{"ha":1479,"x_min":79,"x_max":1391,"o":"m 531 0 l 744 0 l 744 417 l 1178 417 l 1178 0 l 1391 0 l 1391 1010 l 1178 1010 l 1178 593 l 744 593 l 744 1010 l 531 1010 l 531 0 m 1028 -335 q 1064 -333 1049 -335 q 1093 -327 1080 -330 l 1093 -246 q 1080 -247 1088 -246 q 1062 -248 1072 -248 q 1033 -238 1041 -248 q 1025 -207 1025 -228 l 1025 -65 l 900 -65 l 900 -208 q 937 -305 900 -275 q 1028 -335 975 -335 m 482 796 l 404 1010 l 256 1010 l 256 996 l 416 780 l 482 780 l 482 796 m 80 945 q 112 836 79 882 q 197 765 145 789 l 255 827 q 211 882 221 849 q 201 949 201 914 l 201 1010 l 80 1010 l 80 945 "},"ᾜ":{"ha":1492,"x_min":84,"x_max":1405,"o":"m 545 0 l 758 0 l 758 417 l 1192 417 l 1192 0 l 1405 0 l 1405 1010 l 1192 1010 l 1192 593 l 758 593 l 758 1010 l 545 1010 l 545 0 m 1042 -335 q 1078 -333 1063 -335 q 1107 -327 1093 -330 l 1107 -246 q 1094 -247 1101 -246 q 1076 -248 1086 -248 q 1047 -238 1055 -248 q 1039 -207 1039 -228 l 1039 -65 l 913 -65 l 913 -208 q 951 -305 913 -275 q 1042 -335 989 -335 m 280 780 l 346 780 l 507 996 l 507 1010 l 360 1010 l 280 796 l 280 780 m 260 1010 l 139 1010 l 139 949 q 128 882 139 914 q 85 827 117 849 l 143 765 q 203 808 177 781 q 244 869 229 834 q 260 945 259 904 l 260 1010 "},"ᾝ":{"ha":1512,"x_min":83,"x_max":1423,"o":"m 563 0 l 777 0 l 777 417 l 1210 417 l 1210 0 l 1423 0 l 1423 1010 l 1210 1010 l 1210 593 l 777 593 l 777 1010 l 563 1010 l 563 0 m 1061 -335 q 1097 -333 1082 -335 q 1126 -327 1112 -330 l 1126 -246 q 1112 -247 1120 -246 q 1094 -248 1105 -248 q 1066 -238 1074 -248 q 1057 -207 1057 -228 l 1057 -65 l 932 -65 l 932 -208 q 970 -305 932 -275 q 1061 -335 1008 -335 m 294 780 l 358 780 l 519 996 l 519 1010 l 371 1010 l 294 796 l 294 780 m 198 765 l 256 827 q 215 879 226 848 q 203 949 203 909 l 203 1010 l 83 1010 l 83 945 q 117 834 83 880 q 198 765 150 788 "},"ᾞ":{"ha":1397,"x_min":80,"x_max":1309,"o":"m 449 0 l 662 0 l 662 417 l 1096 417 l 1096 0 l 1309 0 l 1309 1010 l 1096 1010 l 1096 593 l 662 593 l 662 1010 l 449 1010 l 449 0 m 946 -335 q 982 -333 967 -335 q 1011 -327 998 -330 l 1011 -246 q 998 -247 1006 -246 q 980 -248 990 -248 q 951 -238 959 -248 q 943 -207 943 -228 l 943 -65 l 818 -65 l 818 -208 q 855 -305 818 -275 q 946 -335 893 -335 m 403 1178 q 389 1137 403 1154 q 356 1120 376 1120 q 315 1127 335 1120 q 276 1143 295 1134 q 236 1159 256 1152 q 193 1165 216 1165 q 111 1127 143 1165 q 79 1041 79 1090 l 165 1017 q 178 1058 165 1041 q 211 1076 190 1076 q 252 1069 234 1076 q 288 1053 270 1062 q 326 1037 305 1044 q 374 1030 347 1030 q 456 1067 424 1030 q 488 1152 488 1103 l 403 1178 m 351 995 l 240 995 l 240 944 q 232 888 240 915 q 194 843 223 861 l 249 793 q 322 851 293 813 q 351 941 351 890 l 351 995 "},"ᾟ":{"ha":1416,"x_min":80,"x_max":1328,"o":"m 468 0 l 681 0 l 681 417 l 1115 417 l 1115 0 l 1328 0 l 1328 1010 l 1115 1010 l 1115 593 l 681 593 l 681 1010 l 468 1010 l 468 0 m 965 -335 q 1001 -333 986 -335 q 1030 -327 1017 -330 l 1030 -246 q 1017 -247 1024 -246 q 999 -248 1009 -248 q 970 -238 978 -248 q 962 -207 962 -228 l 962 -65 l 836 -65 l 836 -208 q 874 -305 836 -275 q 965 -335 912 -335 m 239 941 q 269 850 239 888 q 339 793 298 812 l 397 843 q 358 888 367 861 q 350 944 350 915 l 350 995 l 239 995 l 239 941 m 403 1178 q 389 1137 403 1154 q 356 1120 376 1120 q 315 1127 335 1120 q 276 1143 295 1134 q 236 1159 256 1152 q 193 1165 216 1165 q 111 1127 143 1165 q 79 1041 79 1090 l 165 1017 q 178 1058 165 1041 q 211 1076 190 1076 q 252 1069 234 1076 q 288 1053 270 1062 q 326 1037 305 1044 q 374 1030 347 1030 q 456 1067 424 1030 q 488 1152 488 1103 l 403 1178 "},"ῌ":{"ha":1036,"x_min":88,"x_max":948,"o":"m 88 0 l 301 0 l 301 417 l 735 417 l 735 0 l 948 0 l 948 1010 l 735 1010 l 735 593 l 301 593 l 301 1010 l 88 1010 l 88 0 m 585 -335 q 621 -333 606 -335 q 650 -327 637 -330 l 650 -246 q 637 -247 645 -246 q 619 -248 629 -248 q 590 -238 598 -248 q 582 -207 582 -228 l 582 -65 l 457 -65 l 457 -208 q 494 -305 457 -275 q 585 -335 532 -335 "},"I":{"ha":390,"x_min":88,"x_max":301,"o":"m 301 1010 l 88 1010 l 88 0 l 301 0 l 301 1010 "},"Ï":{"ha":390,"x_min":-59,"x_max":449,"o":"m 301 1010 l 88 1010 l 88 0 l 301 0 l 301 1010 m 45 1114 q 118 1144 88 1114 q 147 1214 147 1173 q 118 1285 147 1256 q 45 1314 88 1314 q -28 1285 2 1314 q -59 1214 -59 1256 q -28 1144 -59 1173 q 45 1114 2 1114 m 347 1114 q 419 1144 390 1114 q 449 1214 449 1173 q 419 1285 449 1256 q 347 1314 390 1314 q 274 1285 304 1314 q 243 1214 243 1256 q 274 1144 243 1173 q 347 1114 304 1114 "},"Ḯ":{"ha":390,"x_min":-48,"x_max":439,"o":"m 301 1010 l 88 1010 l 88 0 l 301 0 l 301 1010 m 114 1330 l 265 1330 l 439 1504 l 251 1504 l 114 1330 m 51 1080 q 121 1107 92 1080 q 149 1173 149 1135 q 121 1239 149 1212 q 51 1267 92 1267 q -18 1239 11 1267 q -48 1173 -48 1212 q -18 1107 -48 1135 q 51 1080 11 1080 m 341 1080 q 410 1107 382 1080 q 439 1173 439 1135 q 410 1239 439 1212 q 341 1267 382 1267 q 271 1239 300 1267 q 242 1173 242 1212 q 271 1107 242 1135 q 341 1080 300 1080 "},"Ɨ":{"ha":390,"x_min":-52,"x_max":439,"o":"m 301 1010 l 88 1010 l 88 0 l 301 0 l 301 1010 m -53 471 l 439 471 l 439 594 l -53 594 l -53 471 "},"Ḭ":{"ha":390,"x_min":-37,"x_max":478,"o":"m 301 1010 l 88 1010 l 88 0 l 301 0 l 301 1010 m 79 -271 q 95 -216 79 -236 q 136 -196 110 -196 q 176 -207 158 -196 q 213 -233 194 -218 q 256 -258 231 -247 q 318 -269 281 -270 q 431 -218 385 -269 q 478 -74 477 -168 l 363 -72 q 348 -127 363 -106 q 305 -147 333 -147 q 265 -136 284 -147 q 227 -111 247 -125 q 182 -85 207 -96 q 123 -74 157 -74 q 9 -125 56 -74 q -37 -269 -37 -175 l 79 -271 "},"Ì":{"ha":390,"x_min":-28,"x_max":301,"o":"m 301 1010 l 88 1010 l 88 0 l 301 0 l 301 1010 m 122 1108 l 271 1108 l 166 1332 l -28 1332 l 122 1108 "},"Í":{"ha":390,"x_min":88,"x_max":419,"o":"m 301 1010 l 88 1010 l 88 0 l 301 0 l 301 1010 m 120 1108 l 268 1108 l 419 1332 l 224 1332 l 120 1108 "},"Î":{"ha":390,"x_min":-83,"x_max":473,"o":"m 301 1010 l 88 1010 l 88 0 l 301 0 l 301 1010 m 294 1101 l 473 1101 l 473 1108 l 273 1325 l 117 1325 l -83 1108 l -83 1101 l 96 1101 l 195 1221 l 294 1101 "},"Ĩ":{"ha":626,"x_min":54,"x_max":571,"o":"m 419 1010 l 205 1010 l 205 0 l 419 0 l 419 1010 m 172 1103 q 187 1158 172 1138 q 228 1178 203 1178 q 268 1167 251 1178 q 305 1141 286 1156 q 348 1115 324 1126 q 410 1104 373 1104 q 523 1155 477 1105 q 571 1299 570 1206 l 456 1303 q 441 1248 456 1269 q 397 1226 426 1227 q 358 1237 376 1226 q 319 1263 339 1248 q 274 1289 299 1278 q 215 1300 250 1300 q 101 1249 148 1300 q 55 1105 55 1199 l 172 1103 "},"Ī":{"ha":390,"x_min":-45,"x_max":436,"o":"m 301 1010 l 88 1010 l 88 0 l 301 0 l 301 1010 m 436 1263 l -45 1263 l -45 1149 l 436 1149 l 436 1263 "},"Ĭ":{"ha":390,"x_min":-48,"x_max":439,"o":"m 301 1010 l 88 1010 l 88 0 l 301 0 l 301 1010 m 293 1274 q 270 1213 293 1239 q 195 1186 248 1186 q 119 1213 142 1186 q 97 1274 97 1240 l -48 1274 q 17 1130 -48 1185 q 195 1075 83 1075 q 373 1130 307 1075 q 439 1274 439 1185 l 293 1274 "},"Į":{"ha":390,"x_min":33,"x_max":318,"o":"m 301 1010 l 88 1010 l 88 0 l 301 0 l 301 1010 m 205 -283 q 271 -273 243 -283 q 318 -254 299 -264 l 296 -145 q 273 -153 286 -148 q 244 -157 260 -157 q 208 -144 220 -157 q 196 -108 196 -131 q 225 -47 196 -72 q 301 0 255 -22 l 145 57 q 76 3 102 37 q 41 -72 50 -31 q 40 -153 33 -112 q 95 -249 51 -216 q 205 -283 140 -283 "},"İ":{"ha":390,"x_min":82,"x_max":309,"o":"m 301 1010 l 88 1010 l 88 0 l 301 0 l 301 1010 m 196 1108 q 276 1139 243 1108 q 309 1214 309 1170 q 276 1289 309 1258 q 195 1320 243 1320 q 115 1289 149 1320 q 82 1214 82 1258 q 115 1139 82 1170 q 196 1108 149 1108 "},"Ǐ":{"ha":390,"x_min":-83,"x_max":473,"o":"m 301 1010 l 88 1010 l 88 0 l 301 0 l 301 1010 m 96 1325 l -83 1325 l -83 1318 l 117 1101 l 273 1101 l 473 1318 l 473 1325 l 294 1325 l 195 1204 l 96 1325 "},"Ȉ":{"ha":390,"x_min":-148,"x_max":395,"o":"m 301 1010 l 88 1010 l 88 0 l 301 0 l 301 1010 m 6 1108 l 154 1108 l 49 1332 l -148 1332 l 6 1108 m 250 1108 l 395 1108 l 335 1332 l 144 1332 l 250 1108 "},"Ȋ":{"ha":390,"x_min":-50,"x_max":439,"o":"m 301 1010 l 88 1010 l 88 0 l 301 0 l 301 1010 m -50 1132 l 96 1132 q 118 1193 96 1166 q 194 1220 141 1220 q 269 1193 247 1220 q 292 1132 292 1166 l 438 1132 q 372 1279 438 1222 q 194 1337 306 1337 q 15 1279 81 1337 q -50 1132 -51 1222 "},"Ỉ":{"ha":390,"x_min":88,"x_max":378,"o":"m 301 1010 l 88 1010 l 88 0 l 301 0 l 301 1010 m 273 1119 l 273 1162 q 345 1191 313 1168 q 378 1259 378 1214 q 309 1357 378 1322 q 109 1393 241 1393 l 104 1298 q 174 1288 146 1298 q 202 1252 203 1279 q 181 1221 203 1233 q 106 1207 158 1210 l 117 1119 l 273 1119 "},"Ị":{"ha":390,"x_min":80,"x_max":308,"o":"m 301 1010 l 88 1010 l 88 0 l 301 0 l 301 1010 m 194 -284 q 274 -253 241 -284 q 308 -178 308 -221 q 274 -103 308 -134 q 194 -72 241 -72 q 114 -103 147 -72 q 80 -178 80 -134 q 114 -253 80 -221 q 194 -284 147 -284 "},"Ɩ":{"ha":418,"x_min":84,"x_max":423,"o":"m 84 1010 l 84 199 q 142 41 84 91 q 321 -5 200 -9 q 383 2 360 -3 q 423 12 407 7 l 390 165 q 375 161 384 162 q 350 159 366 159 q 307 175 320 159 q 294 227 294 191 l 294 1010 l 84 1010 "},"Ι":{"ha":390,"x_min":88,"x_max":301,"o":"m 301 1010 l 88 1010 l 88 0 l 301 0 l 301 1010 "},"Ί":{"ha":537,"x_min":3,"x_max":449,"o":"m 449 1010 l 235 1010 l 235 0 l 449 0 l 449 1010 m 3 848 l 127 848 l 244 1083 l 56 1083 l 3 848 "},"Ϊ":{"ha":390,"x_min":-59,"x_max":449,"o":"m 301 1010 l 88 1010 l 88 0 l 301 0 l 301 1010 m 45 1114 q 118 1144 88 1114 q 147 1214 147 1173 q 118 1285 147 1256 q 45 1314 88 1314 q -28 1285 2 1314 q -59 1214 -59 1256 q -28 1144 -59 1173 q 45 1114 2 1114 m 347 1114 q 419 1144 390 1114 q 449 1214 449 1173 q 419 1285 449 1256 q 347 1314 390 1314 q 274 1285 304 1314 q 243 1214 243 1256 q 274 1144 243 1173 q 347 1114 304 1114 "},"Ἰ":{"ha":598,"x_min":78,"x_max":514,"o":"m 513 1010 l 300 1010 l 300 0 l 513 0 l 513 1010 m 252 1010 l 133 1010 l 133 949 q 128 900 133 923 q 111 860 123 878 q 78 827 99 841 l 137 765 q 196 807 170 781 q 236 868 221 833 q 252 945 252 903 l 252 1010 "},"Ἱ":{"ha":580,"x_min":83,"x_max":496,"o":"m 496 1010 l 282 1010 l 282 0 l 496 0 l 496 1010 m 83 945 q 117 836 84 882 q 198 765 149 789 l 256 827 q 224 861 235 842 q 208 903 213 881 q 203 949 204 926 l 203 1010 l 83 1010 l 83 945 "},"Ἲ":{"ha":845,"x_min":82,"x_max":761,"o":"m 761 1010 l 547 1010 l 547 0 l 761 0 l 761 1010 m 523 793 l 444 1012 l 297 1012 l 297 998 l 458 783 l 523 783 l 523 793 m 266 1012 l 139 1012 l 139 960 q 125 876 139 912 q 82 808 110 839 l 137 767 q 206 818 178 789 q 251 882 235 847 q 266 956 266 917 l 266 1012 "},"Ἳ":{"ha":805,"x_min":79,"x_max":721,"o":"m 721 1010 l 507 1010 l 507 0 l 721 0 l 721 1010 m 482 796 l 404 1010 l 256 1010 l 256 996 l 416 780 l 482 780 l 482 796 m 80 945 q 112 836 79 882 q 197 765 145 789 l 255 827 q 211 882 221 849 q 201 949 201 914 l 201 1010 l 80 1010 l 80 945 "},"Ἴ":{"ha":819,"x_min":84,"x_max":734,"o":"m 734 1010 l 521 1010 l 521 0 l 734 0 l 734 1010 m 280 780 l 346 780 l 507 996 l 507 1010 l 360 1010 l 280 796 l 280 780 m 260 1010 l 139 1010 l 139 949 q 128 882 139 914 q 85 827 117 849 l 143 765 q 203 808 177 781 q 244 869 229 834 q 260 945 259 904 l 260 1010 "},"Ἵ":{"ha":837,"x_min":83,"x_max":753,"o":"m 753 1010 l 540 1010 l 540 0 l 753 0 l 753 1010 m 294 780 l 358 780 l 519 996 l 519 1010 l 371 1010 l 294 796 l 294 780 m 198 765 l 256 827 q 215 879 226 848 q 203 949 203 909 l 203 1010 l 83 1010 l 83 945 q 117 834 83 880 q 198 765 150 788 "},"Ἶ":{"ha":723,"x_min":80,"x_max":639,"o":"m 639 1010 l 425 1010 l 425 0 l 639 0 l 639 1010 m 403 1178 q 389 1137 403 1154 q 356 1120 376 1120 q 315 1127 335 1120 q 276 1143 295 1134 q 236 1159 256 1152 q 193 1165 216 1165 q 111 1127 143 1165 q 79 1041 79 1090 l 165 1017 q 178 1058 165 1041 q 211 1076 190 1076 q 252 1069 234 1076 q 288 1053 270 1062 q 326 1037 305 1044 q 374 1030 347 1030 q 456 1067 424 1030 q 488 1152 488 1103 l 403 1178 m 351 995 l 240 995 l 240 944 q 232 888 240 915 q 194 843 223 861 l 249 793 q 322 851 293 813 q 351 941 351 890 l 351 995 "},"Ἷ":{"ha":742,"x_min":80,"x_max":658,"o":"m 657 1010 l 444 1010 l 444 0 l 657 0 l 657 1010 m 239 941 q 269 850 239 888 q 339 793 298 812 l 397 843 q 358 888 367 861 q 350 944 350 915 l 350 995 l 239 995 l 239 941 m 403 1178 q 389 1137 403 1154 q 356 1120 376 1120 q 315 1127 335 1120 q 276 1143 295 1134 q 236 1159 256 1152 q 193 1165 216 1165 q 111 1127 143 1165 q 79 1041 79 1090 l 165 1017 q 178 1058 165 1041 q 211 1076 190 1076 q 252 1069 234 1076 q 288 1053 270 1062 q 326 1037 305 1044 q 374 1030 347 1030 q 456 1067 424 1030 q 488 1152 488 1103 l 403 1178 "},"Ῐ":{"ha":390,"x_min":-48,"x_max":439,"o":"m 301 1010 l 88 1010 l 88 0 l 301 0 l 301 1010 m 293 1274 q 270 1213 293 1239 q 195 1186 248 1186 q 119 1213 142 1186 q 97 1274 97 1240 l -48 1274 q 17 1130 -48 1185 q 195 1075 83 1075 q 373 1130 307 1075 q 439 1274 439 1185 l 293 1274 "},"Ῑ":{"ha":390,"x_min":-45,"x_max":436,"o":"m 301 1010 l 88 1010 l 88 0 l 301 0 l 301 1010 m 436 1263 l -45 1263 l -45 1149 l 436 1149 l 436 1263 "},"Ὶ":{"ha":634,"x_min":82,"x_max":550,"o":"m 550 1010 l 336 1010 l 336 0 l 550 0 l 550 1010 m 243 779 l 306 779 l 306 798 l 229 1010 l 82 1010 l 82 996 l 243 779 "},"Ί":{"ha":618,"x_min":93,"x_max":534,"o":"m 534 1010 l 321 1010 l 321 0 l 534 0 l 534 1010 m 93 852 l 197 852 l 358 1069 l 358 1083 l 170 1083 l 93 871 l 93 852 "},"І":{"ha":390,"x_min":88,"x_max":301,"o":"m 301 1010 l 88 1010 l 88 0 l 301 0 l 301 1010 "},"Ї":{"ha":390,"x_min":-59,"x_max":449,"o":"m 301 1010 l 88 1010 l 88 0 l 301 0 l 301 1010 m 45 1114 q 118 1144 88 1114 q 147 1214 147 1173 q 118 1285 147 1256 q 45 1314 88 1314 q -28 1285 2 1314 q -59 1214 -59 1256 q -28 1144 -59 1173 q 45 1114 2 1114 m 347 1114 q 419 1144 390 1114 q 449 1214 449 1173 q 419 1285 449 1256 q 347 1314 390 1314 q 274 1285 304 1314 q 243 1214 243 1256 q 274 1144 243 1173 q 347 1114 304 1114 "},"":{"ha":666,"x_min":49,"x_max":617,"o":"m 49 834 l 617 834 l 617 1010 l 49 1010 l 49 834 m 49 0 l 617 0 l 617 176 l 49 176 l 49 0 m 440 1010 l 226 1010 l 226 0 l 440 0 l 440 1010 "},"":{"ha":666,"x_min":49,"x_max":617,"o":"m 49 834 l 617 834 l 617 1010 l 49 1010 l 49 834 m 49 0 l 617 0 l 617 176 l 49 176 l 49 0 m 440 1010 l 226 1010 l 226 0 l 440 0 l 440 1010 m 183 1114 q 256 1144 226 1114 q 286 1214 286 1173 q 256 1285 286 1256 q 183 1314 226 1314 q 110 1285 141 1314 q 80 1214 80 1256 q 110 1144 80 1173 q 183 1114 141 1114 m 485 1114 q 558 1144 528 1114 q 588 1214 588 1173 q 558 1285 588 1256 q 485 1314 528 1314 q 412 1285 443 1314 q 382 1214 382 1256 q 412 1144 382 1173 q 485 1114 443 1114 "},"":{"ha":666,"x_min":49,"x_max":617,"o":"m 49 834 l 617 834 l 617 1010 l 49 1010 l 49 834 m 49 0 l 617 0 l 617 176 l 49 176 l 49 0 m 440 1010 l 226 1010 l 226 0 l 440 0 l 440 1010 m 253 1330 l 404 1330 l 578 1504 l 389 1504 l 253 1330 m 190 1080 q 259 1107 231 1080 q 288 1173 288 1135 q 259 1239 288 1212 q 190 1267 231 1267 q 120 1239 149 1267 q 91 1173 91 1212 q 120 1107 91 1135 q 190 1080 149 1080 m 479 1080 q 549 1107 520 1080 q 578 1173 578 1135 q 549 1239 578 1212 q 479 1267 520 1267 q 409 1239 438 1267 q 380 1173 380 1212 q 409 1107 380 1135 q 479 1080 438 1080 "},"":{"ha":666,"x_min":49,"x_max":617,"o":"m 49 834 l 617 834 l 617 1010 l 49 1010 l 49 834 m 49 0 l 617 0 l 617 176 l 49 176 l 49 0 m 440 1010 l 226 1010 l 226 0 l 440 0 l 440 1010 m 86 471 l 578 471 l 578 594 l 86 594 l 86 471 "},"":{"ha":666,"x_min":49,"x_max":617,"o":"m 49 834 l 617 834 l 617 1010 l 49 1010 l 49 834 m 49 0 l 617 0 l 617 176 l 49 176 l 49 0 m 440 1010 l 226 1010 l 226 0 l 440 0 l 440 1010 m 218 -271 q 234 -216 218 -236 q 275 -196 249 -196 q 315 -207 297 -196 q 351 -233 332 -218 q 395 -258 370 -247 q 457 -269 420 -270 q 570 -218 523 -269 q 617 -74 616 -168 l 502 -72 q 487 -127 502 -106 q 443 -147 472 -147 q 404 -136 422 -147 q 366 -111 386 -125 q 321 -85 346 -96 q 261 -74 296 -74 q 148 -125 194 -74 q 101 -269 101 -175 l 218 -271 "},"":{"ha":666,"x_min":49,"x_max":617,"o":"m 49 834 l 617 834 l 617 1010 l 49 1010 l 49 834 m 49 0 l 617 0 l 617 176 l 49 176 l 49 0 m 440 1010 l 226 1010 l 226 0 l 440 0 l 440 1010 m 261 1108 l 409 1108 l 304 1332 l 110 1332 l 261 1108 "},"":{"ha":666,"x_min":49,"x_max":617,"o":"m 49 834 l 617 834 l 617 1010 l 49 1010 l 49 834 m 49 0 l 617 0 l 617 176 l 49 176 l 49 0 m 440 1010 l 226 1010 l 226 0 l 440 0 l 440 1010 m 258 1108 l 407 1108 l 557 1332 l 363 1332 l 258 1108 "},"":{"ha":666,"x_min":49,"x_max":617,"o":"m 49 834 l 617 834 l 617 1010 l 49 1010 l 49 834 m 49 0 l 617 0 l 617 176 l 49 176 l 49 0 m 440 1010 l 226 1010 l 226 0 l 440 0 l 440 1010 m 433 1101 l 612 1101 l 612 1108 l 412 1325 l 255 1325 l 56 1108 l 56 1101 l 235 1101 l 334 1221 l 433 1101 "},"":{"ha":666,"x_min":49,"x_max":617,"o":"m 49 834 l 617 834 l 617 1010 l 49 1010 l 49 834 m 49 0 l 617 0 l 617 176 l 49 176 l 49 0 m 440 1010 l 226 1010 l 226 0 l 440 0 l 440 1010 m 193 1103 q 208 1158 193 1138 q 250 1178 224 1178 q 290 1167 272 1178 q 326 1141 307 1156 q 370 1115 345 1126 q 432 1104 395 1104 q 545 1155 498 1105 q 592 1299 591 1206 l 477 1303 q 462 1248 477 1269 q 418 1226 447 1227 q 379 1237 397 1226 q 341 1263 361 1248 q 296 1289 321 1278 q 236 1300 271 1300 q 123 1249 169 1300 q 76 1105 76 1199 l 193 1103 "},"":{"ha":666,"x_min":49,"x_max":617,"o":"m 49 834 l 617 834 l 617 1010 l 49 1010 l 49 834 m 49 0 l 617 0 l 617 176 l 49 176 l 49 0 m 440 1010 l 226 1010 l 226 0 l 440 0 l 440 1010 m 574 1263 l 94 1263 l 94 1149 l 574 1149 l 574 1263 "},"":{"ha":666,"x_min":49,"x_max":617,"o":"m 49 834 l 617 834 l 617 1010 l 49 1010 l 49 834 m 49 0 l 617 0 l 617 176 l 49 176 l 49 0 m 440 1010 l 226 1010 l 226 0 l 440 0 l 440 1010 m 432 1274 q 409 1213 432 1239 q 334 1186 386 1186 q 258 1213 280 1186 q 236 1274 235 1240 l 90 1274 q 156 1130 90 1185 q 334 1075 221 1075 q 512 1130 446 1075 q 578 1274 578 1185 l 432 1274 "},"":{"ha":666,"x_min":49,"x_max":634,"o":"m 49 834 l 617 834 l 617 1010 l 49 1010 l 49 834 m 49 0 l 617 0 l 617 176 l 49 176 l 49 0 m 440 1010 l 226 1010 l 226 0 l 440 0 l 440 1010 m 521 -283 q 587 -273 558 -283 q 633 -254 615 -264 l 612 -145 q 589 -153 602 -148 q 560 -157 576 -157 q 524 -144 536 -157 q 512 -108 511 -131 q 541 -47 511 -72 q 617 0 571 -22 l 461 57 q 391 3 417 37 q 357 -72 365 -31 q 356 -153 348 -112 q 411 -249 367 -216 q 521 -283 455 -283 "},"":{"ha":666,"x_min":49,"x_max":617,"o":"m 49 834 l 617 834 l 617 1010 l 49 1010 l 49 834 m 49 0 l 617 0 l 617 176 l 49 176 l 49 0 m 440 1010 l 226 1010 l 226 0 l 440 0 l 440 1010 m 334 1108 q 414 1139 381 1108 q 447 1214 447 1170 q 414 1289 447 1258 q 333 1320 381 1320 q 254 1289 287 1320 q 220 1214 220 1258 q 254 1139 220 1170 q 334 1108 287 1108 "},"":{"ha":666,"x_min":49,"x_max":617,"o":"m 49 834 l 617 834 l 617 1010 l 49 1010 l 49 834 m 49 0 l 617 0 l 617 176 l 49 176 l 49 0 m 440 1010 l 226 1010 l 226 0 l 440 0 l 440 1010 m 235 1325 l 56 1325 l 56 1318 l 255 1101 l 412 1101 l 612 1318 l 612 1325 l 433 1325 l 334 1204 l 235 1325 "},"":{"ha":666,"x_min":-10,"x_max":617,"o":"m 49 834 l 617 834 l 617 1010 l 49 1010 l 49 834 m 49 0 l 617 0 l 617 176 l 49 176 l 49 0 m 440 1010 l 226 1010 l 226 0 l 440 0 l 440 1010 m 145 1108 l 293 1108 l 188 1332 l -9 1332 l 145 1108 m 388 1108 l 534 1108 l 474 1332 l 283 1332 l 388 1108 "},"":{"ha":666,"x_min":49,"x_max":617,"o":"m 49 834 l 617 834 l 617 1010 l 49 1010 l 49 834 m 49 0 l 617 0 l 617 176 l 49 176 l 49 0 m 440 1010 l 226 1010 l 226 0 l 440 0 l 440 1010 m 88 1132 l 235 1132 q 257 1193 234 1166 q 332 1220 279 1220 q 408 1193 385 1220 q 431 1132 431 1166 l 577 1132 q 511 1279 577 1222 q 332 1337 445 1337 q 154 1279 220 1337 q 88 1132 88 1222 "},"":{"ha":666,"x_min":49,"x_max":617,"o":"m 49 834 l 617 834 l 617 1010 l 49 1010 l 49 834 m 49 0 l 617 0 l 617 176 l 49 176 l 49 0 m 440 1010 l 226 1010 l 226 0 l 440 0 l 440 1010 m 411 1119 l 411 1162 q 484 1191 451 1168 q 516 1259 517 1214 q 448 1357 517 1322 q 248 1393 379 1393 l 242 1298 q 313 1288 285 1298 q 341 1252 341 1279 q 319 1221 341 1233 q 245 1207 297 1210 l 255 1119 l 411 1119 "},"":{"ha":666,"x_min":49,"x_max":617,"o":"m 49 834 l 617 834 l 617 1010 l 49 1010 l 49 834 m 49 0 l 617 0 l 617 176 l 49 176 l 49 0 m 440 1010 l 226 1010 l 226 0 l 440 0 l 440 1010 m 333 -284 q 413 -253 380 -284 q 446 -178 446 -221 q 413 -103 446 -134 q 333 -72 380 -72 q 253 -103 286 -72 q 219 -178 219 -134 q 253 -253 219 -221 q 333 -284 286 -284 "},"":{"ha":888,"x_min":49,"x_max":839,"o":"m 271 834 l 839 834 l 839 1010 l 271 1010 l 271 834 m 271 0 l 839 0 l 839 176 l 271 176 l 271 0 m 662 1010 l 448 1010 l 448 0 l 662 0 l 662 1010 m 222 1010 l 104 1010 l 104 949 q 99 900 104 923 q 82 860 94 878 q 49 827 70 841 l 108 765 q 166 807 141 781 q 207 868 192 833 q 222 945 222 903 l 222 1010 "},"":{"ha":865,"x_min":49,"x_max":816,"o":"m 248 834 l 816 834 l 816 1010 l 248 1010 l 248 834 m 248 0 l 816 0 l 816 176 l 248 176 l 248 0 m 639 1010 l 425 1010 l 425 0 l 639 0 l 639 1010 m 49 945 q 83 836 50 882 q 164 765 115 789 l 222 827 q 190 861 201 842 q 174 903 179 881 q 169 949 170 926 l 169 1010 l 49 1010 l 49 945 "},"":{"ha":1132,"x_min":49,"x_max":1083,"o":"m 515 834 l 1083 834 l 1083 1010 l 515 1010 l 515 834 m 515 0 l 1083 0 l 1083 176 l 515 176 l 515 0 m 906 1010 l 692 1010 l 692 0 l 906 0 l 906 1010 m 490 793 l 411 1012 l 264 1012 l 264 998 l 425 783 l 490 783 l 490 793 m 233 1012 l 106 1012 l 106 960 q 91 876 106 912 q 49 808 77 839 l 104 767 q 173 818 145 789 q 218 882 202 847 q 233 956 233 917 l 233 1012 "},"":{"ha":1094,"x_min":49,"x_max":1045,"o":"m 476 834 l 1044 834 l 1044 1010 l 476 1010 l 476 834 m 476 0 l 1044 0 l 1044 176 l 476 176 l 476 0 m 867 1010 l 654 1010 l 654 0 l 867 0 l 867 1010 m 451 796 l 374 1010 l 225 1010 l 225 996 l 386 780 l 451 780 l 451 796 m 49 945 q 82 836 49 882 q 166 765 115 789 l 224 827 q 181 882 191 849 q 170 949 170 914 l 170 1010 l 49 1010 l 49 945 "},"":{"ha":1103,"x_min":49,"x_max":1054,"o":"m 486 834 l 1054 834 l 1054 1010 l 486 1010 l 486 834 m 486 0 l 1054 0 l 1054 176 l 486 176 l 486 0 m 876 1010 l 663 1010 l 663 0 l 876 0 l 876 1010 m 245 780 l 310 780 l 471 996 l 471 1010 l 324 1010 l 245 796 l 245 780 m 224 1010 l 103 1010 l 103 949 q 92 882 103 914 q 49 827 82 849 l 107 765 q 167 808 141 781 q 209 869 194 834 q 224 945 224 904 l 224 1010 "},"":{"ha":1123,"x_min":49,"x_max":1074,"o":"m 506 834 l 1074 834 l 1074 1010 l 506 1010 l 506 834 m 506 0 l 1074 0 l 1074 176 l 506 176 l 506 0 m 897 1010 l 683 1010 l 683 0 l 897 0 l 897 1010 m 260 780 l 324 780 l 485 996 l 485 1010 l 337 1010 l 260 796 l 260 780 m 164 765 l 222 827 q 181 879 192 848 q 169 949 169 909 l 169 1010 l 49 1010 l 49 945 q 83 834 49 880 q 164 765 116 788 "},"":{"ha":1012,"x_min":49,"x_max":963,"o":"m 395 834 l 963 834 l 963 1010 l 395 1010 l 395 834 m 395 0 l 963 0 l 963 176 l 395 176 l 395 0 m 786 1010 l 572 1010 l 572 0 l 786 0 l 786 1010 m 373 1178 q 359 1137 373 1154 q 326 1120 346 1120 q 285 1127 305 1120 q 246 1143 265 1134 q 206 1159 226 1152 q 163 1165 186 1165 q 81 1127 113 1165 q 49 1041 49 1090 l 135 1017 q 147 1058 135 1041 q 181 1076 160 1076 q 222 1069 204 1076 q 258 1053 240 1062 q 296 1037 275 1044 q 344 1030 317 1030 q 426 1067 394 1030 q 458 1152 458 1103 l 373 1178 m 321 995 l 210 995 l 210 944 q 202 888 210 915 q 164 843 193 861 l 219 793 q 292 851 263 813 q 321 941 321 890 l 321 995 "},"":{"ha":1031,"x_min":49,"x_max":981,"o":"m 414 834 l 981 834 l 981 1010 l 414 1010 l 414 834 m 414 0 l 981 0 l 981 176 l 414 176 l 414 0 m 804 1010 l 591 1010 l 591 0 l 804 0 l 804 1010 m 209 941 q 239 850 209 888 q 309 793 268 812 l 366 843 q 328 888 337 861 q 320 944 320 915 l 320 995 l 209 995 l 209 941 m 373 1178 q 359 1137 373 1154 q 326 1120 346 1120 q 285 1127 305 1120 q 246 1143 265 1134 q 206 1159 226 1152 q 163 1165 186 1165 q 81 1127 113 1165 q 49 1041 49 1090 l 135 1017 q 147 1058 135 1041 q 181 1076 160 1076 q 222 1069 204 1076 q 258 1053 240 1062 q 296 1037 275 1044 q 344 1030 317 1030 q 426 1067 394 1030 q 458 1152 458 1103 l 373 1178 "},"":{"ha":666,"x_min":49,"x_max":617,"o":"m 49 834 l 617 834 l 617 1010 l 49 1010 l 49 834 m 49 0 l 617 0 l 617 176 l 49 176 l 49 0 m 440 1010 l 226 1010 l 226 0 l 440 0 l 440 1010 m 432 1274 q 409 1213 432 1239 q 334 1186 386 1186 q 258 1213 280 1186 q 236 1274 235 1240 l 90 1274 q 156 1130 90 1185 q 334 1075 221 1075 q 512 1130 446 1075 q 578 1274 578 1185 l 432 1274 "},"":{"ha":666,"x_min":49,"x_max":617,"o":"m 49 834 l 617 834 l 617 1010 l 49 1010 l 49 834 m 49 0 l 617 0 l 617 176 l 49 176 l 49 0 m 440 1010 l 226 1010 l 226 0 l 440 0 l 440 1010 m 574 1263 l 94 1263 l 94 1149 l 574 1149 l 574 1263 "},"":{"ha":921,"x_min":49,"x_max":872,"o":"m 304 834 l 872 834 l 872 1010 l 304 1010 l 304 834 m 304 0 l 872 0 l 872 176 l 304 176 l 304 0 m 694 1010 l 481 1010 l 481 0 l 694 0 l 694 1010 m 210 779 l 273 779 l 273 798 l 196 1010 l 49 1010 l 49 996 l 210 779 "},"":{"ha":905,"x_min":60,"x_max":856,"o":"m 288 834 l 856 834 l 856 1010 l 288 1010 l 288 834 m 288 0 l 856 0 l 856 176 l 288 176 l 288 0 m 679 1010 l 465 1010 l 465 0 l 679 0 l 679 1010 m 60 852 l 165 852 l 325 1069 l 325 1083 l 137 1083 l 60 871 l 60 852 "},"":{"ha":666,"x_min":49,"x_max":617,"o":"m 49 834 l 617 834 l 617 1010 l 49 1010 l 49 834 m 49 0 l 617 0 l 617 176 l 49 176 l 49 0 m 440 1010 l 226 1010 l 226 0 l 440 0 l 440 1010 "},"":{"ha":666,"x_min":49,"x_max":617,"o":"m 49 834 l 617 834 l 617 1010 l 49 1010 l 49 834 m 49 0 l 617 0 l 617 176 l 49 176 l 49 0 m 440 1010 l 226 1010 l 226 0 l 440 0 l 440 1010 m 183 1114 q 256 1144 226 1114 q 286 1214 286 1173 q 256 1285 286 1256 q 183 1314 226 1314 q 110 1285 141 1314 q 80 1214 80 1256 q 110 1144 80 1173 q 183 1114 141 1114 m 485 1114 q 558 1144 528 1114 q 588 1214 588 1173 q 558 1285 588 1256 q 485 1314 528 1314 q 412 1285 443 1314 q 382 1214 382 1256 q 412 1144 382 1173 q 485 1114 443 1114 "},"J":{"ha":792,"x_min":32,"x_max":703,"o":"m 492 1010 l 492 306 q 478 224 492 257 q 436 174 464 191 q 369 157 409 157 q 305 172 332 157 q 262 216 277 187 q 245 284 246 244 l 33 284 q 75 117 32 183 q 193 18 119 51 q 359 -14 267 -14 q 539 25 461 -14 q 660 136 616 64 q 703 306 703 208 l 703 1010 l 492 1010 "},"Ĵ":{"ha":792,"x_min":32,"x_max":875,"o":"m 492 1010 l 492 306 q 478 224 492 257 q 436 174 464 191 q 369 157 409 157 q 305 172 332 157 q 262 216 277 187 q 245 284 246 244 l 33 284 q 75 117 32 183 q 193 18 119 51 q 359 -14 267 -14 q 539 25 461 -14 q 660 136 616 64 q 703 306 703 208 l 703 1010 l 492 1010 m 696 1101 l 875 1101 l 875 1108 l 675 1325 l 519 1325 l 319 1108 l 319 1101 l 498 1101 l 597 1221 l 696 1101 "},"Ɉ":{"ha":792,"x_min":32,"x_max":841,"o":"m 492 1010 l 492 306 q 478 224 492 257 q 436 174 464 191 q 369 157 409 157 q 305 172 332 157 q 262 216 277 187 q 245 284 246 244 l 33 284 q 75 117 32 183 q 193 18 119 51 q 359 -14 267 -14 q 539 25 461 -14 q 660 136 616 64 q 703 306 703 208 l 703 1010 l 492 1010 m 349 541 l 841 541 l 841 665 l 349 665 l 349 541 "},"Ϳ":{"ha":792,"x_min":32,"x_max":703,"o":"m 492 1010 l 492 306 q 478 224 492 257 q 436 174 464 191 q 369 157 409 157 q 305 172 332 157 q 262 216 277 187 q 245 284 246 244 l 33 284 q 75 117 32 183 q 193 18 119 51 q 359 -14 267 -14 q 539 25 461 -14 q 660 136 616 64 q 703 306 703 208 l 703 1010 l 492 1010 "},"Ј":{"ha":792,"x_min":32,"x_max":703,"o":"m 492 1010 l 492 306 q 478 224 492 257 q 436 174 464 191 q 369 157 409 157 q 305 172 332 157 q 262 216 277 187 q 245 284 246 244 l 33 284 q 75 117 32 183 q 193 18 119 51 q 359 -14 267 -14 q 539 25 461 -14 q 660 136 616 64 q 703 306 703 208 l 703 1010 l 492 1010 "},"K":{"ha":958,"x_min":88,"x_max":939,"o":"m 88 0 l 301 0 l 301 287 l 406 415 l 683 0 l 939 0 l 559 558 l 934 1010 l 678 1010 l 315 565 l 301 565 l 301 1010 l 88 1010 l 88 0 "},"Ķ":{"ha":958,"x_min":88,"x_max":939,"o":"m 88 0 l 301 0 l 301 287 l 406 415 l 683 0 l 939 0 l 559 558 l 934 1010 l 678 1010 l 315 565 l 301 565 l 301 1010 l 88 1010 l 88 0 m 318 -323 l 466 -323 l 574 -79 l 379 -79 l 318 -323 "},"Ǩ":{"ha":958,"x_min":88,"x_max":939,"o":"m 88 0 l 301 0 l 301 287 l 406 415 l 683 0 l 939 0 l 559 558 l 934 1010 l 678 1010 l 315 565 l 301 565 l 301 1010 l 88 1010 l 88 0 m 379 1325 l 200 1325 l 200 1318 l 400 1101 l 556 1101 l 756 1318 l 756 1325 l 577 1325 l 478 1204 l 379 1325 "},"Ḱ":{"ha":958,"x_min":88,"x_max":939,"o":"m 88 0 l 301 0 l 301 287 l 406 415 l 683 0 l 939 0 l 559 558 l 934 1010 l 678 1010 l 315 565 l 301 565 l 301 1010 l 88 1010 l 88 0 m 402 1108 l 551 1108 l 701 1332 l 507 1332 l 402 1108 "},"Ḳ":{"ha":958,"x_min":88,"x_max":939,"o":"m 88 0 l 301 0 l 301 287 l 406 415 l 683 0 l 939 0 l 559 558 l 934 1010 l 678 1010 l 315 565 l 301 565 l 301 1010 l 88 1010 l 88 0 m 475 -283 q 556 -252 522 -283 q 589 -177 589 -220 q 556 -102 589 -133 q 475 -71 522 -71 q 395 -102 429 -71 q 362 -177 362 -133 q 395 -252 362 -220 q 475 -283 429 -283 "},"Ḵ":{"ha":958,"x_min":88,"x_max":939,"o":"m 88 0 l 301 0 l 301 287 l 406 415 l 683 0 l 939 0 l 559 558 l 934 1010 l 678 1010 l 315 565 l 301 565 l 301 1010 l 88 1010 l 88 0 m 715 -125 l 235 -125 l 235 -239 l 715 -239 l 715 -125 "},"Ҡ":{"ha":1179,"x_min":23,"x_max":1127,"o":"m 862 0 l 1127 0 l 714 542 l 1108 1010 l 843 1010 l 507 607 l 465 607 l 465 1010 l 23 1010 l 23 843 l 251 843 l 251 0 l 465 0 l 465 431 l 537 431 l 862 0 "},"Қ":{"ha":1028,"x_min":88,"x_max":984,"o":"m 699 0 l 964 0 l 551 542 l 945 1010 l 680 1010 l 344 607 l 301 607 l 301 1010 l 88 1010 l 88 0 l 301 0 l 301 431 l 374 431 l 699 0 m 984 152 l 780 152 l 780 -237 l 984 -237 l 984 152 "},"Ƙ":{"ha":1013,"x_min":88,"x_max":1003,"o":"m 88 0 l 301 0 l 301 260 l 425 393 l 722 0 l 978 0 l 561 544 l 799 792 q 863 838 834 828 q 935 826 893 848 l 1003 978 q 877 1022 940 1015 q 757 1004 815 1028 q 646 926 698 980 l 315 575 l 301 575 l 301 1010 l 88 1010 l 88 0 "},"Κ":{"ha":958,"x_min":88,"x_max":939,"o":"m 88 0 l 301 0 l 301 287 l 406 415 l 683 0 l 939 0 l 559 558 l 934 1010 l 678 1010 l 315 565 l 301 565 l 301 1010 l 88 1010 l 88 0 "},"L":{"ha":788,"x_min":88,"x_max":734,"o":"m 88 0 l 734 0 l 734 176 l 301 176 l 301 1010 l 88 1010 l 88 0 "},"Ĺ":{"ha":788,"x_min":88,"x_max":734,"o":"m 88 0 l 734 0 l 734 176 l 301 176 l 301 1010 l 88 1010 l 88 0 m 117 1108 l 266 1108 l 416 1332 l 222 1332 l 117 1108 "},"Ļ":{"ha":788,"x_min":88,"x_max":734,"o":"m 88 0 l 734 0 l 734 176 l 301 176 l 301 1010 l 88 1010 l 88 0 m 254 -324 l 402 -324 l 510 -80 l 316 -80 l 254 -324 "},"Ľ":{"ha":788,"x_min":88,"x_max":734,"o":"m 88 0 l 734 0 l 734 176 l 301 176 l 301 1010 l 88 1010 l 88 0 m 453 802 l 575 802 l 611 1062 l 453 1062 l 453 802 "},"Ḷ":{"ha":788,"x_min":88,"x_max":734,"o":"m 88 0 l 734 0 l 734 176 l 301 176 l 301 1010 l 88 1010 l 88 0 m 411 -284 q 491 -253 458 -284 q 525 -178 525 -221 q 491 -103 525 -134 q 411 -72 458 -72 q 331 -103 364 -72 q 297 -178 297 -134 q 331 -253 297 -221 q 411 -284 364 -284 "},"Ḹ":{"ha":788,"x_min":-47,"x_max":734,"o":"m 88 0 l 734 0 l 734 176 l 301 176 l 301 1010 l 88 1010 l 88 0 m 411 -284 q 491 -253 458 -284 q 525 -178 525 -221 q 491 -103 525 -134 q 411 -72 458 -72 q 331 -103 364 -72 q 297 -178 297 -134 q 331 -253 297 -221 q 411 -284 364 -284 m 433 1263 l -47 1263 l -47 1149 l 433 1149 l 433 1263 "},"Ḻ":{"ha":788,"x_min":88,"x_max":734,"o":"m 88 0 l 734 0 l 734 176 l 301 176 l 301 1010 l 88 1010 l 88 0 m 652 -126 l 171 -126 l 171 -240 l 652 -240 l 652 -126 "},"Ḽ":{"ha":788,"x_min":88,"x_max":734,"o":"m 88 0 l 734 0 l 734 176 l 301 176 l 301 1010 l 88 1010 l 88 0 m 510 -287 l 689 -287 l 689 -280 l 489 -63 l 333 -63 l 133 -280 l 133 -287 l 312 -287 l 411 -167 l 510 -287 "},"Ł":{"ha":813,"x_min":20,"x_max":777,"o":"m 477 653 l 20 525 l 20 409 l 477 536 l 477 653 m 131 0 l 777 0 l 777 176 l 344 176 l 344 1010 l 131 1010 l 131 0 "},"Ƚ":{"ha":788,"x_min":-52,"x_max":734,"o":"m 88 0 l 734 0 l 734 176 l 301 176 l 301 1010 l 88 1010 l 88 0 m -53 471 l 439 471 l 439 594 l -53 594 l -53 471 "},"ǈ":{"ha":1166,"x_min":88,"x_max":1090,"o":"m 88 0 l 734 0 l 734 176 l 301 176 l 301 1010 l 88 1010 l 88 0 m 872 758 l 872 -34 q 852 -98 872 -77 q 780 -120 831 -120 q 767 -120 773 -120 q 753 -119 761 -119 l 753 -283 q 774 -284 764 -284 q 795 -284 784 -284 q 949 -259 884 -284 q 1048 -180 1013 -234 q 1082 -37 1082 -125 l 1082 758 l 872 758 m 977 855 q 1057 887 1024 855 q 1090 962 1090 918 q 1057 1036 1090 1005 q 977 1068 1024 1068 q 897 1036 930 1068 q 863 962 863 1005 q 897 887 863 918 q 977 855 930 855 "},"M":{"ha":1271,"x_min":88,"x_max":1183,"o":"m 88 1010 l 88 0 l 295 0 l 295 660 l 303 660 l 565 5 l 706 5 l 967 657 l 976 657 l 976 0 l 1183 0 l 1183 1010 l 919 1010 l 641 331 l 629 331 l 351 1010 l 88 1010 "},"Ḿ":{"ha":1271,"x_min":88,"x_max":1183,"o":"m 88 1010 l 88 0 l 295 0 l 295 660 l 303 660 l 565 5 l 706 5 l 967 657 l 976 657 l 976 0 l 1183 0 l 1183 1010 l 919 1010 l 641 331 l 629 331 l 351 1010 l 88 1010 m 560 1108 l 708 1108 l 859 1332 l 664 1332 l 560 1108 "},"Ṁ":{"ha":1271,"x_min":88,"x_max":1183,"o":"m 88 1010 l 88 0 l 295 0 l 295 660 l 303 660 l 565 5 l 706 5 l 967 657 l 976 657 l 976 0 l 1183 0 l 1183 1010 l 919 1010 l 641 331 l 629 331 l 351 1010 l 88 1010 m 636 1108 q 716 1139 683 1108 q 749 1214 749 1170 q 716 1289 749 1258 q 635 1320 683 1320 q 555 1289 589 1320 q 522 1214 522 1258 q 555 1139 522 1170 q 636 1108 589 1108 "},"Ṃ":{"ha":1271,"x_min":88,"x_max":1183,"o":"m 88 1010 l 88 0 l 295 0 l 295 660 l 303 660 l 565 5 l 706 5 l 967 657 l 976 657 l 976 0 l 1183 0 l 1183 1010 l 919 1010 l 641 331 l 629 331 l 351 1010 l 88 1010 m 635 -284 q 715 -253 682 -284 q 749 -178 749 -221 q 715 -103 749 -134 q 635 -72 682 -72 q 555 -103 588 -72 q 521 -178 521 -134 q 555 -253 521 -221 q 635 -284 588 -284 "},"Ӎ":{"ha":1362,"x_min":88,"x_max":1350,"o":"m 88 1010 l 88 0 l 295 0 l 295 660 l 303 660 l 565 5 l 706 5 l 967 657 l 976 657 l 976 0 l 1183 0 l 1183 1010 l 919 1010 l 641 331 l 629 331 l 351 1010 l 88 1010 m 1350 115 l 1182 115 l 1182 -15 q 1171 -105 1183 -66 q 1144 -175 1160 -143 q 1111 -240 1127 -208 l 1223 -289 q 1289 -208 1261 -254 q 1334 -109 1318 -162 q 1350 -3 1350 -57 l 1350 115 "},"Μ":{"ha":1271,"x_min":88,"x_max":1183,"o":"m 88 1010 l 88 0 l 295 0 l 295 660 l 303 660 l 565 5 l 706 5 l 967 657 l 976 657 l 976 0 l 1183 0 l 1183 1010 l 919 1010 l 641 331 l 629 331 l 351 1010 l 88 1010 "},"Ϻ":{"ha":1271,"x_min":88,"x_max":1183,"o":"m 88 1010 l 88 0 l 295 0 l 295 660 l 303 660 l 565 5 l 706 5 l 967 657 l 976 657 l 976 0 l 1183 0 l 1183 1010 l 919 1010 l 641 331 l 629 331 l 351 1010 l 88 1010 "},"М":{"ha":1271,"x_min":88,"x_max":1183,"o":"m 88 1010 l 88 0 l 295 0 l 295 660 l 303 660 l 565 5 l 706 5 l 967 657 l 976 657 l 976 0 l 1183 0 l 1183 1010 l 919 1010 l 641 331 l 629 331 l 351 1010 l 88 1010 "},"N":{"ha":1021,"x_min":88,"x_max":933,"o":"m 933 1010 l 720 1010 l 720 375 l 711 375 l 275 1010 l 88 1010 l 88 0 l 301 0 l 301 636 l 309 636 l 748 0 l 933 0 l 933 1010 "},"Ñ":{"ha":1021,"x_min":88,"x_max":933,"o":"m 933 1010 l 720 1010 l 720 375 l 711 375 l 275 1010 l 88 1010 l 88 0 l 301 0 l 301 636 l 309 636 l 748 0 l 933 0 l 933 1010 m 370 1103 q 385 1158 370 1138 q 427 1178 401 1178 q 467 1167 449 1178 q 503 1141 484 1156 q 547 1115 522 1126 q 609 1104 572 1104 q 722 1155 675 1105 q 769 1299 768 1206 l 654 1303 q 639 1248 654 1269 q 595 1226 624 1227 q 556 1237 574 1226 q 518 1263 538 1248 q 473 1289 498 1278 q 413 1300 448 1300 q 300 1249 346 1300 q 253 1105 253 1199 l 370 1103 "},"Ń":{"ha":1021,"x_min":88,"x_max":933,"o":"m 933 1010 l 720 1010 l 720 375 l 711 375 l 275 1010 l 88 1010 l 88 0 l 301 0 l 301 636 l 309 636 l 748 0 l 933 0 l 933 1010 m 436 1108 l 584 1108 l 734 1332 l 540 1332 l 436 1108 "},"Ņ":{"ha":1021,"x_min":88,"x_max":933,"o":"m 933 1010 l 720 1010 l 720 375 l 711 375 l 275 1010 l 88 1010 l 88 0 l 301 0 l 301 636 l 309 636 l 748 0 l 933 0 l 933 1010 m 354 -324 l 502 -324 l 610 -80 l 415 -80 l 354 -324 "},"Ň":{"ha":1021,"x_min":88,"x_max":933,"o":"m 933 1010 l 720 1010 l 720 375 l 711 375 l 275 1010 l 88 1010 l 88 0 l 301 0 l 301 636 l 309 636 l 748 0 l 933 0 l 933 1010 m 412 1325 l 233 1325 l 233 1318 l 433 1101 l 589 1101 l 789 1318 l 789 1325 l 610 1325 l 511 1204 l 412 1325 "},"Ǹ":{"ha":1021,"x_min":88,"x_max":933,"o":"m 933 1010 l 720 1010 l 720 375 l 711 375 l 275 1010 l 88 1010 l 88 0 l 301 0 l 301 636 l 309 636 l 748 0 l 933 0 l 933 1010 m 438 1108 l 586 1108 l 481 1332 l 288 1332 l 438 1108 "},"Ṅ":{"ha":1021,"x_min":88,"x_max":933,"o":"m 933 1010 l 720 1010 l 720 375 l 711 375 l 275 1010 l 88 1010 l 88 0 l 301 0 l 301 636 l 309 636 l 748 0 l 933 0 l 933 1010 m 511 1108 q 592 1139 558 1108 q 625 1214 625 1170 q 592 1289 625 1258 q 511 1320 558 1320 q 431 1289 465 1320 q 398 1214 398 1258 q 431 1139 398 1170 q 511 1108 465 1108 "},"Ṇ":{"ha":1021,"x_min":88,"x_max":933,"o":"m 933 1010 l 720 1010 l 720 375 l 711 375 l 275 1010 l 88 1010 l 88 0 l 301 0 l 301 636 l 309 636 l 748 0 l 933 0 l 933 1010 m 511 -284 q 591 -253 558 -284 q 624 -178 624 -221 q 591 -103 624 -134 q 511 -72 558 -72 q 431 -103 464 -72 q 397 -178 397 -134 q 431 -253 397 -221 q 511 -284 464 -284 "},"Ṉ":{"ha":1021,"x_min":88,"x_max":933,"o":"m 933 1010 l 720 1010 l 720 375 l 711 375 l 275 1010 l 88 1010 l 88 0 l 301 0 l 301 636 l 309 636 l 748 0 l 933 0 l 933 1010 m 751 -126 l 271 -126 l 271 -240 l 751 -240 l 751 -126 "},"Ṋ":{"ha":1021,"x_min":88,"x_max":933,"o":"m 933 1010 l 720 1010 l 720 375 l 711 375 l 275 1010 l 88 1010 l 88 0 l 301 0 l 301 636 l 309 636 l 748 0 l 933 0 l 933 1010 m 610 -287 l 789 -287 l 789 -280 l 589 -63 l 433 -63 l 233 -280 l 233 -287 l 412 -287 l 511 -167 l 610 -287 "},"Ɲ":{"ha":1045,"x_min":-36,"x_max":956,"o":"m 111 0 l 111 -46 q 80 -105 111 -90 q 7 -120 48 -120 q -14 -120 -2 -120 q -36 -118 -26 -120 l -36 -279 q 13 -284 -17 -283 q 62 -284 43 -284 q 158 -274 111 -284 q 242 -239 205 -264 q 303 -166 280 -213 q 325 -46 325 -120 l 325 0 l 111 0 m 956 1010 l 744 1010 l 744 375 l 735 375 l 299 1010 l 111 1010 l 111 0 l 325 0 l 325 636 l 332 636 l 772 0 l 956 0 l 956 1010 "},"Ŋ":{"ha":1021,"x_min":88,"x_max":933,"o":"m 748 0 l 748 -43 q 716 -115 748 -92 q 632 -138 684 -138 q 593 -136 613 -138 q 559 -130 574 -134 l 559 -289 q 597 -297 577 -294 q 636 -299 618 -299 q 792 -275 725 -299 q 896 -193 859 -250 q 933 -40 933 -137 l 933 0 l 748 0 m 933 1010 l 720 1010 l 720 375 l 711 375 l 275 1010 l 88 1010 l 88 0 l 301 0 l 301 636 l 309 636 l 748 0 l 933 0 l 933 1010 "},"И":{"ha":1021,"x_min":88,"x_max":933,"o":"m 88 1010 l 88 0 l 273 0 l 712 636 l 719 636 l 719 0 l 933 0 l 933 1010 l 746 1010 l 309 375 l 301 375 l 301 1010 l 88 1010 "},"Ѝ":{"ha":1021,"x_min":88,"x_max":933,"o":"m 88 1010 l 88 0 l 273 0 l 712 636 l 719 636 l 719 0 l 933 0 l 933 1010 l 746 1010 l 309 375 l 301 375 l 301 1010 l 88 1010 m 438 1108 l 586 1108 l 481 1332 l 288 1332 l 438 1108 "},"Й":{"ha":1021,"x_min":88,"x_max":933,"o":"m 88 1010 l 88 0 l 273 0 l 712 636 l 719 636 l 719 0 l 933 0 l 933 1010 l 746 1010 l 309 375 l 301 375 l 301 1010 l 88 1010 m 609 1274 q 586 1213 609 1239 q 511 1186 563 1186 q 435 1213 457 1186 q 413 1274 412 1240 l 267 1274 q 333 1130 267 1185 q 511 1075 399 1075 q 689 1130 623 1075 q 755 1274 755 1185 l 609 1274 "},"Ӣ":{"ha":1021,"x_min":88,"x_max":933,"o":"m 88 1010 l 88 0 l 273 0 l 712 636 l 719 636 l 719 0 l 933 0 l 933 1010 l 746 1010 l 309 375 l 301 375 l 301 1010 l 88 1010 m 751 1263 l 271 1263 l 271 1149 l 751 1149 l 751 1263 "},"Ӥ":{"ha":1021,"x_min":88,"x_max":933,"o":"m 88 1010 l 88 0 l 273 0 l 712 636 l 719 636 l 719 0 l 933 0 l 933 1010 l 746 1010 l 309 375 l 301 375 l 301 1010 l 88 1010 m 361 1114 q 433 1144 403 1114 q 463 1214 463 1173 q 433 1285 463 1256 q 361 1314 403 1314 q 288 1285 318 1314 q 257 1214 257 1256 q 288 1144 257 1173 q 361 1114 318 1114 m 662 1114 q 735 1144 705 1114 q 765 1214 765 1173 q 735 1285 765 1256 q 662 1314 705 1314 q 589 1285 620 1314 q 559 1214 559 1256 q 589 1144 559 1173 q 662 1114 620 1114 "},"Ҋ":{"ha":1021,"x_min":88,"x_max":1100,"o":"m 88 1010 l 88 0 l 273 0 l 712 636 l 719 636 l 719 0 l 933 0 l 933 1010 l 746 1010 l 309 375 l 301 375 l 301 1010 l 88 1010 m 609 1274 q 586 1213 609 1239 q 511 1186 563 1186 q 435 1213 457 1186 q 413 1274 412 1240 l 267 1274 q 333 1130 267 1185 q 511 1075 399 1075 q 689 1130 623 1075 q 755 1274 755 1185 l 609 1274 m 1100 115 l 933 115 l 933 -15 q 922 -105 933 -66 q 894 -175 910 -143 q 862 -240 878 -208 l 974 -289 q 1040 -208 1011 -254 q 1085 -109 1068 -162 q 1100 -3 1101 -57 l 1100 115 "},"Ͷ":{"ha":1076,"x_min":115,"x_max":960,"o":"m 115 1010 l 115 0 l 300 0 l 739 636 l 746 636 l 746 0 l 960 0 l 960 1010 l 773 1010 l 336 375 l 328 375 l 328 1010 l 115 1010 "},"Ν":{"ha":1021,"x_min":88,"x_max":933,"o":"m 933 1010 l 720 1010 l 720 375 l 711 375 l 275 1010 l 88 1010 l 88 0 l 301 0 l 301 636 l 309 636 l 748 0 l 933 0 l 933 1010 "},"ǋ":{"ha":1362,"x_min":88,"x_max":1287,"o":"m 933 1010 l 720 1010 l 720 375 l 711 375 l 275 1010 l 88 1010 l 88 0 l 301 0 l 301 636 l 309 636 l 748 0 l 933 0 l 933 1010 m 1068 758 l 1068 -34 q 1048 -98 1068 -77 q 977 -120 1027 -120 q 963 -120 970 -120 q 949 -119 957 -119 l 949 -283 q 970 -284 960 -284 q 991 -284 981 -284 q 1145 -259 1081 -284 q 1244 -180 1209 -234 q 1278 -37 1278 -125 l 1278 758 l 1068 758 m 1173 855 q 1254 887 1220 855 q 1287 962 1287 918 q 1254 1036 1287 1005 q 1173 1068 1220 1068 q 1093 1036 1126 1068 q 1059 962 1059 1005 q 1093 887 1059 918 q 1173 855 1126 855 "},"O":{"ha":1086,"x_min":70,"x_max":1016,"o":"m 1016 505 q 954 786 1016 670 q 784 963 891 902 q 543 1024 677 1024 q 301 963 408 1024 q 132 786 194 902 q 70 505 70 670 q 132 224 70 340 q 301 47 194 109 q 543 -14 408 -14 q 784 47 677 -14 q 954 224 891 108 q 1016 505 1016 340 m 799 505 q 768 325 799 398 q 678 213 736 251 q 543 175 620 175 q 408 213 466 175 q 318 325 350 251 q 287 505 287 398 q 318 686 287 612 q 408 797 350 759 q 543 835 466 835 q 678 797 620 835 q 768 686 736 759 q 799 505 799 612 "},"Ö":{"ha":1086,"x_min":70,"x_max":1016,"o":"m 1016 505 q 954 786 1016 670 q 784 963 891 902 q 543 1024 677 1024 q 301 963 408 1024 q 132 786 194 902 q 70 505 70 670 q 132 224 70 340 q 301 47 194 109 q 543 -14 408 -14 q 784 47 677 -14 q 954 224 891 108 q 1016 505 1016 340 m 799 505 q 768 325 799 398 q 678 213 736 251 q 543 175 620 175 q 408 213 466 175 q 318 325 350 251 q 287 505 287 398 q 318 686 287 612 q 408 797 350 759 q 543 835 466 835 q 678 797 620 835 q 768 686 736 759 q 799 505 799 612 m 393 1114 q 465 1144 436 1114 q 495 1214 495 1173 q 465 1285 495 1256 q 393 1314 436 1314 q 320 1285 350 1314 q 289 1214 289 1256 q 320 1144 289 1173 q 393 1114 350 1114 m 694 1114 q 767 1144 737 1114 q 797 1214 797 1173 q 767 1285 797 1256 q 694 1314 737 1314 q 621 1285 652 1314 q 591 1214 591 1256 q 621 1144 591 1173 q 694 1114 652 1114 "},"Õ":{"ha":1086,"x_min":70,"x_max":1016,"o":"m 1016 505 q 954 786 1016 670 q 784 963 891 902 q 543 1024 677 1024 q 301 963 408 1024 q 132 786 194 902 q 70 505 70 670 q 132 224 70 340 q 301 47 194 109 q 543 -14 408 -14 q 784 47 677 -14 q 954 224 891 108 q 1016 505 1016 340 m 799 505 q 768 325 799 398 q 678 213 736 251 q 543 175 620 175 q 408 213 466 175 q 318 325 350 251 q 287 505 287 398 q 318 686 287 612 q 408 797 350 759 q 543 835 466 835 q 678 797 620 835 q 768 686 736 759 q 799 505 799 612 m 401 1110 q 417 1164 401 1144 q 459 1185 433 1185 q 499 1173 481 1185 q 535 1147 516 1162 q 579 1122 554 1133 q 640 1111 604 1110 q 754 1162 707 1111 q 801 1306 800 1212 l 686 1309 q 671 1254 686 1275 q 627 1233 656 1233 q 588 1244 606 1233 q 549 1270 570 1255 q 505 1295 529 1284 q 445 1307 480 1307 q 331 1256 378 1306 q 285 1111 285 1205 l 401 1110 "},"Ø":{"ha":1086,"x_min":70,"x_max":1016,"o":"m 228 -48 l 952 991 l 856 1056 l 132 17 l 228 -48 m 1016 505 q 954 786 1016 670 q 784 963 891 902 q 543 1024 677 1024 q 301 963 408 1024 q 132 786 194 902 q 70 505 70 670 q 132 224 70 340 q 301 47 194 109 q 543 -14 408 -14 q 784 47 677 -14 q 954 224 891 108 q 1016 505 1016 340 m 799 505 q 768 325 799 398 q 678 213 736 251 q 543 175 620 175 q 408 213 466 175 q 318 325 350 251 q 287 505 287 398 q 318 686 287 612 q 408 797 350 759 q 543 835 466 835 q 678 797 620 835 q 768 686 736 759 q 799 505 799 612 "},"Ơ":{"ha":1129,"x_min":70,"x_max":1112,"o":"m 977 1059 q 950 916 977 968 q 851 865 923 865 l 851 757 q 1050 836 987 757 q 1112 1059 1112 915 l 977 1059 m 1016 505 q 954 786 1016 670 q 784 963 891 902 q 543 1024 677 1024 q 301 963 408 1024 q 132 786 194 902 q 70 505 70 670 q 132 224 70 340 q 301 47 194 109 q 543 -14 408 -14 q 784 47 677 -14 q 954 224 891 108 q 1016 505 1016 340 m 799 505 q 768 325 799 398 q 678 213 736 251 q 543 175 620 175 q 408 213 466 175 q 318 325 350 251 q 287 505 287 398 q 318 686 287 612 q 408 797 350 759 q 543 835 466 835 q 678 797 620 835 q 768 686 736 759 q 799 505 799 612 "},"Ò":{"ha":1086,"x_min":70,"x_max":1016,"o":"m 1016 505 q 954 786 1016 670 q 784 963 891 902 q 543 1024 677 1024 q 301 963 408 1024 q 132 786 194 902 q 70 505 70 670 q 132 224 70 340 q 301 47 194 109 q 543 -14 408 -14 q 784 47 677 -14 q 954 224 891 108 q 1016 505 1016 340 m 799 505 q 768 325 799 398 q 678 213 736 251 q 543 175 620 175 q 408 213 466 175 q 318 325 350 251 q 287 505 287 398 q 318 686 287 612 q 408 797 350 759 q 543 835 466 835 q 678 797 620 835 q 768 686 736 759 q 799 505 799 612 m 470 1108 l 618 1108 l 513 1332 l 320 1332 l 470 1108 "},"Ó":{"ha":1086,"x_min":70,"x_max":1016,"o":"m 1016 505 q 954 786 1016 670 q 784 963 891 902 q 543 1024 677 1024 q 301 963 408 1024 q 132 786 194 902 q 70 505 70 670 q 132 224 70 340 q 301 47 194 109 q 543 -14 408 -14 q 784 47 677 -14 q 954 224 891 108 q 1016 505 1016 340 m 799 505 q 768 325 799 398 q 678 213 736 251 q 543 175 620 175 q 408 213 466 175 q 318 325 350 251 q 287 505 287 398 q 318 686 287 612 q 408 797 350 759 q 543 835 466 835 q 678 797 620 835 q 768 686 736 759 q 799 505 799 612 m 468 1108 l 616 1108 l 766 1332 l 572 1332 l 468 1108 "},"Ô":{"ha":1086,"x_min":70,"x_max":1016,"o":"m 1016 505 q 954 786 1016 670 q 784 963 891 902 q 543 1024 677 1024 q 301 963 408 1024 q 132 786 194 902 q 70 505 70 670 q 132 224 70 340 q 301 47 194 109 q 543 -14 408 -14 q 784 47 677 -14 q 954 224 891 108 q 1016 505 1016 340 m 799 505 q 768 325 799 398 q 678 213 736 251 q 543 175 620 175 q 408 213 466 175 q 318 325 350 251 q 287 505 287 398 q 318 686 287 612 q 408 797 350 759 q 543 835 466 835 q 678 797 620 835 q 768 686 736 759 q 799 505 799 612 m 642 1101 l 821 1101 l 821 1108 l 621 1325 l 465 1325 l 265 1108 l 265 1101 l 444 1101 l 543 1221 l 642 1101 "},"Ō":{"ha":1086,"x_min":70,"x_max":1016,"o":"m 1016 505 q 954 786 1016 670 q 784 963 891 902 q 543 1024 677 1024 q 301 963 408 1024 q 132 786 194 902 q 70 505 70 670 q 132 224 70 340 q 301 47 194 109 q 543 -14 408 -14 q 784 47 677 -14 q 954 224 891 108 q 1016 505 1016 340 m 799 505 q 768 325 799 398 q 678 213 736 251 q 543 175 620 175 q 408 213 466 175 q 318 325 350 251 q 287 505 287 398 q 318 686 287 612 q 408 797 350 759 q 543 835 466 835 q 678 797 620 835 q 768 686 736 759 q 799 505 799 612 m 783 1263 l 303 1263 l 303 1149 l 783 1149 l 783 1263 "},"Ŏ":{"ha":1086,"x_min":70,"x_max":1016,"o":"m 1016 505 q 954 786 1016 670 q 784 963 891 902 q 543 1024 677 1024 q 301 963 408 1024 q 132 786 194 902 q 70 505 70 670 q 132 224 70 340 q 301 47 194 109 q 543 -14 408 -14 q 784 47 677 -14 q 954 224 891 108 q 1016 505 1016 340 m 799 505 q 768 325 799 398 q 678 213 736 251 q 543 175 620 175 q 408 213 466 175 q 318 325 350 251 q 287 505 287 398 q 318 686 287 612 q 408 797 350 759 q 543 835 466 835 q 678 797 620 835 q 768 686 736 759 q 799 505 799 612 m 641 1274 q 618 1213 641 1239 q 543 1186 595 1186 q 467 1213 489 1186 q 445 1274 444 1240 l 299 1274 q 365 1130 299 1185 q 543 1075 431 1075 q 721 1130 655 1075 q 787 1274 787 1185 l 641 1274 "},"Ő":{"ha":1086,"x_min":70,"x_max":1016,"o":"m 1016 505 q 954 786 1016 670 q 784 963 891 902 q 543 1024 677 1024 q 301 963 408 1024 q 132 786 194 902 q 70 505 70 670 q 132 224 70 340 q 301 47 194 109 q 543 -14 408 -14 q 784 47 677 -14 q 954 224 891 108 q 1016 505 1016 340 m 799 505 q 768 325 799 398 q 678 213 736 251 q 543 175 620 175 q 408 213 466 175 q 318 325 350 251 q 287 505 287 398 q 318 686 287 612 q 408 797 350 759 q 543 835 466 835 q 678 797 620 835 q 768 686 736 759 q 799 505 799 612 m 580 1098 l 728 1098 l 914 1302 l 736 1302 l 580 1098 m 327 1098 l 474 1098 l 635 1302 l 459 1302 l 327 1098 "},"Ǒ":{"ha":1086,"x_min":70,"x_max":1016,"o":"m 1016 505 q 954 786 1016 670 q 784 963 891 902 q 543 1024 677 1024 q 301 963 408 1024 q 132 786 194 902 q 70 505 70 670 q 132 224 70 340 q 301 47 194 109 q 543 -14 408 -14 q 784 47 677 -14 q 954 224 891 108 q 1016 505 1016 340 m 799 505 q 768 325 799 398 q 678 213 736 251 q 543 175 620 175 q 408 213 466 175 q 318 325 350 251 q 287 505 287 398 q 318 686 287 612 q 408 797 350 759 q 543 835 466 835 q 678 797 620 835 q 768 686 736 759 q 799 505 799 612 m 444 1325 l 265 1325 l 265 1318 l 465 1101 l 621 1101 l 821 1318 l 821 1325 l 642 1325 l 543 1204 l 444 1325 "},"Ǫ":{"ha":1086,"x_min":70,"x_max":1016,"o":"m 1016 505 q 954 786 1016 670 q 784 963 891 902 q 543 1024 677 1024 q 301 963 408 1024 q 132 786 194 902 q 70 505 70 670 q 132 224 70 340 q 301 47 194 109 q 543 -14 408 -14 q 784 47 677 -14 q 954 224 891 108 q 1016 505 1016 340 m 799 505 q 768 325 799 398 q 678 213 736 251 q 543 175 620 175 q 408 213 466 175 q 318 325 350 251 q 287 505 287 398 q 318 686 287 612 q 408 797 350 759 q 543 835 466 835 q 678 797 620 835 q 768 686 736 759 q 799 505 799 612 m 569 -282 q 636 -273 607 -282 q 682 -253 664 -263 l 660 -145 q 638 -152 651 -147 q 609 -156 625 -156 q 573 -144 585 -156 q 561 -107 560 -131 q 590 -46 560 -71 q 666 1 619 -21 l 509 58 q 440 4 466 38 q 405 -71 414 -30 q 404 -152 397 -112 q 460 -248 416 -215 q 569 -282 504 -282 "},"Ǭ":{"ha":1086,"x_min":70,"x_max":1016,"o":"m 1016 505 q 954 786 1016 670 q 784 963 891 902 q 543 1024 677 1024 q 301 963 408 1024 q 132 786 194 902 q 70 505 70 670 q 132 224 70 340 q 301 47 194 109 q 543 -14 408 -14 q 784 47 677 -14 q 954 224 891 108 q 1016 505 1016 340 m 799 505 q 768 325 799 398 q 678 213 736 251 q 543 175 620 175 q 408 213 466 175 q 318 325 350 251 q 287 505 287 398 q 318 686 287 612 q 408 797 350 759 q 543 835 466 835 q 678 797 620 835 q 768 686 736 759 q 799 505 799 612 m 569 -282 q 636 -273 607 -282 q 682 -253 664 -263 l 660 -145 q 638 -152 651 -147 q 609 -156 625 -156 q 573 -144 585 -156 q 561 -107 560 -131 q 590 -46 560 -71 q 666 1 619 -21 l 509 58 q 440 4 466 38 q 405 -71 414 -30 q 404 -152 397 -112 q 460 -248 416 -215 q 569 -282 504 -282 m 783 1263 l 303 1263 l 303 1149 l 783 1149 l 783 1263 "},"Ȍ":{"ha":1086,"x_min":70,"x_max":1016,"o":"m 1016 505 q 954 786 1016 670 q 784 963 891 902 q 543 1024 677 1024 q 301 963 408 1024 q 132 786 194 902 q 70 505 70 670 q 132 224 70 340 q 301 47 194 109 q 543 -14 408 -14 q 784 47 677 -14 q 954 224 891 108 q 1016 505 1016 340 m 799 505 q 768 325 799 398 q 678 213 736 251 q 543 175 620 175 q 408 213 466 175 q 318 325 350 251 q 287 505 287 398 q 318 686 287 612 q 408 797 350 759 q 543 835 466 835 q 678 797 620 835 q 768 686 736 759 q 799 505 799 612 m 354 1108 l 502 1108 l 397 1332 l 200 1332 l 354 1108 m 597 1108 l 743 1108 l 683 1332 l 492 1332 l 597 1108 "},"Ȏ":{"ha":1086,"x_min":70,"x_max":1016,"o":"m 1016 505 q 954 786 1016 670 q 784 963 891 902 q 543 1024 677 1024 q 301 963 408 1024 q 132 786 194 902 q 70 505 70 670 q 132 224 70 340 q 301 47 194 109 q 543 -14 408 -14 q 784 47 677 -14 q 954 224 891 108 q 1016 505 1016 340 m 799 505 q 768 325 799 398 q 678 213 736 251 q 543 175 620 175 q 408 213 466 175 q 318 325 350 251 q 287 505 287 398 q 318 686 287 612 q 408 797 350 759 q 543 835 466 835 q 678 797 620 835 q 768 686 736 759 q 799 505 799 612 m 297 1132 l 444 1132 q 466 1193 443 1166 q 542 1220 488 1220 q 617 1193 594 1220 q 640 1132 640 1166 l 786 1132 q 720 1279 786 1222 q 542 1337 654 1337 q 363 1279 429 1337 q 297 1132 297 1222 "},"Ȫ":{"ha":1086,"x_min":70,"x_max":1016,"o":"m 1016 505 q 954 786 1016 670 q 784 963 891 902 q 543 1024 677 1024 q 301 963 408 1024 q 132 786 194 902 q 70 505 70 670 q 132 224 70 340 q 301 47 194 109 q 543 -14 408 -14 q 784 47 677 -14 q 954 224 891 108 q 1016 505 1016 340 m 799 505 q 768 325 799 398 q 678 213 736 251 q 543 175 620 175 q 408 213 466 175 q 318 325 350 251 q 287 505 287 398 q 318 686 287 612 q 408 797 350 759 q 543 835 466 835 q 678 797 620 835 q 768 686 736 759 q 799 505 799 612 m 393 1114 q 465 1144 436 1114 q 495 1214 495 1173 q 465 1285 495 1256 q 393 1314 436 1314 q 320 1285 350 1314 q 289 1214 289 1256 q 320 1144 289 1173 q 393 1114 350 1114 m 694 1114 q 767 1144 737 1114 q 797 1214 797 1173 q 767 1285 797 1256 q 694 1314 737 1314 q 621 1285 652 1314 q 591 1214 591 1256 q 621 1144 591 1173 q 694 1114 652 1114 m 783 1515 l 303 1515 l 303 1401 l 783 1401 l 783 1515 "},"Ȭ":{"ha":1086,"x_min":70,"x_max":1016,"o":"m 1016 505 q 954 786 1016 670 q 784 963 891 902 q 543 1024 677 1024 q 301 963 408 1024 q 132 786 194 902 q 70 505 70 670 q 132 224 70 340 q 301 47 194 109 q 543 -14 408 -14 q 784 47 677 -14 q 954 224 891 108 q 1016 505 1016 340 m 799 505 q 768 325 799 398 q 678 213 736 251 q 543 175 620 175 q 408 213 466 175 q 318 325 350 251 q 287 505 287 398 q 318 686 287 612 q 408 797 350 759 q 543 835 466 835 q 678 797 620 835 q 768 686 736 759 q 799 505 799 612 m 663 1268 q 648 1227 662 1244 q 616 1211 634 1211 q 561 1222 587 1211 q 509 1244 535 1233 q 452 1256 482 1256 q 370 1218 401 1256 q 339 1131 339 1180 l 424 1108 q 437 1149 424 1131 q 470 1166 450 1166 q 523 1155 500 1166 q 571 1132 545 1144 q 633 1121 596 1121 q 716 1158 684 1121 q 749 1244 749 1196 l 663 1268 m 784 1449 l 302 1449 l 302 1334 l 784 1334 l 784 1449 "},"Ȯ":{"ha":1086,"x_min":70,"x_max":1016,"o":"m 1016 505 q 954 786 1016 670 q 784 963 891 902 q 543 1024 677 1024 q 301 963 408 1024 q 132 786 194 902 q 70 505 70 670 q 132 224 70 340 q 301 47 194 109 q 543 -14 408 -14 q 784 47 677 -14 q 954 224 891 108 q 1016 505 1016 340 m 799 505 q 768 325 799 398 q 678 213 736 251 q 543 175 620 175 q 408 213 466 175 q 318 325 350 251 q 287 505 287 398 q 318 686 287 612 q 408 797 350 759 q 543 835 466 835 q 678 797 620 835 q 768 686 736 759 q 799 505 799 612 m 543 1108 q 623 1139 590 1108 q 656 1214 656 1170 q 623 1289 656 1258 q 543 1320 590 1320 q 463 1289 496 1320 q 429 1214 429 1258 q 463 1139 429 1170 q 543 1108 496 1108 "},"Ȱ":{"ha":1086,"x_min":70,"x_max":1016,"o":"m 1016 505 q 954 786 1016 670 q 784 963 891 902 q 543 1024 677 1024 q 301 963 408 1024 q 132 786 194 902 q 70 505 70 670 q 132 224 70 340 q 301 47 194 109 q 543 -14 408 -14 q 784 47 677 -14 q 954 224 891 108 q 1016 505 1016 340 m 799 505 q 768 325 799 398 q 678 213 736 251 q 543 175 620 175 q 408 213 466 175 q 318 325 350 251 q 287 505 287 398 q 318 686 287 612 q 408 797 350 759 q 543 835 466 835 q 678 797 620 835 q 768 686 736 759 q 799 505 799 612 m 544 1114 q 618 1143 587 1114 q 649 1214 649 1173 q 618 1285 649 1256 q 544 1314 587 1314 q 469 1285 500 1314 q 438 1214 438 1256 q 469 1143 438 1173 q 544 1114 500 1114 m 783 1515 l 303 1515 l 303 1401 l 783 1401 l 783 1515 "},"Ṍ":{"ha":1086,"x_min":70,"x_max":1016,"o":"m 1016 505 q 954 786 1016 670 q 784 963 891 902 q 543 1024 677 1024 q 301 963 408 1024 q 132 786 194 902 q 70 505 70 670 q 132 224 70 340 q 301 47 194 109 q 543 -14 408 -14 q 784 47 677 -14 q 954 224 891 108 q 1016 505 1016 340 m 799 505 q 768 325 799 398 q 678 213 736 251 q 543 175 620 175 q 408 213 466 175 q 318 325 350 251 q 287 505 287 398 q 318 686 287 612 q 408 797 350 759 q 543 835 466 835 q 678 797 620 835 q 768 686 736 759 q 799 505 799 612 m 452 1330 l 603 1330 l 776 1504 l 588 1504 l 452 1330 m 407 1095 q 422 1146 407 1127 q 462 1165 437 1165 q 501 1155 484 1165 q 536 1131 518 1144 q 577 1107 553 1117 q 637 1097 601 1096 q 745 1144 701 1097 q 790 1277 790 1191 l 681 1280 q 666 1229 680 1249 q 624 1209 652 1209 q 586 1220 604 1209 q 549 1244 568 1230 q 506 1268 530 1257 q 449 1277 482 1278 q 340 1231 385 1277 q 295 1097 295 1184 l 407 1095 "},"Ṏ":{"ha":1086,"x_min":70,"x_max":1016,"o":"m 1016 505 q 954 786 1016 670 q 784 963 891 902 q 543 1024 677 1024 q 301 963 408 1024 q 132 786 194 902 q 70 505 70 670 q 132 224 70 340 q 301 47 194 109 q 543 -14 408 -14 q 784 47 677 -14 q 954 224 891 108 q 1016 505 1016 340 m 799 505 q 768 325 799 398 q 678 213 736 251 q 543 175 620 175 q 408 213 466 175 q 318 325 350 251 q 287 505 287 398 q 318 686 287 612 q 408 797 350 759 q 543 835 466 835 q 678 797 620 835 q 768 686 736 759 q 799 505 799 612 m 661 1256 q 648 1216 661 1233 q 616 1199 634 1199 q 561 1210 587 1199 q 508 1233 535 1221 q 452 1244 482 1244 q 370 1206 401 1244 q 339 1120 339 1168 l 424 1096 q 437 1137 424 1120 q 470 1155 450 1155 q 522 1143 499 1155 q 571 1121 545 1132 q 633 1109 596 1109 q 715 1146 683 1109 q 748 1232 748 1183 l 661 1256 m 297 1378 q 323 1321 296 1344 q 391 1299 349 1299 q 460 1321 434 1299 q 487 1378 487 1344 q 460 1435 487 1412 q 391 1458 433 1458 q 322 1435 348 1458 q 297 1378 296 1411 m 598 1377 q 624 1320 598 1343 q 693 1298 650 1298 q 762 1321 736 1298 q 788 1378 788 1344 q 762 1435 788 1411 q 693 1458 735 1458 q 624 1435 650 1458 q 598 1377 598 1411 "},"Ṑ":{"ha":1086,"x_min":70,"x_max":1016,"o":"m 1016 505 q 954 786 1016 670 q 784 963 891 902 q 543 1024 677 1024 q 301 963 408 1024 q 132 786 194 902 q 70 505 70 670 q 132 224 70 340 q 301 47 194 109 q 543 -14 408 -14 q 784 47 677 -14 q 954 224 891 108 q 1016 505 1016 340 m 799 505 q 768 325 799 398 q 678 213 736 251 q 543 175 620 175 q 408 213 466 175 q 318 325 350 251 q 287 505 287 398 q 318 686 287 612 q 408 797 350 759 q 543 835 466 835 q 678 797 620 835 q 768 686 736 759 q 799 505 799 612 m 473 1323 l 631 1323 l 494 1497 l 304 1497 l 473 1323 m 783 1240 l 303 1240 l 303 1126 l 783 1126 l 783 1240 "},"Ṓ":{"ha":1086,"x_min":70,"x_max":1016,"o":"m 1016 505 q 954 786 1016 670 q 784 963 891 902 q 543 1024 677 1024 q 301 963 408 1024 q 132 786 194 902 q 70 505 70 670 q 132 224 70 340 q 301 47 194 109 q 543 -14 408 -14 q 784 47 677 -14 q 954 224 891 108 q 1016 505 1016 340 m 799 505 q 768 325 799 398 q 678 213 736 251 q 543 175 620 175 q 408 213 466 175 q 318 325 350 251 q 287 505 287 398 q 318 686 287 612 q 408 797 350 759 q 543 835 466 835 q 678 797 620 835 q 768 686 736 759 q 799 505 799 612 m 455 1323 l 613 1323 l 783 1497 l 593 1497 l 455 1323 m 783 1240 l 303 1240 l 303 1126 l 783 1126 l 783 1240 "},"Ọ":{"ha":1086,"x_min":70,"x_max":1016,"o":"m 1016 505 q 954 786 1016 670 q 784 963 891 902 q 543 1024 677 1024 q 301 963 408 1024 q 132 786 194 902 q 70 505 70 670 q 132 224 70 340 q 301 47 194 109 q 543 -14 408 -14 q 784 47 677 -14 q 954 224 891 108 q 1016 505 1016 340 m 799 505 q 768 325 799 398 q 678 213 736 251 q 543 175 620 175 q 408 213 466 175 q 318 325 350 251 q 287 505 287 398 q 318 686 287 612 q 408 797 350 759 q 543 835 466 835 q 678 797 620 835 q 768 686 736 759 q 799 505 799 612 m 543 -284 q 623 -253 590 -284 q 656 -178 656 -221 q 623 -103 656 -134 q 543 -72 590 -72 q 463 -103 496 -72 q 429 -178 429 -134 q 463 -253 429 -221 q 543 -284 496 -284 "},"Ỏ":{"ha":1086,"x_min":70,"x_max":1016,"o":"m 1016 505 q 954 786 1016 670 q 784 963 891 902 q 543 1024 677 1024 q 301 963 408 1024 q 132 786 194 902 q 70 505 70 670 q 132 224 70 340 q 301 47 194 109 q 543 -14 408 -14 q 784 47 677 -14 q 954 224 891 108 q 1016 505 1016 340 m 799 505 q 768 325 799 398 q 678 213 736 251 q 543 175 620 175 q 408 213 466 175 q 318 325 350 251 q 287 505 287 398 q 318 686 287 612 q 408 797 350 759 q 543 835 466 835 q 678 797 620 835 q 768 686 736 759 q 799 505 799 612 m 620 1119 l 620 1162 q 693 1191 660 1168 q 726 1259 726 1214 q 657 1357 726 1322 q 457 1393 588 1393 l 451 1298 q 522 1288 494 1298 q 550 1252 550 1279 q 528 1221 550 1233 q 454 1207 506 1210 l 465 1119 l 620 1119 "},"Ố":{"ha":1086,"x_min":70,"x_max":1025,"o":"m 1016 505 q 954 786 1016 670 q 784 963 891 902 q 543 1024 677 1024 q 301 963 408 1024 q 132 786 194 902 q 70 505 70 670 q 132 224 70 340 q 301 47 194 109 q 543 -14 408 -14 q 784 47 677 -14 q 954 224 891 108 q 1016 505 1016 340 m 799 505 q 768 325 799 398 q 678 213 736 251 q 543 175 620 175 q 408 213 466 175 q 318 325 350 251 q 287 505 287 398 q 318 686 287 612 q 408 797 350 759 q 543 835 466 835 q 678 797 620 835 q 768 686 736 759 q 799 505 799 612 m 286 1093 l 437 1093 l 543 1176 l 647 1093 l 798 1093 l 598 1246 l 485 1246 l 286 1093 m 746 1180 l 865 1180 l 1024 1365 l 862 1365 l 746 1180 "},"Ồ":{"ha":1086,"x_min":61,"x_max":1016,"o":"m 1016 505 q 954 786 1016 670 q 784 963 891 902 q 543 1024 677 1024 q 301 963 408 1024 q 132 786 194 902 q 70 505 70 670 q 132 224 70 340 q 301 47 194 109 q 543 -14 408 -14 q 784 47 677 -14 q 954 224 891 108 q 1016 505 1016 340 m 799 505 q 768 325 799 398 q 678 213 736 251 q 543 175 620 175 q 408 213 466 175 q 318 325 350 251 q 287 505 287 398 q 318 686 287 612 q 408 797 350 759 q 543 835 466 835 q 678 797 620 835 q 768 686 736 759 q 799 505 799 612 m 598 1243 l 485 1243 l 287 1090 l 437 1090 l 543 1173 l 647 1090 l 799 1090 l 598 1243 m 222 1361 l 61 1361 l 221 1177 l 338 1177 l 222 1361 "},"Ổ":{"ha":1086,"x_min":70,"x_max":1016,"o":"m 1016 505 q 954 786 1016 670 q 784 963 891 902 q 543 1024 677 1024 q 301 963 408 1024 q 132 786 194 902 q 70 505 70 670 q 132 224 70 340 q 301 47 194 109 q 543 -14 408 -14 q 784 47 677 -14 q 954 224 891 108 q 1016 505 1016 340 m 799 505 q 768 325 799 398 q 678 213 736 251 q 543 175 620 175 q 408 213 466 175 q 318 325 350 251 q 287 505 287 398 q 318 686 287 612 q 408 797 350 759 q 543 835 466 835 q 678 797 620 835 q 768 686 736 759 q 799 505 799 612 m 602 1241 l 481 1241 l 287 1088 l 431 1088 l 542 1174 l 652 1088 l 796 1088 l 602 1241 m 841 1174 l 841 1209 q 902 1234 874 1215 q 930 1291 930 1254 q 877 1373 930 1344 q 724 1403 824 1403 l 719 1323 q 779 1315 755 1323 q 803 1285 803 1308 q 784 1259 803 1268 q 723 1248 765 1250 l 732 1174 l 841 1174 "},"Ỗ":{"ha":1086,"x_min":70,"x_max":1016,"o":"m 1016 505 q 954 786 1016 670 q 784 963 891 902 q 543 1024 677 1024 q 301 963 408 1024 q 132 786 194 902 q 70 505 70 670 q 132 224 70 340 q 301 47 194 109 q 543 -14 408 -14 q 784 47 677 -14 q 954 224 891 108 q 1016 505 1016 340 m 799 505 q 768 325 799 398 q 678 213 736 251 q 543 175 620 175 q 408 213 466 175 q 318 325 350 251 q 287 505 287 398 q 318 686 287 612 q 408 797 350 759 q 543 835 466 835 q 678 797 620 835 q 768 686 736 759 q 799 505 799 612 m 599 1237 l 487 1237 l 287 1086 l 434 1086 l 542 1168 l 653 1086 l 798 1086 l 599 1237 m 651 1405 q 640 1369 650 1386 q 616 1352 631 1352 q 580 1359 598 1352 q 543 1373 561 1365 q 505 1388 524 1381 q 468 1394 487 1394 q 400 1361 425 1394 q 375 1289 375 1328 l 446 1270 q 455 1302 446 1288 q 482 1316 465 1316 q 517 1310 501 1316 q 551 1295 534 1304 q 587 1279 568 1286 q 630 1273 607 1273 q 698 1306 672 1273 q 724 1380 723 1340 l 651 1405 "},"Ộ":{"ha":1086,"x_min":70,"x_max":1016,"o":"m 1016 505 q 954 786 1016 670 q 784 963 891 902 q 543 1024 677 1024 q 301 963 408 1024 q 132 786 194 902 q 70 505 70 670 q 132 224 70 340 q 301 47 194 109 q 543 -14 408 -14 q 784 47 677 -14 q 954 224 891 108 q 1016 505 1016 340 m 799 505 q 768 325 799 398 q 678 213 736 251 q 543 175 620 175 q 408 213 466 175 q 318 325 350 251 q 287 505 287 398 q 318 686 287 612 q 408 797 350 759 q 543 835 466 835 q 678 797 620 835 q 768 686 736 759 q 799 505 799 612 m 642 1101 l 821 1101 l 821 1108 l 621 1325 l 465 1325 l 265 1108 l 265 1101 l 444 1101 l 543 1221 l 642 1101 m 543 -284 q 623 -253 590 -284 q 656 -178 656 -221 q 623 -103 656 -134 q 543 -72 590 -72 q 463 -103 496 -72 q 429 -178 429 -134 q 463 -253 429 -221 q 543 -284 496 -284 "},"Ớ":{"ha":1129,"x_min":70,"x_max":1112,"o":"m 977 1059 q 950 916 977 968 q 851 865 923 865 l 851 757 q 1050 836 987 757 q 1112 1059 1112 915 l 977 1059 m 1016 505 q 954 786 1016 670 q 784 963 891 902 q 543 1024 677 1024 q 301 963 408 1024 q 132 786 194 902 q 70 505 70 670 q 132 224 70 340 q 301 47 194 109 q 543 -14 408 -14 q 784 47 677 -14 q 954 224 891 108 q 1016 505 1016 340 m 799 505 q 768 325 799 398 q 678 213 736 251 q 543 175 620 175 q 408 213 466 175 q 318 325 350 251 q 287 505 287 398 q 318 686 287 612 q 408 797 350 759 q 543 835 466 835 q 678 797 620 835 q 768 686 736 759 q 799 505 799 612 m 468 1108 l 616 1108 l 766 1332 l 572 1332 l 468 1108 "},"Ờ":{"ha":1129,"x_min":70,"x_max":1112,"o":"m 977 1059 q 950 916 977 968 q 851 865 923 865 l 851 757 q 1050 836 987 757 q 1112 1059 1112 915 l 977 1059 m 1016 505 q 954 786 1016 670 q 784 963 891 902 q 543 1024 677 1024 q 301 963 408 1024 q 132 786 194 902 q 70 505 70 670 q 132 224 70 340 q 301 47 194 109 q 543 -14 408 -14 q 784 47 677 -14 q 954 224 891 108 q 1016 505 1016 340 m 799 505 q 768 325 799 398 q 678 213 736 251 q 543 175 620 175 q 408 213 466 175 q 318 325 350 251 q 287 505 287 398 q 318 686 287 612 q 408 797 350 759 q 543 835 466 835 q 678 797 620 835 q 768 686 736 759 q 799 505 799 612 m 470 1108 l 618 1108 l 513 1332 l 320 1332 l 470 1108 "},"Ở":{"ha":1129,"x_min":70,"x_max":1112,"o":"m 977 1059 q 950 916 977 968 q 851 865 923 865 l 851 757 q 1050 836 987 757 q 1112 1059 1112 915 l 977 1059 m 1016 505 q 954 786 1016 670 q 784 963 891 902 q 543 1024 677 1024 q 301 963 408 1024 q 132 786 194 902 q 70 505 70 670 q 132 224 70 340 q 301 47 194 109 q 543 -14 408 -14 q 784 47 677 -14 q 954 224 891 108 q 1016 505 1016 340 m 799 505 q 768 325 799 398 q 678 213 736 251 q 543 175 620 175 q 408 213 466 175 q 318 325 350 251 q 287 505 287 398 q 318 686 287 612 q 408 797 350 759 q 543 835 466 835 q 678 797 620 835 q 768 686 736 759 q 799 505 799 612 m 620 1119 l 620 1162 q 693 1191 660 1168 q 726 1259 726 1214 q 657 1357 726 1322 q 457 1393 588 1393 l 451 1298 q 522 1288 494 1298 q 550 1252 550 1279 q 528 1221 550 1233 q 454 1207 506 1210 l 465 1119 l 620 1119 "},"Ỡ":{"ha":1129,"x_min":70,"x_max":1112,"o":"m 977 1059 q 950 916 977 968 q 851 865 923 865 l 851 757 q 1050 836 987 757 q 1112 1059 1112 915 l 977 1059 m 1016 505 q 954 786 1016 670 q 784 963 891 902 q 543 1024 677 1024 q 301 963 408 1024 q 132 786 194 902 q 70 505 70 670 q 132 224 70 340 q 301 47 194 109 q 543 -14 408 -14 q 784 47 677 -14 q 954 224 891 108 q 1016 505 1016 340 m 799 505 q 768 325 799 398 q 678 213 736 251 q 543 175 620 175 q 408 213 466 175 q 318 325 350 251 q 287 505 287 398 q 318 686 287 612 q 408 797 350 759 q 543 835 466 835 q 678 797 620 835 q 768 686 736 759 q 799 505 799 612 m 402 1103 q 418 1158 402 1138 q 459 1178 433 1178 q 499 1167 481 1178 q 535 1141 516 1156 q 579 1115 554 1126 q 641 1104 604 1104 q 754 1155 707 1105 q 801 1299 800 1206 l 686 1303 q 671 1248 686 1269 q 627 1226 656 1227 q 588 1237 606 1226 q 550 1263 570 1248 q 505 1289 530 1278 q 445 1300 480 1300 q 332 1249 378 1300 q 285 1105 285 1199 l 402 1103 "},"Ợ":{"ha":1129,"x_min":70,"x_max":1112,"o":"m 977 1059 q 950 916 977 968 q 851 865 923 865 l 851 757 q 1050 836 987 757 q 1112 1059 1112 915 l 977 1059 m 1016 505 q 954 786 1016 670 q 784 963 891 902 q 543 1024 677 1024 q 301 963 408 1024 q 132 786 194 902 q 70 505 70 670 q 132 224 70 340 q 301 47 194 109 q 543 -14 408 -14 q 784 47 677 -14 q 954 224 891 108 q 1016 505 1016 340 m 799 505 q 768 325 799 398 q 678 213 736 251 q 543 175 620 175 q 408 213 466 175 q 318 325 350 251 q 287 505 287 398 q 318 686 287 612 q 408 797 350 759 q 543 835 466 835 q 678 797 620 835 q 768 686 736 759 q 799 505 799 612 m 543 -284 q 623 -253 590 -284 q 656 -178 656 -221 q 623 -103 656 -134 q 543 -72 590 -72 q 463 -103 496 -72 q 429 -178 429 -134 q 463 -253 429 -221 q 543 -284 496 -284 "},"Ǿ":{"ha":1086,"x_min":70,"x_max":1016,"o":"m 228 -48 l 952 991 l 856 1056 l 132 17 l 228 -48 m 1016 505 q 954 786 1016 670 q 784 963 891 902 q 543 1024 677 1024 q 301 963 408 1024 q 132 786 194 902 q 70 505 70 670 q 132 224 70 340 q 301 47 194 109 q 543 -14 408 -14 q 784 47 677 -14 q 954 224 891 108 q 1016 505 1016 340 m 799 505 q 768 325 799 398 q 678 213 736 251 q 543 175 620 175 q 408 213 466 175 q 318 325 350 251 q 287 505 287 398 q 318 686 287 612 q 408 797 350 759 q 543 835 466 835 q 678 797 620 835 q 768 686 736 759 q 799 505 799 612 m 468 1108 l 616 1108 l 766 1332 l 572 1332 l 468 1108 "},"Ο":{"ha":1086,"x_min":70,"x_max":1016,"o":"m 1016 505 q 954 786 1016 670 q 784 963 891 902 q 543 1024 677 1024 q 301 963 408 1024 q 132 786 194 902 q 70 505 70 670 q 132 224 70 340 q 301 47 194 109 q 543 -14 408 -14 q 784 47 677 -14 q 954 224 891 108 q 1016 505 1016 340 m 799 505 q 768 325 799 398 q 678 213 736 251 q 543 175 620 175 q 408 213 466 175 q 318 325 350 251 q 287 505 287 398 q 318 686 287 612 q 408 797 350 759 q 543 835 466 835 q 678 797 620 835 q 768 686 736 759 q 799 505 799 612 "},"Ό":{"ha":1117,"x_min":-15,"x_max":1082,"o":"m 1082 505 q 1019 786 1082 670 q 850 963 957 902 q 609 1024 742 1024 q 367 963 474 1024 q 198 786 260 902 q 136 505 136 670 q 198 224 136 340 q 367 47 260 109 q 609 -14 474 -14 q 850 47 742 -14 q 1019 224 957 108 q 1082 505 1082 340 m 865 505 q 833 325 865 398 q 744 213 801 251 q 609 175 686 175 q 473 213 531 175 q 384 325 416 251 q 352 505 352 398 q 384 686 352 612 q 473 797 416 759 q 609 835 531 835 q 744 797 686 835 q 833 686 801 759 q 865 505 865 612 m -15 848 l 109 848 l 225 1083 l 37 1083 l -15 848 "},"Ὀ":{"ha":1136,"x_min":-14,"x_max":1100,"o":"m 1100 505 q 1038 786 1100 670 q 868 963 976 902 q 627 1024 761 1024 q 386 963 493 1024 q 217 786 279 902 q 154 505 154 670 q 217 224 154 340 q 386 47 279 109 q 627 -14 493 -14 q 868 47 761 -14 q 1038 224 976 108 q 1100 505 1100 340 m 884 505 q 852 325 884 398 q 763 213 820 251 q 627 175 705 175 q 492 213 550 175 q 403 325 435 251 q 371 505 371 398 q 403 686 371 612 q 492 797 435 759 q 627 835 550 835 q 763 797 705 835 q 852 686 820 759 q 884 505 884 612 m 159 1010 l 40 1010 l 40 949 q 36 900 40 923 q 19 860 31 878 q -14 827 7 841 l 44 765 q 103 807 77 781 q 144 868 129 833 q 159 945 159 903 l 159 1010 "},"Ὁ":{"ha":1182,"x_min":55,"x_max":1147,"o":"m 1147 505 q 1084 786 1147 670 q 915 963 1022 902 q 674 1024 807 1024 q 432 963 539 1024 q 263 786 325 902 q 201 505 201 670 q 263 224 201 340 q 432 47 325 109 q 674 -14 539 -14 q 915 47 807 -14 q 1084 224 1022 108 q 1147 505 1147 340 m 930 505 q 898 325 930 398 q 809 213 867 251 q 674 175 751 175 q 539 213 596 175 q 449 325 481 251 q 417 505 417 398 q 449 686 417 612 q 539 797 481 759 q 674 835 596 835 q 809 797 751 835 q 898 686 867 759 q 930 505 930 612 m 55 945 q 89 836 56 882 q 170 765 121 789 l 228 827 q 196 861 207 842 q 180 903 184 881 q 175 949 176 926 l 175 1010 l 55 1010 l 55 945 "},"Ὂ":{"ha":1383,"x_min":-10,"x_max":1348,"o":"m 1348 505 q 1286 786 1348 670 q 1116 963 1223 902 q 875 1024 1009 1024 q 633 963 740 1024 q 464 786 526 902 q 402 505 402 670 q 464 224 402 340 q 633 47 526 109 q 875 -14 740 -14 q 1116 47 1009 -14 q 1286 224 1223 108 q 1348 505 1348 340 m 1131 505 q 1100 325 1131 398 q 1010 213 1068 251 q 875 175 952 175 q 740 213 798 175 q 650 325 682 251 q 618 505 618 398 q 650 686 618 612 q 740 797 682 759 q 875 835 798 835 q 1010 797 952 835 q 1100 686 1068 759 q 1131 505 1131 612 m 431 793 l 352 1012 l 205 1012 l 205 998 l 365 783 l 431 783 l 431 793 m 174 1012 l 46 1012 l 46 960 q 32 876 47 912 q -10 808 18 839 l 44 767 q 114 818 85 789 q 158 882 143 847 q 174 956 174 917 l 174 1012 "},"Ὃ":{"ha":1335,"x_min":-21,"x_max":1299,"o":"m 1299 505 q 1237 786 1299 670 q 1067 963 1174 902 q 826 1024 960 1024 q 584 963 691 1024 q 415 786 477 902 q 353 505 353 670 q 415 224 353 340 q 584 47 477 109 q 826 -14 691 -14 q 1067 47 960 -14 q 1237 224 1174 108 q 1299 505 1299 340 m 1083 505 q 1051 325 1083 398 q 961 213 1019 251 q 826 175 904 175 q 691 213 749 175 q 601 325 633 251 q 570 505 570 398 q 601 686 570 612 q 691 797 633 759 q 826 835 749 835 q 961 797 904 835 q 1051 686 1019 759 q 1083 505 1083 612 m 382 796 l 304 1010 l 156 1010 l 156 996 l 316 780 l 382 780 l 382 796 m -20 945 q 12 836 -21 882 q 97 765 45 789 l 155 827 q 111 882 121 849 q 101 949 101 914 l 101 1010 l -20 1010 l -20 945 "},"Ὄ":{"ha":1284,"x_min":-8,"x_max":1249,"o":"m 1249 505 q 1186 786 1249 670 q 1017 963 1124 902 q 776 1024 909 1024 q 534 963 641 1024 q 365 786 427 902 q 303 505 303 670 q 365 224 303 340 q 534 47 427 109 q 776 -14 641 -14 q 1017 47 909 -14 q 1186 224 1124 108 q 1249 505 1249 340 m 1032 505 q 1000 325 1032 398 q 911 213 969 251 q 776 175 853 175 q 641 213 698 175 q 551 325 583 251 q 519 505 519 398 q 551 686 519 612 q 641 797 583 759 q 776 835 698 835 q 911 797 853 835 q 1000 686 969 759 q 1032 505 1032 612 m 187 780 l 253 780 l 414 996 l 414 1010 l 267 1010 l 187 796 l 187 780 m 167 1010 l 46 1010 l 46 949 q 35 882 46 914 q -8 827 25 849 l 50 765 q 110 808 84 781 q 152 869 137 834 q 167 945 167 904 l 167 1010 "},"Ὅ":{"ha":1300,"x_min":-9,"x_max":1265,"o":"m 1265 505 q 1202 786 1265 670 q 1033 963 1140 902 q 792 1024 925 1024 q 550 963 657 1024 q 381 786 443 902 q 319 505 319 670 q 381 224 319 340 q 550 47 443 109 q 792 -14 657 -14 q 1033 47 925 -14 q 1202 224 1140 108 q 1265 505 1265 340 m 1048 505 q 1016 325 1048 398 q 927 213 984 251 q 792 175 869 175 q 656 213 714 175 q 567 325 599 251 q 535 505 535 398 q 567 686 535 612 q 656 797 599 759 q 792 835 714 835 q 927 797 869 835 q 1016 686 984 759 q 1048 505 1048 612 m 202 780 l 265 780 l 427 996 l 427 1010 l 279 1010 l 202 796 l 202 780 m 106 765 l 164 827 q 122 879 134 848 q 111 949 111 909 l 111 1010 l -9 1010 l -9 945 q 25 834 -9 880 q 106 765 58 788 "},"Ὸ":{"ha":1172,"x_min":-10,"x_max":1137,"o":"m 1137 505 q 1074 786 1137 670 q 905 963 1012 902 q 664 1024 798 1024 q 422 963 529 1024 q 253 786 315 902 q 191 505 191 670 q 253 224 191 340 q 422 47 315 109 q 664 -14 529 -14 q 905 47 798 -14 q 1074 224 1012 108 q 1137 505 1137 340 m 920 505 q 889 325 920 398 q 799 213 857 251 q 664 175 741 175 q 529 213 586 175 q 439 325 471 251 q 407 505 407 398 q 439 686 407 612 q 529 797 471 759 q 664 835 586 835 q 799 797 741 835 q 889 686 857 759 q 920 505 920 612 m 150 779 l 214 779 l 214 798 l 137 1010 l -10 1010 l -10 996 l 150 779 "},"ϴ":{"ha":1086,"x_min":70,"x_max":1016,"o":"m 868 574 l 218 574 l 218 436 l 868 436 l 868 574 m 1016 505 q 954 786 1016 670 q 784 963 891 902 q 543 1024 677 1024 q 301 963 408 1024 q 132 786 194 902 q 70 505 70 670 q 132 224 70 340 q 301 47 194 109 q 543 -14 408 -14 q 784 47 677 -14 q 954 224 891 108 q 1016 505 1016 340 m 799 505 q 768 325 799 398 q 678 213 736 251 q 543 175 620 175 q 408 213 466 175 q 318 325 350 251 q 287 505 287 398 q 318 686 287 612 q 408 797 350 759 q 543 835 466 835 q 678 797 620 835 q 768 686 736 759 q 799 505 799 612 "},"Ό":{"ha":1084,"x_min":34,"x_max":1049,"o":"m 1049 505 q 986 786 1049 670 q 817 963 924 902 q 576 1024 709 1024 q 334 963 441 1024 q 165 786 227 902 q 103 505 103 670 q 165 224 103 340 q 334 47 227 109 q 576 -14 441 -14 q 817 47 709 -14 q 986 224 924 108 q 1049 505 1049 340 m 832 505 q 800 325 832 398 q 711 213 768 251 q 576 175 653 175 q 440 213 498 175 q 351 325 383 251 q 319 505 319 398 q 351 686 319 612 q 440 797 383 759 q 576 835 498 835 q 711 797 653 835 q 800 686 768 759 q 832 505 832 612 m 34 852 l 138 852 l 298 1069 l 298 1083 l 110 1083 l 34 871 l 34 852 "},"О":{"ha":1086,"x_min":70,"x_max":1016,"o":"m 1016 505 q 954 786 1016 670 q 784 963 891 902 q 543 1024 677 1024 q 301 963 408 1024 q 132 786 194 902 q 70 505 70 670 q 132 224 70 340 q 301 47 194 109 q 543 -14 408 -14 q 784 47 677 -14 q 954 224 891 108 q 1016 505 1016 340 m 799 505 q 768 325 799 398 q 678 213 736 251 q 543 175 620 175 q 408 213 466 175 q 318 325 350 251 q 287 505 287 398 q 318 686 287 612 q 408 797 350 759 q 543 835 466 835 q 678 797 620 835 q 768 686 736 759 q 799 505 799 612 "},"Ӧ":{"ha":1086,"x_min":70,"x_max":1016,"o":"m 1016 505 q 954 786 1016 670 q 784 963 891 902 q 543 1024 677 1024 q 301 963 408 1024 q 132 786 194 902 q 70 505 70 670 q 132 224 70 340 q 301 47 194 109 q 543 -14 408 -14 q 784 47 677 -14 q 954 224 891 108 q 1016 505 1016 340 m 799 505 q 768 325 799 398 q 678 213 736 251 q 543 175 620 175 q 408 213 466 175 q 318 325 350 251 q 287 505 287 398 q 318 686 287 612 q 408 797 350 759 q 543 835 466 835 q 678 797 620 835 q 768 686 736 759 q 799 505 799 612 m 393 1114 q 465 1144 436 1114 q 495 1214 495 1173 q 465 1285 495 1256 q 393 1314 436 1314 q 320 1285 350 1314 q 289 1214 289 1256 q 320 1144 289 1173 q 393 1114 350 1114 m 694 1114 q 767 1144 737 1114 q 797 1214 797 1173 q 767 1285 797 1256 q 694 1314 737 1314 q 621 1285 652 1314 q 591 1214 591 1256 q 621 1144 591 1173 q 694 1114 652 1114 "},"Ɵ":{"ha":1086,"x_min":70,"x_max":1016,"o":"m 1016 505 q 954 786 1016 670 q 784 963 891 902 q 543 1024 677 1024 q 301 963 408 1024 q 132 786 194 902 q 70 505 70 670 q 132 224 70 340 q 301 47 194 109 q 543 -14 408 -14 q 784 47 677 -14 q 954 224 891 108 q 1016 505 1016 340 m 799 505 q 768 325 799 398 q 678 213 736 251 q 543 175 620 175 q 408 213 466 175 q 318 325 350 251 q 287 505 287 398 q 318 686 287 612 q 408 797 350 759 q 543 835 466 835 q 678 797 620 835 q 768 686 736 759 q 799 505 799 612 m 868 574 l 218 574 l 218 436 l 868 436 l 868 574 "},"Ө":{"ha":1086,"x_min":70,"x_max":1016,"o":"m 1016 505 q 954 786 1016 670 q 784 963 891 902 q 543 1024 677 1024 q 301 963 408 1024 q 132 786 194 902 q 70 505 70 670 q 132 224 70 340 q 301 47 194 109 q 543 -14 408 -14 q 784 47 677 -14 q 954 224 891 108 q 1016 505 1016 340 m 799 505 q 768 325 799 398 q 678 213 736 251 q 543 175 620 175 q 408 213 466 175 q 318 325 350 251 q 287 505 287 398 q 318 686 287 612 q 408 797 350 759 q 543 835 466 835 q 678 797 620 835 q 768 686 736 759 q 799 505 799 612 m 868 574 l 218 574 l 218 436 l 868 436 l 868 574 "},"Ӫ":{"ha":1086,"x_min":70,"x_max":1016,"o":"m 1016 505 q 954 786 1016 670 q 784 963 891 902 q 543 1024 677 1024 q 301 963 408 1024 q 132 786 194 902 q 70 505 70 670 q 132 224 70 340 q 301 47 194 109 q 543 -14 408 -14 q 784 47 677 -14 q 954 224 891 108 q 1016 505 1016 340 m 799 505 q 768 325 799 398 q 678 213 736 251 q 543 175 620 175 q 408 213 466 175 q 318 325 350 251 q 287 505 287 398 q 318 686 287 612 q 408 797 350 759 q 543 835 466 835 q 678 797 620 835 q 768 686 736 759 q 799 505 799 612 m 868 574 l 218 574 l 218 436 l 868 436 l 868 574 m 393 1114 q 465 1144 436 1114 q 495 1214 495 1173 q 465 1285 495 1256 q 393 1314 436 1314 q 320 1285 350 1314 q 289 1214 289 1256 q 320 1144 289 1173 q 393 1114 350 1114 m 694 1114 q 767 1144 737 1114 q 797 1214 797 1173 q 767 1285 797 1256 q 694 1314 737 1314 q 621 1285 652 1314 q 591 1214 591 1256 q 621 1144 591 1173 q 694 1114 652 1114 "},"Œ":{"ha":1414,"x_min":70,"x_max":1334,"o":"m 529 0 l 1334 0 l 1334 176 l 865 176 l 865 417 l 1297 417 l 1297 593 l 865 593 l 865 834 l 1332 834 l 1332 1010 l 529 1010 q 293 952 398 1010 q 130 781 189 894 q 70 504 70 668 q 130 228 70 340 q 293 58 189 116 q 529 0 398 0 m 651 176 l 529 176 q 402 210 457 176 q 315 317 347 245 q 284 504 284 390 q 315 691 284 618 q 402 799 347 764 q 529 834 457 834 l 651 834 l 651 176 "},"P":{"ha":900,"x_min":88,"x_max":848,"o":"m 88 0 l 301 0 l 301 836 l 445 836 q 548 815 508 836 q 608 756 588 794 q 628 668 628 718 q 608 580 628 618 q 548 520 588 542 q 446 499 508 499 l 227 499 l 227 327 l 481 327 q 679 370 597 327 q 805 490 762 413 q 848 668 848 567 q 806 846 848 768 q 682 966 763 923 q 486 1010 601 1010 l 88 1010 l 88 0 "},"Ṕ":{"ha":900,"x_min":88,"x_max":848,"o":"m 88 0 l 301 0 l 301 836 l 445 836 q 548 815 508 836 q 608 756 588 794 q 628 668 628 718 q 608 580 628 618 q 548 520 588 542 q 446 499 508 499 l 227 499 l 227 327 l 481 327 q 679 370 597 327 q 805 490 762 413 q 848 668 848 567 q 806 846 848 768 q 682 966 763 923 q 486 1010 601 1010 l 88 1010 l 88 0 m 368 1108 l 516 1108 l 667 1332 l 472 1332 l 368 1108 "},"Ṗ":{"ha":900,"x_min":88,"x_max":848,"o":"m 88 0 l 301 0 l 301 836 l 445 836 q 548 815 508 836 q 608 756 588 794 q 628 668 628 718 q 608 580 628 618 q 548 520 588 542 q 446 499 508 499 l 227 499 l 227 327 l 481 327 q 679 370 597 327 q 805 490 762 413 q 848 668 848 567 q 806 846 848 768 q 682 966 763 923 q 486 1010 601 1010 l 88 1010 l 88 0 m 444 1108 q 524 1139 491 1108 q 557 1214 557 1170 q 524 1289 557 1258 q 443 1320 491 1320 q 363 1289 397 1320 q 330 1214 330 1258 q 363 1139 330 1170 q 444 1108 397 1108 "},"Ҏ":{"ha":918,"x_min":93,"x_max":853,"o":"m 515 663 l 426 606 l 676 219 l 765 277 l 515 663 m 93 0 l 306 0 l 306 836 l 450 836 q 553 815 512 836 q 613 756 593 794 q 633 668 633 718 q 613 580 633 618 q 553 520 593 542 q 451 499 512 499 l 232 499 l 232 327 l 486 327 q 684 370 602 327 q 810 490 766 413 q 853 668 853 567 q 810 846 853 768 q 687 966 767 923 q 491 1010 606 1010 l 93 1010 l 93 0 "},"Ƥ":{"ha":1185,"x_min":49,"x_max":1134,"o":"m 240 651 l 240 709 q 247 769 239 740 q 276 817 254 798 q 339 836 298 836 l 374 836 l 374 0 l 587 0 l 587 327 l 766 327 q 965 370 883 327 q 1090 490 1047 413 q 1134 668 1134 567 q 1091 846 1134 768 q 968 966 1049 923 q 772 1010 887 1010 l 338 1010 q 184 978 249 1010 q 84 888 119 946 q 49 750 49 829 l 49 651 l 240 651 m 587 499 l 587 836 l 731 836 q 834 815 793 836 q 894 756 874 794 q 914 668 914 718 q 894 580 914 618 q 834 520 874 542 q 732 499 794 499 l 587 499 "},"Ρ":{"ha":900,"x_min":88,"x_max":848,"o":"m 88 0 l 301 0 l 301 836 l 445 836 q 548 815 508 836 q 608 756 588 794 q 628 668 628 718 q 608 580 628 618 q 548 520 588 542 q 446 499 508 499 l 227 499 l 227 327 l 481 327 q 679 370 597 327 q 805 490 762 413 q 848 668 848 567 q 806 846 848 768 q 682 966 763 923 q 486 1010 601 1010 l 88 1010 l 88 0 "},"Ῥ":{"ha":1114,"x_min":70,"x_max":1047,"o":"m 286 0 l 500 0 l 500 836 l 644 836 q 746 815 706 836 q 807 756 787 794 q 827 668 827 718 q 807 580 827 618 q 746 520 787 542 q 645 499 706 499 l 425 499 l 425 327 l 679 327 q 878 370 796 327 q 1003 490 960 413 q 1047 668 1047 567 q 1004 846 1047 768 q 880 966 961 923 q 685 1010 799 1010 l 286 1010 l 286 0 m 70 945 q 103 836 70 882 q 184 765 136 789 l 243 827 q 210 861 221 842 q 194 903 199 881 q 189 949 190 926 l 189 1010 l 70 1010 l 70 945 "},"Q":{"ha":1087,"x_min":70,"x_max":1016,"o":"m 469 351 l 625 145 l 685 60 l 801 -83 l 1001 -83 l 832 129 l 742 234 l 651 351 l 469 351 m 1016 505 q 954 786 1016 670 q 784 963 891 902 q 543 1024 677 1024 q 301 963 408 1024 q 132 786 194 902 q 70 505 70 670 q 132 224 70 340 q 301 47 194 109 q 543 -14 408 -14 q 784 47 677 -14 q 954 224 891 108 q 1016 505 1016 340 m 799 505 q 768 325 799 398 q 678 213 736 251 q 543 175 620 175 q 408 213 466 175 q 318 325 350 251 q 287 505 287 398 q 318 686 287 612 q 408 797 350 759 q 543 835 466 835 q 678 797 620 835 q 768 686 736 759 q 799 505 799 612 "},"R":{"ha":911,"x_min":88,"x_max":884,"o":"m 88 0 l 301 0 l 301 836 l 445 836 q 548 818 507 836 q 608 765 588 799 q 628 680 628 730 q 608 597 628 630 q 548 546 588 563 q 446 530 508 530 l 214 530 l 214 358 l 481 358 q 679 397 597 358 q 805 507 762 435 q 848 680 848 580 q 806 854 848 780 q 682 969 763 929 q 486 1010 601 1010 l 88 1010 l 88 0 m 633 460 l 403 460 l 649 0 l 884 0 l 633 460 "},"Ŕ":{"ha":911,"x_min":88,"x_max":884,"o":"m 88 0 l 301 0 l 301 836 l 445 836 q 548 818 507 836 q 608 765 588 799 q 628 680 628 730 q 608 597 628 630 q 548 546 588 563 q 446 530 508 530 l 214 530 l 214 358 l 481 358 q 679 397 597 358 q 805 507 762 435 q 848 680 848 580 q 806 854 848 780 q 682 969 763 929 q 486 1010 601 1010 l 88 1010 l 88 0 m 633 460 l 403 460 l 649 0 l 884 0 l 633 460 m 374 1108 l 523 1108 l 673 1332 l 479 1332 l 374 1108 "},"Ŗ":{"ha":911,"x_min":88,"x_max":884,"o":"m 88 0 l 301 0 l 301 836 l 445 836 q 548 818 507 836 q 608 765 588 799 q 628 680 628 730 q 608 597 628 630 q 548 546 588 563 q 446 530 508 530 l 214 530 l 214 358 l 481 358 q 679 397 597 358 q 805 507 762 435 q 848 680 848 580 q 806 854 848 780 q 682 969 763 929 q 486 1010 601 1010 l 88 1010 l 88 0 m 633 460 l 403 460 l 649 0 l 884 0 l 633 460 m 310 -324 l 457 -324 l 565 -80 l 371 -80 l 310 -324 "},"Ř":{"ha":911,"x_min":88,"x_max":884,"o":"m 88 0 l 301 0 l 301 836 l 445 836 q 548 818 507 836 q 608 765 588 799 q 628 680 628 730 q 608 597 628 630 q 548 546 588 563 q 446 530 508 530 l 214 530 l 214 358 l 481 358 q 679 397 597 358 q 805 507 762 435 q 848 680 848 580 q 806 854 848 780 q 682 969 763 929 q 486 1010 601 1010 l 88 1010 l 88 0 m 633 460 l 403 460 l 649 0 l 884 0 l 633 460 m 351 1325 l 172 1325 l 172 1318 l 371 1101 l 528 1101 l 728 1318 l 728 1325 l 549 1325 l 450 1204 l 351 1325 "},"Ȑ":{"ha":911,"x_min":88,"x_max":884,"o":"m 88 0 l 301 0 l 301 836 l 445 836 q 548 818 507 836 q 608 765 588 799 q 628 680 628 730 q 608 597 628 630 q 548 546 588 563 q 446 530 508 530 l 214 530 l 214 358 l 481 358 q 679 397 597 358 q 805 507 762 435 q 848 680 848 580 q 806 854 848 780 q 682 969 763 929 q 486 1010 601 1010 l 88 1010 l 88 0 m 633 460 l 403 460 l 649 0 l 884 0 l 633 460 m 260 1108 l 409 1108 l 304 1332 l 107 1332 l 260 1108 m 504 1108 l 650 1108 l 590 1332 l 399 1332 l 504 1108 "},"Ȓ":{"ha":911,"x_min":88,"x_max":884,"o":"m 88 0 l 301 0 l 301 836 l 445 836 q 548 818 507 836 q 608 765 588 799 q 628 680 628 730 q 608 597 628 630 q 548 546 588 563 q 446 530 508 530 l 214 530 l 214 358 l 481 358 q 679 397 597 358 q 805 507 762 435 q 848 680 848 580 q 806 854 848 780 q 682 969 763 929 q 486 1010 601 1010 l 88 1010 l 88 0 m 633 460 l 403 460 l 649 0 l 884 0 l 633 460 m 204 1132 l 351 1132 q 373 1193 350 1166 q 448 1220 395 1220 q 524 1193 501 1220 q 546 1132 546 1166 l 693 1132 q 627 1279 693 1222 q 448 1337 561 1337 q 270 1279 336 1337 q 204 1132 204 1222 "},"Ṙ":{"ha":911,"x_min":88,"x_max":884,"o":"m 88 0 l 301 0 l 301 836 l 445 836 q 548 818 507 836 q 608 765 588 799 q 628 680 628 730 q 608 597 628 630 q 548 546 588 563 q 446 530 508 530 l 214 530 l 214 358 l 481 358 q 679 397 597 358 q 805 507 762 435 q 848 680 848 580 q 806 854 848 780 q 682 969 763 929 q 486 1010 601 1010 l 88 1010 l 88 0 m 633 460 l 403 460 l 649 0 l 884 0 l 633 460 m 450 1108 q 530 1139 497 1108 q 564 1214 564 1170 q 530 1289 564 1258 q 450 1320 497 1320 q 370 1289 403 1320 q 336 1214 336 1258 q 370 1139 336 1170 q 450 1108 403 1108 "},"Ṛ":{"ha":911,"x_min":88,"x_max":884,"o":"m 88 0 l 301 0 l 301 836 l 445 836 q 548 818 507 836 q 608 765 588 799 q 628 680 628 730 q 608 597 628 630 q 548 546 588 563 q 446 530 508 530 l 214 530 l 214 358 l 481 358 q 679 397 597 358 q 805 507 762 435 q 848 680 848 580 q 806 854 848 780 q 682 969 763 929 q 486 1010 601 1010 l 88 1010 l 88 0 m 633 460 l 403 460 l 649 0 l 884 0 l 633 460 m 467 -284 q 547 -253 513 -284 q 580 -178 580 -221 q 547 -103 580 -134 q 467 -72 513 -72 q 386 -103 420 -72 q 353 -178 353 -134 q 386 -253 353 -221 q 467 -284 420 -284 "},"Ṝ":{"ha":911,"x_min":88,"x_max":884,"o":"m 88 0 l 301 0 l 301 836 l 445 836 q 548 818 507 836 q 608 765 588 799 q 628 680 628 730 q 608 597 628 630 q 548 546 588 563 q 446 530 508 530 l 214 530 l 214 358 l 481 358 q 679 397 597 358 q 805 507 762 435 q 848 680 848 580 q 806 854 848 780 q 682 969 763 929 q 486 1010 601 1010 l 88 1010 l 88 0 m 633 460 l 403 460 l 649 0 l 884 0 l 633 460 m 467 -284 q 547 -253 513 -284 q 580 -178 580 -221 q 547 -103 580 -134 q 467 -72 513 -72 q 386 -103 420 -72 q 353 -178 353 -134 q 386 -253 353 -221 q 467 -284 420 -284 m 690 1263 l 210 1263 l 210 1149 l 690 1149 l 690 1263 "},"Ṟ":{"ha":911,"x_min":88,"x_max":884,"o":"m 88 0 l 301 0 l 301 836 l 445 836 q 548 818 507 836 q 608 765 588 799 q 628 680 628 730 q 608 597 628 630 q 548 546 588 563 q 446 530 508 530 l 214 530 l 214 358 l 481 358 q 679 397 597 358 q 805 507 762 435 q 848 680 848 580 q 806 854 848 780 q 682 969 763 929 q 486 1010 601 1010 l 88 1010 l 88 0 m 633 460 l 403 460 l 649 0 l 884 0 l 633 460 m 707 -126 l 226 -126 l 226 -240 l 707 -240 l 707 -126 "},"℟":{"ha":920,"x_min":92,"x_max":888,"o":"m 648 1152 l 363 1224 l 342 1151 l 559 1100 l 266 -237 l 345 -248 l 648 1152 m 92 0 l 305 0 l 305 836 l 449 836 q 551 818 511 836 q 612 765 592 799 q 632 680 632 730 q 612 597 632 630 q 551 546 592 563 q 450 530 511 530 l 218 530 l 218 358 l 484 358 q 683 397 601 358 q 808 507 765 435 q 852 680 852 580 q 809 854 852 780 q 686 969 766 929 q 490 1010 605 1010 l 92 1010 l 92 0 m 637 460 l 406 460 l 652 0 l 888 0 l 637 460 "},"℞":{"ha":1064,"x_min":88,"x_max":999,"o":"m 88 1010 l 88 0 l 301 0 l 301 834 l 477 834 q 565 817 530 834 q 618 767 600 799 q 635 691 635 735 q 617 613 635 645 q 562 566 598 582 q 474 550 526 550 l 224 550 l 225 375 l 578 375 l 623 393 q 738 456 688 416 q 818 555 789 496 q 846 695 846 615 q 805 863 846 792 q 682 972 764 933 q 477 1010 600 1010 l 88 1010 m 815 0 l 999 0 l 666 457 l 485 457 l 815 0 m 646 0 l 975 457 l 830 457 l 496 0 l 646 0 "},"Ɍ":{"ha":939,"x_min":11,"x_max":907,"o":"m 236 372 l 236 532 l 11 532 l 11 372 l 236 372 m 110 0 l 324 0 l 324 836 l 468 836 q 570 818 530 836 q 631 765 611 799 q 651 680 651 730 q 631 597 651 630 q 571 546 611 563 q 469 530 530 530 l 237 530 l 237 358 l 504 358 q 702 397 619 358 q 827 507 784 435 q 871 680 871 580 q 828 854 871 780 q 704 969 785 929 q 509 1010 623 1010 l 110 1010 l 110 0 m 656 460 l 425 460 l 671 0 l 907 0 l 656 460 "},"S":{"ha":909,"x_min":55,"x_max":854,"o":"m 636 720 l 840 720 q 792 878 839 810 q 661 985 745 947 q 465 1024 577 1024 q 267 985 354 1024 q 131 878 181 947 q 82 718 81 810 q 155 540 81 606 q 357 443 229 474 l 467 415 q 561 386 522 402 q 619 346 599 369 q 639 289 639 323 q 617 224 639 253 q 554 181 594 196 q 460 165 514 165 q 361 182 404 165 q 291 233 317 199 q 262 317 265 266 l 55 317 q 108 134 58 208 q 249 23 159 61 q 462 -14 340 -14 q 673 23 585 -14 q 807 128 761 60 q 854 289 854 196 q 831 400 854 352 q 768 485 809 449 q 673 546 728 521 q 551 585 618 571 l 461 607 q 399 625 428 615 q 347 650 369 636 q 312 685 325 665 q 301 732 300 705 q 320 791 301 765 q 375 831 339 816 q 463 845 411 845 q 585 812 540 845 q 636 720 630 779 "},"Ś":{"ha":909,"x_min":55,"x_max":854,"o":"m 636 720 l 840 720 q 792 878 839 810 q 661 985 745 947 q 465 1024 577 1024 q 267 985 354 1024 q 131 878 181 947 q 82 718 81 810 q 155 540 81 606 q 357 443 229 474 l 467 415 q 561 386 522 402 q 619 346 599 369 q 639 289 639 323 q 617 224 639 253 q 554 181 594 196 q 460 165 514 165 q 361 182 404 165 q 291 233 317 199 q 262 317 265 266 l 55 317 q 108 134 58 208 q 249 23 159 61 q 462 -14 340 -14 q 673 23 585 -14 q 807 128 761 60 q 854 289 854 196 q 831 400 854 352 q 768 485 809 449 q 673 546 728 521 q 551 585 618 571 l 461 607 q 399 625 428 615 q 347 650 369 636 q 312 685 325 665 q 301 732 300 705 q 320 791 301 765 q 375 831 339 816 q 463 845 411 845 q 585 812 540 845 q 636 720 630 779 m 379 1108 l 528 1108 l 678 1332 l 484 1332 l 379 1108 "},"Ŝ":{"ha":909,"x_min":55,"x_max":854,"o":"m 636 720 l 840 720 q 792 878 839 810 q 661 985 745 947 q 465 1024 577 1024 q 267 985 354 1024 q 131 878 181 947 q 82 718 81 810 q 155 540 81 606 q 357 443 229 474 l 467 415 q 561 386 522 402 q 619 346 599 369 q 639 289 639 323 q 617 224 639 253 q 554 181 594 196 q 460 165 514 165 q 361 182 404 165 q 291 233 317 199 q 262 317 265 266 l 55 317 q 108 134 58 208 q 249 23 159 61 q 462 -14 340 -14 q 673 23 585 -14 q 807 128 761 60 q 854 289 854 196 q 831 400 854 352 q 768 485 809 449 q 673 546 728 521 q 551 585 618 571 l 461 607 q 399 625 428 615 q 347 650 369 636 q 312 685 325 665 q 301 732 300 705 q 320 791 301 765 q 375 831 339 816 q 463 845 411 845 q 585 812 540 845 q 636 720 630 779 m 554 1101 l 733 1101 l 733 1108 l 533 1325 l 377 1325 l 177 1108 l 177 1101 l 356 1101 l 455 1221 l 554 1101 "},"Ş":{"ha":909,"x_min":55,"x_max":854,"o":"m 636 720 l 840 720 q 792 878 839 810 q 661 985 745 947 q 465 1024 577 1024 q 267 985 354 1024 q 131 878 181 947 q 82 718 81 810 q 155 540 81 606 q 357 443 229 474 l 467 415 q 561 386 522 402 q 619 346 599 369 q 639 289 639 323 q 617 224 639 253 q 554 181 594 196 q 460 165 514 165 q 361 182 404 165 q 291 233 317 199 q 262 317 265 266 l 55 317 q 108 134 58 208 q 249 23 159 61 q 462 -14 340 -14 q 673 23 585 -14 q 807 128 761 60 q 854 289 854 196 q 831 400 854 352 q 768 485 809 449 q 673 546 728 521 q 551 585 618 571 l 461 607 q 399 625 428 615 q 347 650 369 636 q 312 685 325 665 q 301 732 300 705 q 320 791 301 765 q 375 831 339 816 q 463 845 411 845 q 585 812 540 845 q 636 720 630 779 m 408 4 l 386 -96 q 461 -118 437 -103 q 484 -164 485 -134 q 448 -211 483 -196 q 350 -226 412 -226 l 352 -320 q 545 -276 476 -320 q 613 -159 613 -232 q 580 -77 612 -107 q 497 -39 547 -47 l 505 4 l 408 4 "},"Š":{"ha":909,"x_min":55,"x_max":854,"o":"m 636 720 l 840 720 q 792 878 839 810 q 661 985 745 947 q 465 1024 577 1024 q 267 985 354 1024 q 131 878 181 947 q 82 718 81 810 q 155 540 81 606 q 357 443 229 474 l 467 415 q 561 386 522 402 q 619 346 599 369 q 639 289 639 323 q 617 224 639 253 q 554 181 594 196 q 460 165 514 165 q 361 182 404 165 q 291 233 317 199 q 262 317 265 266 l 55 317 q 108 134 58 208 q 249 23 159 61 q 462 -14 340 -14 q 673 23 585 -14 q 807 128 761 60 q 854 289 854 196 q 831 400 854 352 q 768 485 809 449 q 673 546 728 521 q 551 585 618 571 l 461 607 q 399 625 428 615 q 347 650 369 636 q 312 685 325 665 q 301 732 300 705 q 320 791 301 765 q 375 831 339 816 q 463 845 411 845 q 585 812 540 845 q 636 720 630 779 m 356 1325 l 177 1325 l 177 1318 l 377 1101 l 533 1101 l 733 1318 l 733 1325 l 554 1325 l 455 1204 l 356 1325 "},"Ș":{"ha":909,"x_min":55,"x_max":854,"o":"m 636 720 l 840 720 q 792 878 839 810 q 661 985 745 947 q 465 1024 577 1024 q 267 985 354 1024 q 131 878 181 947 q 82 718 81 810 q 155 540 81 606 q 357 443 229 474 l 467 415 q 561 386 522 402 q 619 346 599 369 q 639 289 639 323 q 617 224 639 253 q 554 181 594 196 q 460 165 514 165 q 361 182 404 165 q 291 233 317 199 q 262 317 265 266 l 55 317 q 108 134 58 208 q 249 23 159 61 q 462 -14 340 -14 q 673 23 585 -14 q 807 128 761 60 q 854 289 854 196 q 831 400 854 352 q 768 485 809 449 q 673 546 728 521 q 551 585 618 571 l 461 607 q 399 625 428 615 q 347 650 369 636 q 312 685 325 665 q 301 732 300 705 q 320 791 301 765 q 375 831 339 816 q 463 845 411 845 q 585 812 540 845 q 636 720 630 779 m 301 -330 l 449 -330 l 557 -87 l 363 -87 l 301 -330 "},"Ṡ":{"ha":909,"x_min":55,"x_max":854,"o":"m 636 720 l 840 720 q 792 878 839 810 q 661 985 745 947 q 465 1024 577 1024 q 267 985 354 1024 q 131 878 181 947 q 82 718 81 810 q 155 540 81 606 q 357 443 229 474 l 467 415 q 561 386 522 402 q 619 346 599 369 q 639 289 639 323 q 617 224 639 253 q 554 181 594 196 q 460 165 514 165 q 361 182 404 165 q 291 233 317 199 q 262 317 265 266 l 55 317 q 108 134 58 208 q 249 23 159 61 q 462 -14 340 -14 q 673 23 585 -14 q 807 128 761 60 q 854 289 854 196 q 831 400 854 352 q 768 485 809 449 q 673 546 728 521 q 551 585 618 571 l 461 607 q 399 625 428 615 q 347 650 369 636 q 312 685 325 665 q 301 732 300 705 q 320 791 301 765 q 375 831 339 816 q 463 845 411 845 q 585 812 540 845 q 636 720 630 779 m 455 1108 q 535 1139 502 1108 q 569 1214 569 1170 q 535 1289 569 1258 q 455 1320 502 1320 q 375 1289 408 1320 q 341 1214 341 1258 q 375 1139 341 1170 q 455 1108 408 1108 "},"Ṣ":{"ha":909,"x_min":55,"x_max":854,"o":"m 636 720 l 840 720 q 792 878 839 810 q 661 985 745 947 q 465 1024 577 1024 q 267 985 354 1024 q 131 878 181 947 q 82 718 81 810 q 155 540 81 606 q 357 443 229 474 l 467 415 q 561 386 522 402 q 619 346 599 369 q 639 289 639 323 q 617 224 639 253 q 554 181 594 196 q 460 165 514 165 q 361 182 404 165 q 291 233 317 199 q 262 317 265 266 l 55 317 q 108 134 58 208 q 249 23 159 61 q 462 -14 340 -14 q 673 23 585 -14 q 807 128 761 60 q 854 289 854 196 q 831 400 854 352 q 768 485 809 449 q 673 546 728 521 q 551 585 618 571 l 461 607 q 399 625 428 615 q 347 650 369 636 q 312 685 325 665 q 301 732 300 705 q 320 791 301 765 q 375 831 339 816 q 463 845 411 845 q 585 812 540 845 q 636 720 630 779 m 458 -291 q 538 -259 505 -291 q 572 -184 572 -228 q 538 -109 572 -141 q 458 -78 505 -78 q 378 -109 411 -78 q 344 -184 344 -141 q 378 -259 344 -228 q 458 -291 411 -291 "},"Ṥ":{"ha":909,"x_min":55,"x_max":854,"o":"m 636 720 l 840 720 q 792 878 839 810 q 661 985 745 947 q 465 1024 577 1024 q 267 985 354 1024 q 131 878 181 947 q 82 718 81 810 q 155 540 81 606 q 357 443 229 474 l 467 415 q 561 386 522 402 q 619 346 599 369 q 639 289 639 323 q 617 224 639 253 q 554 181 594 196 q 460 165 514 165 q 361 182 404 165 q 291 233 317 199 q 262 317 265 266 l 55 317 q 108 134 58 208 q 249 23 159 61 q 462 -14 340 -14 q 673 23 585 -14 q 807 128 761 60 q 854 289 854 196 q 831 400 854 352 q 768 485 809 449 q 673 546 728 521 q 551 585 618 571 l 461 607 q 399 625 428 615 q 347 650 369 636 q 312 685 325 665 q 301 732 300 705 q 320 791 301 765 q 375 831 339 816 q 463 845 411 845 q 585 812 540 845 q 636 720 630 779 m 408 1110 l 521 1110 l 659 1283 l 508 1283 l 408 1110 m 230 1277 q 257 1220 231 1244 q 325 1197 283 1197 q 395 1220 369 1197 q 421 1277 421 1244 q 395 1334 421 1310 q 325 1358 369 1358 q 257 1335 283 1358 q 230 1277 231 1311 "},"Ṧ":{"ha":909,"x_min":55,"x_max":854,"o":"m 636 720 l 840 720 q 792 878 839 810 q 661 985 745 947 q 465 1024 577 1024 q 267 985 354 1024 q 131 878 181 947 q 82 718 81 810 q 155 540 81 606 q 357 443 229 474 l 467 415 q 561 386 522 402 q 619 346 599 369 q 639 289 639 323 q 617 224 639 253 q 554 181 594 196 q 460 165 514 165 q 361 182 404 165 q 291 233 317 199 q 262 317 265 266 l 55 317 q 108 134 58 208 q 249 23 159 61 q 462 -14 340 -14 q 673 23 585 -14 q 807 128 761 60 q 854 289 854 196 q 831 400 854 352 q 768 485 809 449 q 673 546 728 521 q 551 585 618 571 l 461 607 q 399 625 428 615 q 347 650 369 636 q 312 685 325 665 q 301 732 300 705 q 320 791 301 765 q 375 831 339 816 q 463 845 411 845 q 585 812 540 845 q 636 720 630 779 m 360 1406 q 386 1350 360 1372 q 455 1327 412 1327 q 524 1350 498 1327 q 550 1406 550 1372 q 524 1463 550 1440 q 455 1487 498 1487 q 386 1464 412 1487 q 360 1406 360 1440 m 364 1294 l 187 1294 l 187 1283 l 385 1126 l 527 1126 l 724 1282 l 724 1294 l 547 1294 l 456 1217 l 364 1294 "},"Ṩ":{"ha":909,"x_min":55,"x_max":854,"o":"m 636 720 l 840 720 q 792 878 839 810 q 661 985 745 947 q 465 1024 577 1024 q 267 985 354 1024 q 131 878 181 947 q 82 718 81 810 q 155 540 81 606 q 357 443 229 474 l 467 415 q 561 386 522 402 q 619 346 599 369 q 639 289 639 323 q 617 224 639 253 q 554 181 594 196 q 460 165 514 165 q 361 182 404 165 q 291 233 317 199 q 262 317 265 266 l 55 317 q 108 134 58 208 q 249 23 159 61 q 462 -14 340 -14 q 673 23 585 -14 q 807 128 761 60 q 854 289 854 196 q 831 400 854 352 q 768 485 809 449 q 673 546 728 521 q 551 585 618 571 l 461 607 q 399 625 428 615 q 347 650 369 636 q 312 685 325 665 q 301 732 300 705 q 320 791 301 765 q 375 831 339 816 q 463 845 411 845 q 585 812 540 845 q 636 720 630 779 m 458 -291 q 538 -259 505 -291 q 572 -184 572 -228 q 538 -109 572 -141 q 458 -78 505 -78 q 378 -109 411 -78 q 344 -184 344 -141 q 378 -259 344 -228 q 458 -291 411 -291 m 455 1108 q 535 1139 502 1108 q 569 1214 569 1170 q 535 1289 569 1258 q 455 1320 502 1320 q 375 1289 408 1320 q 341 1214 341 1258 q 375 1139 341 1170 q 455 1108 408 1108 "},"Ѕ":{"ha":909,"x_min":55,"x_max":854,"o":"m 636 720 l 840 720 q 792 878 839 810 q 661 985 745 947 q 465 1024 577 1024 q 267 985 354 1024 q 131 878 181 947 q 82 718 81 810 q 155 540 81 606 q 357 443 229 474 l 467 415 q 561 386 522 402 q 619 346 599 369 q 639 289 639 323 q 617 224 639 253 q 554 181 594 196 q 460 165 514 165 q 361 182 404 165 q 291 233 317 199 q 262 317 265 266 l 55 317 q 108 134 58 208 q 249 23 159 61 q 462 -14 340 -14 q 673 23 585 -14 q 807 128 761 60 q 854 289 854 196 q 831 400 854 352 q 768 485 809 449 q 673 546 728 521 q 551 585 618 571 l 461 607 q 399 625 428 615 q 347 650 369 636 q 312 685 325 665 q 301 732 300 705 q 320 791 301 765 q 375 831 339 816 q 463 845 411 845 q 585 812 540 845 q 636 720 630 779 "},"Ƨ":{"ha":909,"x_min":55,"x_max":854,"o":"m 274 720 q 300 787 278 760 q 358 830 321 815 q 446 845 395 845 q 535 831 499 845 q 590 791 571 816 q 609 732 609 765 q 588 672 610 696 q 529 633 566 648 q 449 607 493 618 l 358 585 q 237 546 292 571 q 141 485 182 521 q 78 400 101 449 q 55 289 56 352 q 102 128 56 196 q 236 23 149 60 q 447 -14 324 -14 q 660 23 570 -14 q 801 134 751 61 q 854 317 852 208 l 648 317 q 618 233 644 266 q 549 182 592 199 q 450 165 506 165 q 355 181 396 165 q 293 224 315 196 q 271 289 271 253 q 291 346 271 323 q 349 386 311 369 q 442 415 387 402 l 552 443 q 754 540 680 474 q 828 718 828 606 q 779 878 829 810 q 642 985 729 947 q 445 1024 555 1024 q 248 985 332 1024 q 117 878 164 947 q 69 720 71 810 l 274 720 "},"ẞ":{"ha":995,"x_min":88,"x_max":940,"o":"m 88 0 l 301 0 l 301 665 q 316 762 301 719 q 363 830 331 805 q 447 855 396 855 q 550 837 503 855 q 630 793 596 819 l 446 583 l 446 455 l 539 455 q 590 450 563 455 q 642 435 618 446 q 688 406 667 424 q 720 360 708 387 q 732 293 732 332 q 688 191 732 228 q 566 154 644 154 q 489 163 528 154 q 417 186 450 173 l 358 27 q 465 -3 405 8 q 581 -14 525 -14 q 767 24 686 -14 q 894 130 848 62 q 940 292 940 199 q 906 432 940 370 q 809 534 872 494 q 661 585 746 575 l 886 849 q 749 939 823 900 q 596 1001 674 979 q 445 1024 518 1024 q 255 980 336 1024 q 131 856 175 937 q 88 665 88 776 l 88 0 "},"T":{"ha":928,"x_min":49,"x_max":879,"o":"m 49 834 l 359 834 l 359 0 l 570 0 l 570 834 l 879 834 l 879 1010 l 49 1010 l 49 834 "},"Ţ":{"ha":928,"x_min":49,"x_max":879,"o":"m 49 834 l 359 834 l 359 0 l 570 0 l 570 834 l 879 834 l 879 1010 l 49 1010 l 49 834 m 419 4 l 397 -96 q 472 -118 448 -103 q 495 -164 496 -134 q 458 -211 494 -196 q 361 -226 423 -226 l 363 -320 q 555 -276 487 -320 q 623 -159 624 -232 q 591 -77 623 -107 q 508 -39 558 -47 l 515 4 l 419 4 "},"Ť":{"ha":928,"x_min":49,"x_max":879,"o":"m 49 834 l 359 834 l 359 0 l 570 0 l 570 834 l 879 834 l 879 1010 l 49 1010 l 49 834 m 366 1325 l 187 1325 l 187 1318 l 387 1101 l 543 1101 l 743 1318 l 743 1325 l 564 1325 l 465 1204 l 366 1325 "},"Ț":{"ha":928,"x_min":49,"x_max":879,"o":"m 49 834 l 359 834 l 359 0 l 570 0 l 570 834 l 879 834 l 879 1010 l 49 1010 l 49 834 m 307 -324 l 454 -324 l 562 -80 l 368 -80 l 307 -324 "},"Ṫ":{"ha":928,"x_min":49,"x_max":879,"o":"m 49 834 l 359 834 l 359 0 l 570 0 l 570 834 l 879 834 l 879 1010 l 49 1010 l 49 834 m 465 1108 q 545 1139 512 1108 q 579 1214 579 1170 q 545 1289 579 1258 q 465 1320 512 1320 q 385 1289 418 1320 q 351 1214 351 1258 q 385 1139 351 1170 q 465 1108 418 1108 "},"Ṭ":{"ha":928,"x_min":49,"x_max":879,"o":"m 49 834 l 359 834 l 359 0 l 570 0 l 570 834 l 879 834 l 879 1010 l 49 1010 l 49 834 m 464 -284 q 544 -253 510 -284 q 577 -178 577 -221 q 544 -103 577 -134 q 464 -72 510 -72 q 383 -103 417 -72 q 350 -178 350 -134 q 383 -253 350 -221 q 464 -284 417 -284 "},"Ṯ":{"ha":928,"x_min":49,"x_max":879,"o":"m 49 834 l 359 834 l 359 0 l 570 0 l 570 834 l 879 834 l 879 1010 l 49 1010 l 49 834 m 704 -126 l 223 -126 l 223 -240 l 704 -240 l 704 -126 "},"Ṱ":{"ha":928,"x_min":49,"x_max":879,"o":"m 49 834 l 359 834 l 359 0 l 570 0 l 570 834 l 879 834 l 879 1010 l 49 1010 l 49 834 m 563 -287 l 742 -287 l 742 -280 l 542 -63 l 386 -63 l 185 -280 l 185 -287 l 364 -287 l 464 -167 l 563 -287 "},"Ƭ":{"ha":977,"x_min":49,"x_max":927,"o":"m 927 1010 l 327 1010 q 121 940 192 1010 q 49 749 49 870 l 49 652 l 226 652 l 226 711 q 234 769 226 741 q 264 816 242 798 q 327 834 286 834 l 407 834 l 407 0 l 618 0 l 618 834 l 927 834 l 927 1010 "},"Ʈ":{"ha":928,"x_min":49,"x_max":879,"o":"m 570 0 l 359 0 l 359 -46 q 381 -166 359 -119 q 441 -238 403 -213 q 526 -274 479 -264 q 622 -284 573 -284 l 720 -284 l 720 -119 l 678 -119 q 603 -105 637 -119 q 570 -46 570 -91 l 570 0 m 49 834 l 359 834 l 359 0 l 570 0 l 570 834 l 879 834 l 879 1010 l 49 1010 l 49 834 "},"Ⱦ":{"ha":928,"x_min":49,"x_max":879,"o":"m 212 -128 l 341 -128 l 751 1138 l 621 1138 l 212 -128 m 49 834 l 359 834 l 359 0 l 570 0 l 570 834 l 879 834 l 879 1010 l 49 1010 l 49 834 "},"Τ":{"ha":928,"x_min":49,"x_max":879,"o":"m 49 834 l 359 834 l 359 0 l 570 0 l 570 834 l 879 834 l 879 1010 l 49 1010 l 49 834 "},"U":{"ha":1013,"x_min":88,"x_max":925,"o":"m 712 1010 l 712 372 q 686 270 712 315 q 615 199 661 225 q 507 174 569 174 q 399 199 445 174 q 327 270 352 225 q 301 372 301 315 l 301 1010 l 88 1010 l 88 354 q 140 161 88 244 q 287 32 192 78 q 507 -14 381 -14 q 726 32 632 -14 q 873 161 820 78 q 925 354 925 244 l 925 1010 l 712 1010 "},"Ư":{"ha":1208,"x_min":88,"x_max":1159,"o":"m 1023 1047 q 1014 935 1023 981 q 969 863 1004 888 q 859 837 934 837 l 859 727 q 1040 765 975 727 q 1132 874 1105 802 q 1159 1047 1159 945 l 1023 1047 m 712 1010 l 712 372 q 686 270 712 315 q 615 199 661 225 q 507 174 569 174 q 399 199 445 174 q 327 270 352 225 q 301 372 301 315 l 301 1010 l 88 1010 l 88 354 q 140 161 88 244 q 287 32 192 78 q 507 -14 381 -14 q 726 32 632 -14 q 873 161 820 78 q 925 354 925 244 l 925 1010 l 712 1010 "},"Ù":{"ha":1013,"x_min":88,"x_max":925,"o":"m 712 1010 l 712 372 q 686 270 712 315 q 615 199 661 225 q 507 174 569 174 q 399 199 445 174 q 327 270 352 225 q 301 372 301 315 l 301 1010 l 88 1010 l 88 354 q 140 161 88 244 q 287 32 192 78 q 507 -14 381 -14 q 726 32 632 -14 q 873 161 820 78 q 925 354 925 244 l 925 1010 l 712 1010 m 434 1108 l 582 1108 l 477 1332 l 284 1332 l 434 1108 "},"Ú":{"ha":1013,"x_min":88,"x_max":925,"o":"m 712 1010 l 712 372 q 686 270 712 315 q 615 199 661 225 q 507 174 569 174 q 399 199 445 174 q 327 270 352 225 q 301 372 301 315 l 301 1010 l 88 1010 l 88 354 q 140 161 88 244 q 287 32 192 78 q 507 -14 381 -14 q 726 32 632 -14 q 873 161 820 78 q 925 354 925 244 l 925 1010 l 712 1010 m 431 1108 l 580 1108 l 730 1332 l 536 1332 l 431 1108 "},"Û":{"ha":1013,"x_min":88,"x_max":925,"o":"m 712 1010 l 712 372 q 686 270 712 315 q 615 199 661 225 q 507 174 569 174 q 399 199 445 174 q 327 270 352 225 q 301 372 301 315 l 301 1010 l 88 1010 l 88 354 q 140 161 88 244 q 287 32 192 78 q 507 -14 381 -14 q 726 32 632 -14 q 873 161 820 78 q 925 354 925 244 l 925 1010 l 712 1010 m 606 1101 l 785 1101 l 785 1108 l 584 1325 l 428 1325 l 228 1108 l 228 1101 l 407 1101 l 507 1221 l 606 1101 "},"Ü":{"ha":1013,"x_min":88,"x_max":925,"o":"m 712 1010 l 712 372 q 686 270 712 315 q 615 199 661 225 q 507 174 569 174 q 399 199 445 174 q 327 270 352 225 q 301 372 301 315 l 301 1010 l 88 1010 l 88 354 q 140 161 88 244 q 287 32 192 78 q 507 -14 381 -14 q 726 32 632 -14 q 873 161 820 78 q 925 354 925 244 l 925 1010 l 712 1010 m 356 1114 q 429 1144 399 1114 q 459 1214 459 1173 q 429 1285 459 1256 q 356 1314 399 1314 q 283 1285 314 1314 q 253 1214 253 1256 q 283 1144 253 1173 q 356 1114 314 1114 m 658 1114 q 731 1144 701 1114 q 761 1214 761 1173 q 731 1285 761 1256 q 658 1314 701 1314 q 585 1285 616 1314 q 554 1214 554 1256 q 585 1144 554 1173 q 658 1114 616 1114 "},"Ũ":{"ha":1013,"x_min":88,"x_max":925,"o":"m 712 1010 l 712 372 q 686 270 712 315 q 615 199 661 225 q 507 174 569 174 q 399 199 445 174 q 327 270 352 225 q 301 372 301 315 l 301 1010 l 88 1010 l 88 354 q 140 161 88 244 q 287 32 192 78 q 507 -14 381 -14 q 726 32 632 -14 q 873 161 820 78 q 925 354 925 244 l 925 1010 l 712 1010 m 365 1103 q 381 1158 365 1138 q 422 1178 397 1178 q 462 1167 444 1178 q 499 1141 480 1156 q 542 1115 517 1126 q 604 1104 567 1104 q 717 1155 671 1105 q 764 1299 763 1206 l 650 1303 q 635 1248 650 1269 q 591 1226 619 1227 q 551 1237 570 1226 q 513 1263 533 1248 q 468 1289 493 1278 q 409 1300 443 1300 q 295 1249 342 1300 q 249 1105 249 1199 l 365 1103 "},"Ū":{"ha":1013,"x_min":88,"x_max":925,"o":"m 712 1010 l 712 372 q 686 270 712 315 q 615 199 661 225 q 507 174 569 174 q 399 199 445 174 q 327 270 352 225 q 301 372 301 315 l 301 1010 l 88 1010 l 88 354 q 140 161 88 244 q 287 32 192 78 q 507 -14 381 -14 q 726 32 632 -14 q 873 161 820 78 q 925 354 925 244 l 925 1010 l 712 1010 m 747 1263 l 266 1263 l 266 1149 l 747 1149 l 747 1263 "},"Ŭ":{"ha":1013,"x_min":88,"x_max":925,"o":"m 712 1010 l 712 372 q 686 270 712 315 q 615 199 661 225 q 507 174 569 174 q 399 199 445 174 q 327 270 352 225 q 301 372 301 315 l 301 1010 l 88 1010 l 88 354 q 140 161 88 244 q 287 32 192 78 q 507 -14 381 -14 q 726 32 632 -14 q 873 161 820 78 q 925 354 925 244 l 925 1010 l 712 1010 m 604 1274 q 581 1213 604 1239 q 507 1186 559 1186 q 430 1213 453 1186 q 408 1274 408 1240 l 263 1274 q 328 1130 263 1185 q 507 1075 394 1075 q 684 1130 618 1075 q 751 1274 750 1185 l 604 1274 "},"Ů":{"ha":1013,"x_min":88,"x_max":925,"o":"m 712 1010 l 712 372 q 686 270 712 315 q 615 199 661 225 q 507 174 569 174 q 399 199 445 174 q 327 270 352 225 q 301 372 301 315 l 301 1010 l 88 1010 l 88 354 q 140 161 88 244 q 287 32 192 78 q 507 -14 381 -14 q 726 32 632 -14 q 873 161 820 78 q 925 354 925 244 l 925 1010 l 712 1010 m 507 1068 q 583 1088 548 1068 q 638 1142 618 1108 q 658 1217 658 1176 q 638 1291 658 1258 q 583 1345 618 1325 q 507 1365 548 1365 q 430 1345 465 1365 q 375 1291 396 1325 q 355 1217 355 1258 q 399 1112 355 1156 q 507 1068 443 1068 m 507 1153 q 459 1171 478 1152 q 440 1217 440 1190 q 459 1262 440 1243 q 507 1281 479 1281 q 553 1263 534 1281 q 573 1217 573 1244 q 553 1171 573 1190 q 507 1153 534 1153 "},"Ű":{"ha":1013,"x_min":88,"x_max":925,"o":"m 712 1010 l 712 372 q 686 270 712 315 q 615 199 661 225 q 507 174 569 174 q 399 199 445 174 q 327 270 352 225 q 301 372 301 315 l 301 1010 l 88 1010 l 88 354 q 140 161 88 244 q 287 32 192 78 q 507 -14 381 -14 q 726 32 632 -14 q 873 161 820 78 q 925 354 925 244 l 925 1010 l 712 1010 m 544 1098 l 692 1098 l 877 1302 l 700 1302 l 544 1098 m 291 1098 l 437 1098 l 599 1302 l 422 1302 l 291 1098 "},"Ų":{"ha":1013,"x_min":88,"x_max":925,"o":"m 712 1010 l 712 372 q 686 270 712 315 q 615 199 661 225 q 507 174 569 174 q 399 199 445 174 q 327 270 352 225 q 301 372 301 315 l 301 1010 l 88 1010 l 88 354 q 140 161 88 244 q 287 32 192 78 q 507 -14 381 -14 q 726 32 632 -14 q 873 161 820 78 q 925 354 925 244 l 925 1010 l 712 1010 m 539 -282 q 605 -273 577 -282 q 652 -253 633 -263 l 630 -144 q 607 -152 620 -147 q 578 -156 594 -156 q 542 -143 554 -156 q 530 -107 530 -130 q 559 -46 530 -71 q 635 1 589 -21 l 479 58 q 410 4 436 38 q 375 -71 384 -30 q 374 -152 366 -111 q 429 -248 385 -215 q 539 -282 473 -282 "},"Ǔ":{"ha":1013,"x_min":88,"x_max":925,"o":"m 712 1010 l 712 372 q 686 270 712 315 q 615 199 661 225 q 507 174 569 174 q 399 199 445 174 q 327 270 352 225 q 301 372 301 315 l 301 1010 l 88 1010 l 88 354 q 140 161 88 244 q 287 32 192 78 q 507 -14 381 -14 q 726 32 632 -14 q 873 161 820 78 q 925 354 925 244 l 925 1010 l 712 1010 m 407 1325 l 228 1325 l 228 1318 l 428 1101 l 584 1101 l 785 1318 l 785 1325 l 606 1325 l 507 1204 l 407 1325 "},"Ǖ":{"ha":1013,"x_min":88,"x_max":925,"o":"m 712 1010 l 712 372 q 686 270 712 315 q 615 199 661 225 q 507 174 569 174 q 399 199 445 174 q 327 270 352 225 q 301 372 301 315 l 301 1010 l 88 1010 l 88 354 q 140 161 88 244 q 287 32 192 78 q 507 -14 381 -14 q 726 32 632 -14 q 873 161 820 78 q 925 354 925 244 l 925 1010 l 712 1010 m 356 1114 q 429 1144 399 1114 q 459 1214 459 1173 q 429 1285 459 1256 q 356 1314 399 1314 q 283 1285 314 1314 q 253 1214 253 1256 q 283 1144 253 1173 q 356 1114 314 1114 m 658 1114 q 731 1144 701 1114 q 761 1214 761 1173 q 731 1285 761 1256 q 658 1314 701 1314 q 585 1285 616 1314 q 554 1214 554 1256 q 585 1144 554 1173 q 658 1114 616 1114 m 747 1515 l 266 1515 l 266 1401 l 747 1401 l 747 1515 "}}}
